<?xml version="1.0" encoding="utf-8"?>
<!-- Generator: Adobe Illustrator 26.3.1, SVG Export Plug-In . SVG Version: 6.00 Build 0)  -->
<svg version="1.1" id="Calque_1" xmlns="http://www.w3.org/2000/svg" xmlns:xlink="http://www.w3.org/1999/xlink" x="0px" y="0px"
	 viewBox="0 0 125 191.22" style="enable-background:new 0 0 125 191.22;" xml:space="preserve">
<style type="text/css">
	.st0{fill:#CDCCCC;}
	.st1{clip-path:url(#SVGID_00000133494824253546005140000011377792211781272196_);}
	.st2{fill:#F7BFC1;}
	.st3{clip-path:url(#SVGID_00000092447288366293709730000001724515995055597966_);}
	.st4{fill:#8EA7D7;}
	.st5{fill:#465AA5;}
	.st6{clip-path:url(#SVGID_00000155854198961055486460000013755921822583167128_);}
	.st7{fill:#23398C;}
	.st8{fill:#A5B7DF;}
	.st9{fill:#F2948F;}
	.st10{fill:#EA8996;}
	.st11{fill:#F6B2B7;}
	.st12{clip-path:url(#SVGID_00000075873172686974377580000000983085205041059998_);}
	.st13{fill:#1A1B39;}
	.st14{clip-path:url(#SVGID_00000182526710380567300340000014076810879864458930_);}
</style>
<g>
	<g>
		<g>
			<rect x="26.39" y="112.18" class="st0" width="1.99" height="48.22"/>
		</g>
	</g>
	<g>
		<g>
			<rect x="17.44" y="117.15" class="st0" width="1.99" height="48.22"/>
		</g>
	</g>
	<g>
		<g>
			<rect x="35.84" y="120.63" class="st0" width="1.99" height="48.22"/>
		</g>
	</g>
	<g>
		<defs>
			<path id="SVGID_1_" d="M40.4,151.46H9.9c1.36,2.49,3.32,4.6,5.68,6.16v33.11h19.14v-33.11C37.08,156.06,39.04,153.95,40.4,151.46
				z"/>
		</defs>
		<use xlink:href="#SVGID_1_"  style="overflow:visible;fill:#F2948F;"/>
		<clipPath id="SVGID_00000163050739273960319560000013821840007406168734_">
			<use xlink:href="#SVGID_1_"  style="overflow:visible;"/>
		</clipPath>
		<g style="clip-path:url(#SVGID_00000163050739273960319560000013821840007406168734_);">
			<rect x="12.47" y="157.73" class="st2" width="37.04" height="0.38"/>
		</g>
	</g>
	<g>
		<g>
			<defs>
				<path id="SVGID_00000057108611889944572140000001486337129743388811_" d="M117.37,168.86l0.31-43.25c0,0-7.53,4.6-6.13,10.83
					c0.67,2.99,1.78,4.99-0.3,7.48c-2.07,2.49-3.04,4.11-2.84,7.01c0.21,2.9,3.55,3.86,3.13,7.18c-0.41,3.32-2.54,5.78-2.16,7.8
					c0.86,4.61,4.77,6.43,4.77,6.43L117.37,168.86z"/>
			</defs>
			<use xlink:href="#SVGID_00000057108611889944572140000001486337129743388811_"  style="overflow:visible;fill:#465AA5;"/>
			<clipPath id="SVGID_00000171695527720623236740000002467041736545129860_">
				<use xlink:href="#SVGID_00000057108611889944572140000001486337129743388811_"  style="overflow:visible;"/>
			</clipPath>
			<g style="clip-path:url(#SVGID_00000171695527720623236740000002467041736545129860_);">
				<rect x="114.72" y="134.69" class="st4" width="10.27" height="0.38"/>
			</g>
			<g style="clip-path:url(#SVGID_00000171695527720623236740000002467041736545129860_);">
				<rect x="113.06" y="149.28" class="st4" width="10.27" height="0.38"/>
			</g>
			<g style="clip-path:url(#SVGID_00000171695527720623236740000002467041736545129860_);">
				<rect x="113.73" y="165.18" class="st4" width="10.27" height="0.38"/>
			</g>
		</g>
	</g>
	<g>
		<path class="st5" d="M37,94.45c-3.48-7.46-14.52-8.51-19.39,0.83c-4.14,7.95-13.98,5.16-16.74,12.59
			c-4.97,13.42,12.6,18.57,20.05,11.6c5.14-4.81,11.68-1.95,17.4,2.65c9.28,7.46,23.7-8.45,14.58-15.91
			C45.83,100.43,41.29,103.64,37,94.45z"/>
	</g>
	<g>
		<g>
			<defs>
				<path id="SVGID_00000144326566360873308740000006088368257888606629_" d="M89,168.52l0.34-47.39c0,0-8.25,5.04-6.72,11.87
					c0.74,3.27,1.95,5.47-0.33,8.2c-2.27,2.73-3.33,4.5-3.11,7.68c0.23,3.18,3.89,4.23,3.43,7.87c-0.45,3.64-2.78,6.33-2.37,8.54
					c0.94,5.05,5.23,7.05,5.23,7.05L89,168.52z"/>
			</defs>
			<use xlink:href="#SVGID_00000144326566360873308740000006088368257888606629_"  style="overflow:visible;fill:#465AA5;"/>
			<clipPath id="SVGID_00000119090575579426872670000011085895405045410996_">
				<use xlink:href="#SVGID_00000144326566360873308740000006088368257888606629_"  style="overflow:visible;"/>
			</clipPath>
			<g style="clip-path:url(#SVGID_00000119090575579426872670000011085895405045410996_);">
				<rect x="86.1" y="131.11" class="st4" width="11.26" height="0.38"/>
			</g>
			<g style="clip-path:url(#SVGID_00000119090575579426872670000011085895405045410996_);">
				<rect x="85.01" y="164.52" class="st4" width="11.26" height="0.38"/>
			</g>
		</g>
	</g>
	<g>
		<path class="st5" d="M104.94,169.7v-56.69c0,0-9.56,5.84-7.79,13.75c0.85,3.79,2.26,6.34-0.38,9.5c-2.63,3.16-3.86,5.21-3.6,8.9
			c0.26,3.69,4.5,4.9,3.98,9.11c-0.53,4.21-4.59,8.06-2.75,9.9c1.84,1.84,6.06,8.16,6.06,8.16L104.94,169.7z"/>
	</g>
	<g>
		<polygon class="st7" points="97.27,168.38 117.87,168.38 113.95,190.93 101.2,190.93 		"/>
	</g>
	<g>
		<g>
			<path class="st8" d="M68.34,130.08c0-9.46,21.66-5.82,28.38-32.75C102.16,75.58,96,73.32,96,73.32H70.35H57.43H31.79
				c0,0-6.58,2.37-0.73,24.01c7.28,26.93,28.38,23.29,28.38,32.75c0,12.37-20.38,5.82-28.38,32.75
				c-6.39,21.49,0.73,24.01,0.73,24.01h25.64h12.93H96c0,0,6.16-2.26,0.73-24.01C90.73,138.81,68.34,142.45,68.34,130.08z"/>
		</g>
	</g>
	<g>
		<path class="st4" d="M98.24,85.63H29.12c-3.77,0-6.83-2.59-6.83-5.79v-4.77c0-3.2,3.06-5.79,6.83-5.79h69.11
			c3.77,0,6.83,2.59,6.83,5.79v4.77C105.07,83.03,102.01,85.63,98.24,85.63z"/>
	</g>
	<g>
		<path class="st5" d="M82.22,57.63H54.71v6.6c0,3.57,2.24,5.18,5.82,5.18h21.04c3.57,0,7.12-1.61,7.12-5.18V64.1
			C88.69,60.53,85.79,57.63,82.22,57.63z"/>
	</g>
	<g>
		<g>
			<path class="st5" d="M88.4,63.23l3.28,37.2h-4.98c0,0-6.98-22.33-7.78-30.3c-0.8-7.97,3.99-8.8,3.99-8.8L88.4,63.23z"/>
		</g>
	</g>
	<g>
		<path class="st5" d="M72.54,62.73l3.39,37.7h-4.98c0,0-7.33-24.2-8.13-32.17c-0.8-7.97,4.34-6.93,4.34-6.93L72.54,62.73z"/>
	</g>
	<g>
		<path class="st9" d="M91.57,100.43h-4.88v3.74h9.9c0.65,0,0.88-1.47,0.31-1.78L91.57,100.43z"/>
	</g>
	<g>
		<path class="st9" d="M75.93,100.43h-4.88v3.74h9.9c0.65,0,0.88-1.47,0.31-1.78L75.93,100.43z"/>
	</g>
	<g>
		<path class="st7" d="M54.72,57.88h20.53l2.56-30.41c0.23-2.72-1.92-5.06-4.65-5.06H56.81c-2.73,0-4.88,2.34-4.65,5.06L54.72,57.88
			z"/>
	</g>
	<g>
		<path class="st10" d="M63.68,24.31h3.19c0.99,0,1.79-0.9,1.79-2.02v-3.93c0-1.12-0.8-2.02-1.79-2.02h-3.19
			c-0.99,0-1.79,0.9-1.79,2.02v3.93C61.89,23.4,62.69,24.31,63.68,24.31z"/>
	</g>
	<g>
		<path class="st11" d="M72.93,16.33c-1.28,4.33-4.9,3.67-9.24,2.39c-4.33-1.28-6.81-5.83-5.53-10.17
			c1.28-4.33,5.83-6.81,10.17-5.53C72.66,4.31,74.21,12,72.93,16.33z"/>
	</g>
	<g>
		<polygon class="st7" points="77.33,25.2 87.08,41.95 79.5,45.17 73.46,35.26 		"/>
	</g>
	<g>
		<path class="st7" d="M52.25,23.19c-9.55,8.3-11.73,19.3-11.73,19.3c-0.59,1.27-0.14,3.3,1.2,3.74l18.61,9.29l2.59-4.38
			l-13.03-9.92l9.57-10.32l-0.5-8.45C58.96,22.44,53.67,21.95,52.25,23.19z"/>
	</g>
	<g>
		<defs>
			<path id="SVGID_00000118362311916998272600000002507890930336173440_" d="M54.72,57.88h20.53l2.56-30.41
				c0.23-2.72-1.92-5.06-4.65-5.06H56.81c-2.73,0-4.88,2.34-4.65,5.06L54.72,57.88z"/>
		</defs>
		<clipPath id="SVGID_00000183215773200182242520000010135387920912239285_">
			<use xlink:href="#SVGID_00000118362311916998272600000002507890930336173440_"  style="overflow:visible;"/>
		</clipPath>
		<g style="clip-path:url(#SVGID_00000183215773200182242520000010135387920912239285_);">
			
				<rect x="57.47" y="39.77" transform="matrix(0.6977 -0.7164 0.7164 0.6977 -16.5222 55.6361)" class="st4" width="0.38" height="15.24"/>
		</g>
		<g style="clip-path:url(#SVGID_00000183215773200182242520000010135387920912239285_);">
			
				<rect x="54.96" y="46.03" transform="matrix(0.4654 -0.8851 0.8851 0.4654 -17.5088 77.1903)" class="st4" width="0.38" height="14.12"/>
		</g>
	</g>
	<g>
		<rect x="59.68" y="55.38" class="st0" width="32.04" height="2.72"/>
	</g>
	<g>
		<path class="st11" d="M59.98,55.46h8.17l0.6-3.59h-6.17c-1.16,0-2.14,0.84-2.33,1.98L59.98,55.46z"/>
	</g>
	<g>
		<polygon class="st0" points="65.97,55.5 91.7,55.5 95.23,39.57 69.5,39.57 		"/>
	</g>
	<g>
		<path class="st4" d="M79.41,47.96c0,0.94,0.76,1.69,1.69,1.69c0.94,0,1.69-0.76,1.69-1.69c0-0.94-0.76-1.69-1.69-1.69
			C80.17,46.27,79.41,47.02,79.41,47.96z"/>
	</g>
	<g>
		<path class="st2" d="M33.68,175.82c-0.83-2.32,2.4-14.13,3.4-16.28c0.99-2.15,24.61-16.53,26.43-16.36
			c1.82,0.17,24.32,12.01,27.14,16.99c2.82,4.97,3.36,15.66,3.36,15.66H33.68z"/>
	</g>
	<g>
		<path class="st4" d="M98.24,191.22H29.12c-3.77,0-6.83-2.59-6.83-5.79v-4.77c0-3.2,3.06-5.79,6.83-5.79h69.11
			c3.77,0,6.83,2.59,6.83,5.79v4.77C105.07,188.63,102.01,191.22,98.24,191.22z"/>
	</g>
	<g>
		<path class="st2" d="M63.93,123.37c-1.12,0-9.69-4.72-14.54-8.2c-4.85-3.48-3.73-4.97-1.86-5.59s34.93-0.37,36.29,0.99
			c1.37,1.37-6.34,5.97-9.69,8.33C71.66,120.62,66.04,123.37,63.93,123.37z"/>
	</g>
	<g>
		<path class="st13" d="M60.26,16.91c0.47,0.43,2.3-0.17,1.18-1.49c-1.37-1.62-2.61-4.41-0.37-4.91c2.24-0.5,1.62,2.18,2.61,2.18
			c0.99,0,0.12-3.54,0.5-5.53c0.37-1.99,5.47-1.74,7.95-2.11c2.49-0.37,2.8-5.72-3.6-4.97c-4.31,0.5-7.46,1.8-10.19,5.9
			C56.27,9.08,57.28,14.18,60.26,16.91z"/>
	</g>
	<g>
		<defs>
			<path id="SVGID_00000150061324334432792220000000010892079408984232_" d="M104.94,169.7v-56.69c0,0-9.56,5.84-7.79,13.75
				c0.85,3.79,2.26,6.34-0.38,9.5c-2.63,3.16-3.86,5.21-3.6,8.9c0.26,3.69,4.5,4.9,3.98,9.11c-0.53,4.21-4.59,8.06-2.75,9.9
				c1.84,1.84,6.06,8.16,6.06,8.16L104.94,169.7z"/>
		</defs>
		<clipPath id="SVGID_00000134231756487164180580000008030989895480546691_">
			<use xlink:href="#SVGID_00000150061324334432792220000000010892079408984232_"  style="overflow:visible;"/>
		</clipPath>
		<g style="clip-path:url(#SVGID_00000134231756487164180580000008030989895480546691_);">
			<rect x="100.63" y="125.91" class="st4" width="10.27" height="0.38"/>
		</g>
		<g style="clip-path:url(#SVGID_00000134231756487164180580000008030989895480546691_);">
			<rect x="97.98" y="143.64" class="st4" width="10.27" height="0.38"/>
		</g>
		<g style="clip-path:url(#SVGID_00000134231756487164180580000008030989895480546691_);">
			<rect x="100.63" y="161.54" class="st4" width="10.27" height="0.38"/>
		</g>
	</g>
	<g>
		<path class="st5" d="M11.75,135.22c-1.62,1.36,0.42,4.99,4.49,4.24c4.07-0.75,6.15-2.66,3.91-4.74
			C17.9,132.64,14.83,132.64,11.75,135.22z"/>
	</g>
	<g>
		<path class="st5" d="M23.4,127.75c2.78-5.09,7.03-0.82,9.69,0.47c5.32,2.6,6.18-0.81,8.98,0.59c2.83,1.42,1.65,5.08-4.37,6.14
			C32.46,135.88,20.57,132.94,23.4,127.75z"/>
	</g>
</g>
</svg>
