<?xml version="1.0" encoding="utf-8"?>
<!-- Generator: Adobe Illustrator 26.3.1, SVG Export Plug-In . SVG Version: 6.00 Build 0)  -->
<svg version="1.1" id="Calque_1" xmlns="http://www.w3.org/2000/svg" xmlns:xlink="http://www.w3.org/1999/xlink" x="0px" y="0px"
	 viewBox="0 0 132.83 153.03" style="enable-background:new 0 0 132.83 153.03;" xml:space="preserve">
<style type="text/css">
	.st0{clip-path:url(#SVGID_00000036224066113622426960000017657703589891339403_);}
	.st1{fill:#8EA7D7;}
	.st2{clip-path:url(#SVGID_00000008832089314144358570000018169020039939034285_);}
	.st3{fill:#F7BFC1;}
	.st4{clip-path:url(#SVGID_00000094611384471927296540000005267988322007336868_);}
	.st5{clip-path:url(#SVGID_00000037672261583115349480000009028284357053153696_);}
	.st6{fill:#465AA5;}
	.st7{fill:#231F20;}
	.st8{fill:#FFFFFF;}
	.st9{fill:#1A1B39;}
	.st10{clip-path:url(#SVGID_00000002378952299408566160000002323835163436735636_);}
	.st11{fill:#CDCCCC;}
	.st12{fill:#F2948F;}
	.st13{fill:#23398C;}
	.st14{fill:#A5B7DF;}
	.st15{fill:#EA8996;}
	.st16{fill:#F6B2B7;}
	.st17{clip-path:url(#SVGID_00000174585113583223254690000009336051553068279214_);}
</style>
<g>
	<g>
		<g>
			<defs>
				<path id="SVGID_1_" d="M20.93,114.42l-0.25-34.5c0,0,6.01,3.67,4.89,8.64c-0.54,2.38-1.42,3.98,0.24,5.97
					c1.65,1.99,2.43,3.28,2.26,5.59c-0.17,2.32-2.83,3.08-2.5,5.73c0.33,2.65,2.03,4.61,1.73,6.22c-0.69,3.68-3.81,5.13-3.81,5.13
					L20.93,114.42z"/>
			</defs>
			<use xlink:href="#SVGID_1_"  style="overflow:visible;fill:#F7BFC1;"/>
			<clipPath id="SVGID_00000026145024692912495390000005714478265973479568_">
				<use xlink:href="#SVGID_1_"  style="overflow:visible;"/>
			</clipPath>
			<g style="clip-path:url(#SVGID_00000026145024692912495390000005714478265973479568_);">
				<rect x="14.85" y="87.09" class="st1" width="8.2" height="0.46"/>
			</g>
			<g style="clip-path:url(#SVGID_00000026145024692912495390000005714478265973479568_);">
				<rect x="16.17" y="98.72" class="st1" width="8.2" height="0.46"/>
			</g>
			<g style="clip-path:url(#SVGID_00000026145024692912495390000005714478265973479568_);">
				<rect x="15.64" y="111.41" class="st1" width="8.2" height="0.46"/>
			</g>
		</g>
	</g>
	<g>
		<g>
			<defs>
				<path id="SVGID_00000005242260576108761080000014737033030023957676_" d="M10.27,114.92l-0.52-43.6c0,0,7.39,4.52,6.02,10.64
					c-0.66,2.93-1.74,4.9,0.29,7.34c2.04,2.44,2.99,4.03,2.78,6.88c-0.2,2.85-3.48,3.79-3.08,7.05c0.41,3.26,2.49,5.67,2.12,7.65
					c-0.85,4.52-4.68,6.31-4.68,6.31L10.27,114.92z"/>
			</defs>
			<use xlink:href="#SVGID_00000005242260576108761080000014737033030023957676_"  style="overflow:visible;fill:#F7BFC1;"/>
			<clipPath id="SVGID_00000012467515625727731580000009121541921058589373_">
				<use xlink:href="#SVGID_00000005242260576108761080000014737033030023957676_"  style="overflow:visible;"/>
			</clipPath>
			<g style="clip-path:url(#SVGID_00000012467515625727731580000009121541921058589373_);">
				<rect x="2.57" y="80.2" class="st1" width="10.09" height="0.46"/>
			</g>
			<g style="clip-path:url(#SVGID_00000012467515625727731580000009121541921058589373_);">
				<rect x="4.2" y="94.52" class="st1" width="10.09" height="0.46"/>
			</g>
			<g style="clip-path:url(#SVGID_00000012467515625727731580000009121541921058589373_);">
				<rect x="3.55" y="110.13" class="st1" width="10.09" height="0.46"/>
			</g>
		</g>
	</g>
	<g>
		<g>
			<path class="st3" d="M29.91,118.65V67.84c0,0,8.57,5.24,6.98,12.33c-0.76,3.4-2.02,5.68,0.34,8.51c2.36,2.83,3.59,4.68,3.23,7.97
				c-0.48,4.34-4.04,4.39-3.56,8.17c0.47,3.78,3.18,6.65,2.46,8.87c-1.7,5.24-5.43,7.32-5.43,7.32L29.91,118.65z"/>
		</g>
		<g>
			<defs>
				<path id="SVGID_00000129915112300531484960000010388388123916824735_" d="M29.91,118.65V67.84c0,0,8.57,5.24,6.98,12.33
					c-0.76,3.4-2.02,5.68,0.34,8.51c2.36,2.83,3.46,4.67,3.23,7.97c-0.24,3.3-4.04,4.39-3.56,8.17c0.47,3.78,4.11,7.22,2.46,8.87
					c-1.65,1.65-5.43,7.32-5.43,7.32L29.91,118.65z"/>
			</defs>
			<clipPath id="SVGID_00000088134912382418428970000006154539567389665718_">
				<use xlink:href="#SVGID_00000129915112300531484960000010388388123916824735_"  style="overflow:visible;"/>
			</clipPath>
			<g style="clip-path:url(#SVGID_00000088134912382418428970000006154539567389665718_);">
				<rect x="24.56" y="79.35" class="st1" width="9.21" height="0.46"/>
			</g>
			<g style="clip-path:url(#SVGID_00000088134912382418428970000006154539567389665718_);">
				<rect x="26.94" y="95.24" class="st1" width="9.21" height="0.46"/>
			</g>
			<g style="clip-path:url(#SVGID_00000088134912382418428970000006154539567389665718_);">
				<rect x="24.56" y="111.28" class="st1" width="9.21" height="0.46"/>
			</g>
		</g>
	</g>
	<g>
		<defs>
			<polygon id="SVGID_00000003069831070062817000000012675333107260968093_" points="24.69,114.3 24.65,114.3 10.19,114.3 
				16.56,152.48 23.59,152.48 25.75,152.48 32.78,152.48 39.14,114.3 			"/>
		</defs>
		<use xlink:href="#SVGID_00000003069831070062817000000012675333107260968093_"  style="overflow:visible;fill:#F2948F;"/>
		<clipPath id="SVGID_00000064340395853968088240000001012599843118429842_">
			<use xlink:href="#SVGID_00000003069831070062817000000012675333107260968093_"  style="overflow:visible;"/>
		</clipPath>
		<g style="clip-path:url(#SVGID_00000064340395853968088240000001012599843118429842_);">
			<rect x="6.28" y="118.47" class="st1" width="39.25" height="0.46"/>
		</g>
	</g>
	<g>
		<g>
			<path class="st6" d="M122.62,116.26c1.22-0.24,4.53-2.82,7.22-9.92c1.54-4.06,5.88-24.98,0-26.45
				c-5.88-1.47-4.77,9.06-4.77,18.73C125.07,104.53,122.62,116.26,122.62,116.26z"/>
		</g>
		<g>
			<path class="st6" d="M119.92,117.24c3.09-0.21,2.45-31.47,2.69-38.81c0.24-7.35,1.71-34.77-2.45-39.18
				c-4.16-4.41-8.45-0.49-8.82,5.2c-0.17,2.7,0.73,22.34,1.22,27.98c0.49,5.63,1.1,18.37,1.59,26.45
				C114.66,106.96,116.25,117.49,119.92,117.24z"/>
		</g>
		<g>
			<path class="st6" d="M114.17,117.61c0,0-6.86-13.54-8.57-24c-3.06-18.73-3.67-36.98,0.49-36.73c4.16,0.24,4.46,18.61,4.65,26.45
				c0.49,20.32,5.26,33.06,5.26,33.06L114.17,117.61z"/>
		</g>
		<g>
			<path class="st7" d="M119.3,115.16h-0.46c0-4.17-0.73-16.39-0.73-16.52l0.46-0.03C118.57,98.74,119.3,110.98,119.3,115.16z"/>
		</g>
		<g>
			<path class="st7" d="M123.87,116.17l-0.42-0.17c0.03-0.06,2.58-6.3,4.03-11.91c1.44-5.59,1.1-10.89,1.1-10.95l0.46-0.03
				c0,0.05,0.35,5.43-1.11,11.09C126.46,109.84,123.9,116.1,123.87,116.17z"/>
		</g>
		<g>
			<path class="st8" d="M117.23,98.88c0,0.51,0.41,0.92,0.92,0.92c0.51,0,0.92-0.41,0.92-0.92c0-0.51-0.41-0.92-0.92-0.92
				C117.64,97.96,117.23,98.37,117.23,98.88z"/>
		</g>
		<g>
			<path class="st8" d="M127.88,93.25c0,0.51,0.41,0.92,0.92,0.92s0.92-0.41,0.92-0.92c0-0.51-0.41-0.92-0.92-0.92
				S127.88,92.74,127.88,93.25z"/>
		</g>
		<g>
			<path class="st8" d="M106.27,85.04c0,0.51,0.41,0.92,0.92,0.92c0.51,0,0.92-0.41,0.92-0.92c0-0.51-0.41-0.92-0.92-0.92
				C106.68,84.12,106.27,84.54,106.27,85.04z"/>
		</g>
	</g>
	<g>
		<path class="st9" d="M106.81,90.16V24.25c0-2.56-2.08-4.64-4.64-4.64h-36.2c-2.56,0-4.64,2.08-4.64,4.64v65.17L106.81,90.16z"/>
	</g>
	<g>
		<path class="st3" d="M105.2,113.68c-0.02,0.31-0.04,0.63-0.04,0.95c0,6.98,5.66,12.64,12.64,12.64c6.98,0,12.64-5.66,12.64-12.64
			c0-0.32-0.02-0.63-0.04-0.95H105.2z"/>
	</g>
	<g>
		<path class="st3" d="M105.2,126.49c-0.02,0.31-0.04,0.63-0.04,0.95c0,6.98,5.66,12.64,12.64,12.64c6.98,0,12.64-5.66,12.64-12.64
			c0-0.32-0.02-0.63-0.04-0.95H105.2z"/>
	</g>
	<g>
		<path class="st3" d="M105.2,139.44c-0.02,0.31-0.04,0.63-0.04,0.95c0,6.98,5.66,12.64,12.64,12.64c6.98,0,12.64-5.66,12.64-12.64
			c0-0.32-0.02-0.63-0.04-0.95H105.2z"/>
	</g>
	<g>
		<g>
			
				<ellipse transform="matrix(0.1614 -0.9869 0.9869 0.1614 -10.7096 57.9913)" class="st3" cx="28.77" cy="35.3" rx="23.98" ry="23.98"/>
		</g>
		<g>
			<defs>
				
					<ellipse id="SVGID_00000133522880554499425360000015881891850327330224_" transform="matrix(0.1607 -0.987 0.987 0.1607 -10.6933 58.0195)" cx="28.77" cy="35.3" rx="19.94" ry="19.94"/>
			</defs>
			<use xlink:href="#SVGID_00000133522880554499425360000015881891850327330224_"  style="overflow:visible;fill:#FFFFFF;"/>
			<clipPath id="SVGID_00000107573288116563275680000000244824847517377171_">
				<use xlink:href="#SVGID_00000133522880554499425360000015881891850327330224_"  style="overflow:visible;"/>
			</clipPath>
			<g style="clip-path:url(#SVGID_00000107573288116563275680000000244824847517377171_);">
				<rect x="25.66" y="6.53" class="st11" width="6.2" height="17.37"/>
			</g>
			<g style="clip-path:url(#SVGID_00000107573288116563275680000000244824847517377171_);">
				<rect x="15.61" y="9.23" transform="matrix(0.866 -0.5 0.5 0.866 -6.447 11.7566)" class="st11" width="6.2" height="17.37"/>
			</g>
			<g style="clip-path:url(#SVGID_00000107573288116563275680000000244824847517377171_);">
				<rect x="8.27" y="16.58" transform="matrix(0.5 -0.866 0.866 0.5 -16.1961 22.4773)" class="st11" width="6.2" height="17.37"/>
			</g>
			<g style="clip-path:url(#SVGID_00000107573288116563275680000000244824847517377171_);">
				<rect y="32.21" class="st11" width="17.37" height="6.2"/>
			</g>
			<g style="clip-path:url(#SVGID_00000107573288116563275680000000244824847517377171_);">
				<rect x="2.7" y="42.25" transform="matrix(0.866 -0.5 0.5 0.866 -21.1506 11.7655)" class="st11" width="17.37" height="6.2"/>
			</g>
			<g style="clip-path:url(#SVGID_00000107573288116563275680000000244824847517377171_);">
				<rect x="10.05" y="49.6" transform="matrix(0.5 -0.866 0.866 0.5 -36.2697 42.5742)" class="st11" width="17.37" height="6.2"/>
			</g>
			<g style="clip-path:url(#SVGID_00000107573288116563275680000000244824847517377171_);">
				<rect x="25.68" y="46.7" class="st11" width="6.2" height="17.36"/>
			</g>
			<g style="clip-path:url(#SVGID_00000107573288116563275680000000244824847517377171_);">
				<rect x="35.72" y="44" transform="matrix(0.866 -0.5 0.5 0.866 -21.142 26.4691)" class="st11" width="6.2" height="17.36"/>
			</g>
			<g style="clip-path:url(#SVGID_00000107573288116563275680000000244824847517377171_);">
				
					<rect x="43.07" y="36.65" transform="matrix(0.5 -0.866 0.866 0.5 -16.1724 62.6486)" class="st11" width="6.2" height="17.36"/>
			</g>
			<g style="clip-path:url(#SVGID_00000107573288116563275680000000244824847517377171_);">
				<rect x="40.17" y="32.18" class="st11" width="17.37" height="6.2"/>
			</g>
			<g style="clip-path:url(#SVGID_00000107573288116563275680000000244824847517377171_);">
				<rect x="37.47" y="22.14" transform="matrix(0.866 -0.5 0.5 0.866 -6.4385 26.4602)" class="st11" width="17.37" height="6.2"/>
			</g>
			<g style="clip-path:url(#SVGID_00000107573288116563275680000000244824847517377171_);">
				<rect x="30.12" y="14.8" transform="matrix(0.5 -0.866 0.866 0.5 3.9009 42.5507)" class="st11" width="17.37" height="6.2"/>
			</g>
		</g>
		<g>
			<path class="st6" d="M29.5,17.95c0,0.41-0.33,0.74-0.74,0.74c-0.41,0-0.74-0.33-0.74-0.74s0.33-0.74,0.74-0.74
				C29.17,17.21,29.5,17.54,29.5,17.95z"/>
		</g>
		<g>
			<path class="st6" d="M20.73,19.9c0.2,0.35,0.08,0.8-0.27,1c-0.35,0.2-0.8,0.08-1-0.27c-0.2-0.35-0.08-0.8,0.27-1
				C20.08,19.43,20.53,19.55,20.73,19.9z"/>
		</g>
		<g>
			<path class="st6" d="M14.11,25.99c0.35,0.2,0.47,0.65,0.27,1c-0.2,0.35-0.65,0.47-1,0.27c-0.35-0.2-0.47-0.65-0.27-1
				C13.31,25.9,13.76,25.78,14.11,25.99z"/>
		</g>
		<g>
			<path class="st6" d="M11.42,34.56c0.41,0,0.74,0.33,0.74,0.74s-0.33,0.74-0.74,0.74c-0.41,0-0.74-0.33-0.74-0.74
				S11.01,34.56,11.42,34.56z"/>
		</g>
		<g>
			<path class="st6" d="M13.37,43.34c0.35-0.2,0.8-0.08,1,0.27c0.2,0.35,0.08,0.8-0.27,1c-0.35,0.2-0.8,0.08-1-0.27
				C12.9,43.99,13.02,43.54,13.37,43.34z"/>
		</g>
		<g>
			<path class="st6" d="M19.46,49.95c0.2-0.35,0.65-0.47,1-0.27c0.35,0.2,0.47,0.65,0.27,1c-0.2,0.35-0.65,0.47-1,0.27
				C19.37,50.76,19.25,50.31,19.46,49.95z"/>
		</g>
		<g>
			<path class="st6" d="M28.03,52.65c0-0.41,0.33-0.74,0.74-0.74c0.41,0,0.74,0.33,0.74,0.74c0,0.41-0.33,0.74-0.74,0.74
				C28.36,53.38,28.03,53.05,28.03,52.65z"/>
		</g>
		<g>
			<path class="st6" d="M36.81,50.69c-0.2-0.35-0.08-0.8,0.27-1c0.35-0.2,0.8-0.08,1,0.27c0.2,0.35,0.08,0.8-0.27,1
				C37.46,51.16,37.01,51.04,36.81,50.69z"/>
		</g>
		<g>
			<path class="st6" d="M43.43,44.61c-0.35-0.2-0.47-0.65-0.27-1c0.2-0.35,0.65-0.47,1-0.27c0.35,0.2,0.47,0.65,0.27,1
				C44.23,44.69,43.78,44.81,43.43,44.61z"/>
		</g>
		<g>
			<path class="st6" d="M46.12,36.03c-0.41,0-0.74-0.33-0.74-0.74s0.33-0.74,0.74-0.74c0.41,0,0.74,0.33,0.74,0.74
				S46.52,36.03,46.12,36.03z"/>
		</g>
		<g>
			<path class="st6" d="M44.16,27.26c-0.35,0.2-0.8,0.08-1-0.27c-0.2-0.35-0.08-0.8,0.27-1s0.8-0.08,1,0.27
				C44.63,26.61,44.51,27.06,44.16,27.26z"/>
		</g>
		<g>
			
				<ellipse transform="matrix(0.1608 -0.987 0.987 0.1608 -10.696 58.0148)" class="st8" cx="28.77" cy="35.3" rx="12.3" ry="12.3"/>
		</g>
		<g>
			<path class="st6" d="M38.08,20.64c-0.2,0.35-0.65,0.47-1,0.27c-0.35-0.2-0.47-0.65-0.27-1c0.2-0.35,0.65-0.47,1-0.27
				C38.16,19.84,38.28,20.29,38.08,20.64z"/>
		</g>
		<g>
			
				<rect x="23.7" y="27.92" transform="matrix(0.4686 -0.8834 0.8834 0.4686 -15.7204 38.8845)" class="st6" width="1.53" height="9.18"/>
		</g>
		<g>
			
				<rect x="28.16" y="31.04" transform="matrix(0.8757 -0.4829 0.4829 0.8757 -10.906 20.8598)" class="st6" width="13.8" height="1.14"/>
		</g>
		<g>
			<path class="st12" d="M32.26,35.3c0,1.93-1.56,3.49-3.49,3.49s-3.49-1.56-3.49-3.49c0-1.93,1.56-3.49,3.49-3.49
				S32.26,33.37,32.26,35.3z"/>
		</g>
	</g>
	<g>
		<rect x="82.92" y="104.97" class="st11" width="6.65" height="25.46"/>
	</g>
	<g>
		<rect x="84.29" y="123.09" class="st11" width="3.9" height="25.46"/>
	</g>
	<g>
		<path class="st9" d="M62.37,108.18h42.51c2.23,0,4.03-1.51,4.03-3.36v-3.06c0-1.86-1.8-3.36-4.03-3.36H62.37
			c-2.23,0-4.03,1.51-4.03,3.36v3.06C58.34,106.68,60.15,108.18,62.37,108.18z"/>
	</g>
	<g>
		<path class="st13" d="M62.37,99.21h42.51c2.23,0,4.03-1.51,4.03-3.36v-3.06c0-1.86-1.8-3.36-4.03-3.36H62.37
			c-2.23,0-4.03,1.51-4.03,3.36v3.06C58.34,97.7,60.15,99.21,62.37,99.21z"/>
	</g>
	<g>
		<g>
			<path class="st11" d="M105.33,149.02c1.23-1.89,1.85-3.91,1.85-6.01c0-8.01-9.39-14.52-20.93-14.52
				c-11.54,0-20.93,6.51-20.93,14.52c0,1.95,0.54,3.83,1.59,5.6l3.08-1.83c-0.72-1.21-1.09-2.48-1.09-3.77
				c0-5.93,7.95-10.94,17.35-10.94c9.41,0,17.35,5.01,17.35,10.94c0,1.4-0.43,2.77-1.27,4.06L105.33,149.02z"/>
		</g>
	</g>
	<g>
		<path class="st13" d="M108.6,148.67c0-2.34-1.9-4.24-4.24-4.24c-2.34,0-4.24,1.9-4.24,4.24c0,2.34,1.9,4.24,4.24,4.24
			C106.7,152.92,108.6,151.02,108.6,148.67z"/>
	</g>
	<g>
		<path class="st13" d="M90.71,148.67c0-2.34-1.9-4.24-4.24-4.24c-2.34,0-4.24,1.9-4.24,4.24c0,2.34,1.9,4.24,4.24,4.24
			C88.81,152.92,90.71,151.02,90.71,148.67z"/>
	</g>
	<g>
		<path class="st6" d="M54.95,78.58h43.73v10.49c0,5.68-4.61,10.29-10.29,10.29H54.95c-5.68,0-10.29-4.61-10.29-10.29v-0.21
			C44.67,83.19,49.27,78.58,54.95,78.58z"/>
	</g>
	<g>
		<path class="st6" d="M45.3,86.69l-5.39,59.95h7.92c0,0,12.67-39.04,13.94-51.71c1.27-12.67-7.92-10.46-7.92-10.46L45.3,86.69z"/>
	</g>
	<g>
		<path class="st6" d="M70.33,86.69l-5.39,59.95h7.92c0,0,12.67-39.04,13.94-51.71c1.27-12.67-7.92-10.46-7.92-10.46L70.33,86.69z"
			/>
	</g>
	<g>
		<path class="st13" d="M40.07,146.64h7.76v5.95H32.09c-1.04,0-1.4-2.33-0.49-2.84L40.07,146.64z"/>
	</g>
	<g>
		<path class="st13" d="M64.94,146.64h7.76v5.95H56.96c-1.04,0-1.4-2.33-0.49-2.84L64.94,146.64z"/>
	</g>
	<g>
		<path class="st14" d="M98.6,78.38H69.98l-3.57-42.4c-0.32-3.8,2.68-7.06,6.49-7.06h22.79c3.81,0,6.81,3.26,6.49,7.06L98.6,78.38z"
			/>
	</g>
	<g>
		<path class="st15" d="M86.1,31.56h-4.45c-1.38,0-2.5-1.26-2.5-2.82v-5.48c0-1.56,1.12-2.82,2.5-2.82h4.45
			c1.38,0,2.5,1.26,2.5,2.82v5.48C88.6,30.3,87.48,31.56,86.1,31.56z"/>
	</g>
	<g>
		<path class="st16" d="M75.41,24.39c4.02,4.85,8.3,2.01,13.15-2c4.85-4.02,5.53-11.21,1.51-16.06c-4.02-4.85-11.21-5.53-16.06-1.51
			C69.16,8.83,71.39,19.53,75.41,24.39z"/>
	</g>
	<g>
		<polygon class="st14" points="67.07,32.81 53.48,56.17 64.05,60.66 72.46,46.83 		"/>
	</g>
	<g>
		<path class="st14" d="M102.05,30c13.32,11.58,16.35,26.91,16.35,26.91c0.83,1.77,0.19,4.6-1.67,5.21L90.79,75.08l-3.61-6.11
			l18.16-13.83L92,40.75l0.69-11.78C92.69,28.96,100.06,28.27,102.05,30z"/>
	</g>
	<g>
		<defs>
			<path id="SVGID_00000098941024384422749490000009251305595166154427_" d="M98.6,78.38H69.98l-3.57-42.4
				c-0.32-3.8,2.68-7.06,6.49-7.06h22.79c3.81,0,6.81,3.26,6.49,7.06L98.6,78.38z"/>
		</defs>
		<clipPath id="SVGID_00000119828406929785259940000011242603251516288658_">
			<use xlink:href="#SVGID_00000098941024384422749490000009251305595166154427_"  style="overflow:visible;"/>
		</clipPath>
		<g style="clip-path:url(#SVGID_00000119828406929785259940000011242603251516288658_);">
			
				<rect x="83.87" y="63.53" transform="matrix(0.7168 -0.6973 0.6973 0.7168 -17.6933 83.9535)" class="st1" width="21.26" height="0.46"/>
		</g>
		<g style="clip-path:url(#SVGID_00000119828406929785259940000011242603251516288658_);">
			
				<rect x="88.16" y="71.47" transform="matrix(0.8852 -0.4652 0.4652 0.8852 -22.1038 53.8209)" class="st1" width="19.69" height="0.46"/>
		</g>
	</g>
	<g>
		<rect x="47" y="74.9" class="st9" width="44.68" height="3.79"/>
	</g>
	<g>
		<path class="st16" d="M91.27,75.01H79.87l-0.83-5h8.6c1.61,0,2.99,1.16,3.25,2.75L91.27,75.01z"/>
	</g>
	<g>
		<g>
			<polygon class="st9" points="82.91,75.05 47.04,75.05 42.11,52.84 77.99,52.84 			"/>
		</g>
	</g>
	<g>
		<path class="st6" d="M64.17,64.55c0,1.3-1.06,2.36-2.36,2.36c-1.3,0-2.36-1.06-2.36-2.36c0-1.3,1.06-2.36,2.36-2.36
			C63.11,62.18,64.17,63.24,64.17,64.55z"/>
	</g>
	<g>
		<path class="st12" d="M91.97,18.19c-0.36,0.81-3.04,1.04-2.33-1.26c0.87-2.82,0.93-7.09-2.22-6.5c-3.14,0.59-0.88,3.67-2.15,4.22
			c-1.27,0.55-2.1-4.47-3.67-6.82c-1.57-2.34-7.97,0.77-11.36,1.65c-3.39,0.89-6.72-5.8,1.89-8.35c5.8-1.72,10.55-1.78,16.3,1.98
			C92.79,5.95,94.29,13.04,91.97,18.19z"/>
	</g>
</g>
</svg>
