<?xml version="1.0" encoding="utf-8"?>
<!-- Generator: Adobe Illustrator 26.3.1, SVG Export Plug-In . SVG Version: 6.00 Build 0)  -->
<svg version="1.1" id="Calque_1" xmlns="http://www.w3.org/2000/svg" xmlns:xlink="http://www.w3.org/1999/xlink" x="0px" y="0px"
	 viewBox="0 0 173.06 163.09" style="enable-background:new 0 0 173.06 163.09;" xml:space="preserve">
<style type="text/css">
	.st0{fill:#231F20;}
	.st1{fill:#CDCCCC;}
	.st2{clip-path:url(#SVGID_00000035491566243319582850000002756407820949857170_);}
	.st3{fill:#465AA5;}
	.st4{fill:#F7BFC1;}
	.st5{fill:#FFFFFF;}
	.st6{clip-path:url(#SVGID_00000117635723860534231840000000700994062072907961_);}
	.st7{fill:#A5B7DF;}
	.st8{fill:#F2948F;}
	.st9{fill:#F6B2B7;}
	.st10{fill:#EA8996;}
	.st11{clip-path:url(#SVGID_00000064349495870183481210000008594176473993077120_);}
	.st12{fill:#EC6365;}
	.st13{fill:#FCE2E3;}
	.st14{fill:#23398C;}
	.st15{clip-path:url(#SVGID_00000092418126005270700090000017064564214716307087_);}
	.st16{fill:#1A1B39;}
</style>
<g>
	<g>
		<rect x="139.12" y="116.04" class="st0" width="0.44" height="40.1"/>
	</g>
	<g>
		<rect x="148.33" y="48.89" class="st0" width="0.44" height="101.26"/>
	</g>
	<g>
		<rect x="143.72" y="81.55" class="st0" width="0.44" height="74.59"/>
	</g>
	<g>
		<rect x="157.54" y="67.37" class="st0" width="0.44" height="76.99"/>
	</g>
	<g>
		<rect x="152.94" y="47.36" class="st0" width="0.44" height="103.96"/>
	</g>
	<g>
		
			<ellipse transform="matrix(0.7071 -0.7071 0.7071 0.7071 -61.3028 148.3599)" class="st1" cx="148.43" cy="148.18" rx="14.77" ry="14.77"/>
	</g>
	<g>
		<defs>
			<path id="SVGID_1_" d="M139.02,132.13h18.83c1.01,0,1.82,1.09,1.82,2.43v3.81c0,1.34-0.81,2.43-1.82,2.43h-18.83
				c-1.01,0-1.82-1.09-1.82-2.43v-3.81C137.2,133.21,138.01,132.13,139.02,132.13z"/>
		</defs>
		<use xlink:href="#SVGID_1_"  style="overflow:visible;fill:#CDCCCC;"/>
		<clipPath id="SVGID_00000065797104413882884940000000844343612019087531_">
			<use xlink:href="#SVGID_1_"  style="overflow:visible;"/>
		</clipPath>
		<g style="clip-path:url(#SVGID_00000065797104413882884940000000844343612019087531_);">
			<rect x="133.36" y="137.43" class="st3" width="27.58" height="0.44"/>
		</g>
	</g>
	<g>
		<g>
			<path class="st4" d="M144.07,46.3c-0.48,1.88-0.98,3.75-1.71,5.56c0.24-0.56,0.48-1.13,0.71-1.69c-0.06,0.14-0.12,0.28-0.18,0.41
				c-0.79,1.83-1.27,3.44-0.71,5.45c0.49,1.77,1.67,3.3,3.25,4.23c1.63,0.96,3.62,1.22,5.45,0.71c1.59-0.44,3.55-1.67,4.23-3.25
				c1.09-2.52,1.92-5,2.6-7.66c0.95-3.73-1.17-7.66-4.94-8.7C149.1,40.35,145.02,42.56,144.07,46.3L144.07,46.3z"/>
		</g>
	</g>
	<g>
		<g>
			<path class="st4" d="M121.75,112.78c1.36,4.03,4.05,7.41,7.24,10.15c2.93,2.51,7.82,1.1,9.83-1.82c2.36-3.43,1.11-7.33-1.82-9.83
				c1.55,1.33-0.07-0.17-0.36-0.52c-0.26-0.3-1.52-2.21-0.5-0.58c-0.7-1.12-1.25-2.33-1.67-3.57c-1.23-3.66-6.32-4.79-9.45-3.28
				C121.23,105.16,120.53,109.12,121.75,112.78L121.75,112.78z"/>
		</g>
	</g>
	<g>
		<g>
			<path class="st4" d="M137.41,85.62c-0.02,2.53-0.52,4.99-0.98,7.47c-0.59,3.18-0.68,6.26-0.19,9.47
				c0.58,3.82,4.78,6.22,8.38,5.46c3.94-0.83,6.03-4.57,5.46-8.38c-0.12-0.89-0.15-1.03-0.08-0.41c-0.01-0.51,0.01-1.01,0.04-1.52
				c0.06-1.26,0.29-2.52,0.51-3.76c0.44-2.49,0.96-4.93,0.98-7.47c0.03-3.85-2.64-7.25-6.63-7.49
				C141.2,78.76,137.44,81.76,137.41,85.62L137.41,85.62z"/>
		</g>
	</g>
	<g>
		<g>
			<path class="st4" d="M156.33,71.47c0.48,0.95,0.94,1.91,1.39,2.88c0.19,0.42,0.38,0.85,0.57,1.27c-0.85-1.95,0,0.03,0.16,0.44
				c0.7,1.79,1.54,3.22,3.25,4.23c1.63,0.96,3.62,1.22,5.45,0.71c3.43-0.94,6.34-5.1,4.94-8.7c-1.06-2.71-2.23-5.38-3.54-7.98
				c-1.73-3.44-6.51-4.39-9.68-2.54C155.39,63.83,154.6,68.03,156.33,71.47L156.33,71.47z"/>
		</g>
	</g>
	<g>
		<g>
			<path class="st4" d="M159.87,91.13c-0.5,0.78-1.04,1.53-1.6,2.27c0.37-0.48,0.74-0.95,1.11-1.43c-0.4,0.51-0.81,1.01-1.23,1.5
				c-1.25,1.48-2.07,3-2.07,5c0,1.87,0.75,3.68,2.07,5c1.32,1.32,3.13,2.07,5,2.07c1.74,0,3.84-0.7,5-2.07
				c1.4-1.66,2.76-3.37,3.93-5.2c2.08-3.25,0.69-7.79-2.54-9.68C166.12,86.59,161.94,87.89,159.87,91.13L159.87,91.13z"/>
		</g>
	</g>
	<g>
		<g>
			<path class="st4" d="M154.28,125c1.65,0.12,3.3-0.22,4.94-0.44c-0.63,0.08-1.25,0.17-1.88,0.25c0.77-0.1,1.52-0.16,2.29-0.12
				c3.85,0.19,7.07-3.36,7.07-7.07c0-4-3.22-6.88-7.07-7.07c-1.65-0.08-3.3,0.26-4.92,0.48c0.63-0.08,1.25-0.17,1.88-0.25
				c-0.77,0.1-1.52,0.15-2.3,0.09c-3.85-0.29-7.07,3.44-7.07,7.07C147.21,122,150.44,124.71,154.28,125L154.28,125z"/>
		</g>
	</g>
	<g>
		<path class="st5" d="M128.33,63.58c0,0.43-0.35,0.79-0.79,0.79s-0.79-0.35-0.79-0.79c0-0.43,0.35-0.79,0.79-0.79
			S128.33,63.15,128.33,63.58z"/>
	</g>
	<g>
		<path class="st5" d="M149.23,54.54c0,0.43-0.35,0.79-0.79,0.79c-0.43,0-0.79-0.35-0.79-0.79c0-0.43,0.35-0.79,0.79-0.79
			C148.88,53.76,149.23,54.11,149.23,54.54z"/>
	</g>
	<g>
		<path class="st5" d="M159.37,68.69c0,0.43-0.35,0.79-0.79,0.79c-0.43,0-0.79-0.35-0.79-0.79c0-0.43,0.35-0.79,0.79-0.79
			C159.02,67.9,159.37,68.25,159.37,68.69z"/>
	</g>
	<g>
		<path class="st5" d="M149.11,89.89c0,0.43-0.35,0.79-0.79,0.79c-0.43,0-0.79-0.35-0.79-0.79s0.35-0.79,0.79-0.79
			C148.75,89.1,149.11,89.45,149.11,89.89z"/>
	</g>
	<g>
		<path class="st5" d="M167.39,96.74c0,0.43-0.35,0.79-0.79,0.79c-0.43,0-0.79-0.35-0.79-0.79c0-0.43,0.35-0.79,0.79-0.79
			C167.04,95.96,167.39,96.31,167.39,96.74z"/>
	</g>
	<g>
		<path class="st5" d="M162.54,118.01c0,0.43-0.35,0.79-0.79,0.79c-0.43,0-0.79-0.35-0.79-0.79s0.35-0.79,0.79-0.79
			C162.18,117.22,162.54,117.57,162.54,118.01z"/>
	</g>
	<g>
		<path class="st5" d="M130.42,113.89c0.08,0.43-0.2,0.84-0.63,0.92c-0.43,0.08-0.84-0.2-0.92-0.63c-0.08-0.43,0.2-0.84,0.63-0.92
			C129.93,113.18,130.34,113.46,130.42,113.89z"/>
	</g>
	<g>
		<g>
			<rect x="27.07" y="71.19" class="st1" width="2.28" height="49.75"/>
		</g>
	</g>
	<g>
		<g>
			<rect x="16.8" y="75.72" class="st1" width="2.28" height="43.9"/>
		</g>
	</g>
	<g>
		<g>
			<rect x="37.91" y="78.89" class="st1" width="2.28" height="43.9"/>
		</g>
	</g>
	<g>
		<defs>
			<path id="SVGID_00000086680111762713557910000017964892172597955985_" d="M46.36,118.02h-35c1.56,2.86,3.81,5.28,6.52,7.07v38
				h21.97v-38C42.55,123.3,44.8,120.88,46.36,118.02z"/>
		</defs>
		<use xlink:href="#SVGID_00000086680111762713557910000017964892172597955985_"  style="overflow:visible;fill:#C5C5C4;"/>
		<clipPath id="SVGID_00000181063630715769072650000009788150091300914310_">
			<use xlink:href="#SVGID_00000086680111762713557910000017964892172597955985_"  style="overflow:visible;"/>
		</clipPath>
		<g style="clip-path:url(#SVGID_00000181063630715769072650000009788150091300914310_);">
			<rect x="14.31" y="125.22" class="st4" width="42.5" height="0.44"/>
		</g>
	</g>
	<g>
		<path class="st4" d="M42.46,52.6c-3.99-8.56-16.67-9.77-22.25,0.95C15.45,62.68,4.16,59.47,1,68
			c-5.71,15.4,14.46,21.31,23.01,13.31c5.9-5.52,13.4-2.23,19.97,3.04c10.65,8.56,27.2-9.7,16.74-18.26
			C52.6,59.46,47.38,63.14,42.46,52.6z"/>
	</g>
	<g>
		<path class="st4" d="M13.49,107.57c-1.86,1.56,0.48,5.73,5.15,4.87c4.68-0.86,7.06-3.05,4.49-5.44
			C20.55,104.61,17.02,104.61,13.49,107.57z"/>
	</g>
	<g>
		<path class="st4" d="M26.56,97.24c3.19-5.84,8.07-0.95,11.11,0.54c6.1,2.98,7.09-0.93,10.3,0.68c3.25,1.63,1.9,5.83-5.02,7.05
			C36.96,106.57,23.31,103.21,26.56,97.24z"/>
	</g>
	<g>
		<path class="st7" d="M145.12,100.35H37.87c-5.28,0-9.56-4.28-9.56-9.56V15.3c0-5.28,4.28-9.56,9.56-9.56h107.25
			c5.28,0,9.56,4.28,9.56,9.56v75.49C154.68,96.07,150.4,100.35,145.12,100.35z"/>
	</g>
	<g>
		<rect x="38.13" y="20.62" class="st5" width="80.09" height="2.61"/>
	</g>
	<g>
		<rect x="38.13" y="41.37" class="st5" width="80.09" height="2.61"/>
	</g>
	<g>
		<rect x="38.13" y="62.12" class="st5" width="80.09" height="2.61"/>
	</g>
	<g>
		<rect x="38.13" y="82.87" class="st5" width="80.09" height="2.61"/>
	</g>
	<g>
		<path class="st5" d="M135.22,28.04h-8.22c-1.18,0-2.14-0.96-2.14-2.14v-8.22c0-1.18,0.96-2.14,2.14-2.14h8.22
			c1.18,0,2.14,0.96,2.14,2.14v8.22C137.36,27.08,136.4,28.04,135.22,28.04z"/>
	</g>
	<g>
		<path class="st5" d="M135.22,48.65h-8.22c-1.18,0-2.14-0.96-2.14-2.14v-8.22c0-1.18,0.96-2.14,2.14-2.14h8.22
			c1.18,0,2.14,0.96,2.14,2.14v8.22C137.36,47.69,136.4,48.65,135.22,48.65z"/>
	</g>
	<g>
		<path class="st5" d="M135.22,69.25h-8.22c-1.18,0-2.14-0.96-2.14-2.14V58.9c0-1.18,0.96-2.14,2.14-2.14h8.22
			c1.18,0,2.14,0.96,2.14,2.14v8.22C137.36,68.3,136.4,69.25,135.22,69.25z"/>
	</g>
	<g>
		<path class="st5" d="M135.22,89.86h-8.22c-1.18,0-2.14-0.96-2.14-2.14v-8.22c0-1.18,0.96-2.14,2.14-2.14h8.22
			c1.18,0,2.14,0.96,2.14,2.14v8.22C137.36,88.9,136.4,89.86,135.22,89.86z"/>
	</g>
	<g>
		
			<rect x="124.23" y="62.56" transform="matrix(0.7071 -0.7071 0.7071 0.7071 -7.7271 109.5045)" class="st8" width="8.18" height="3.03"/>
	</g>
	<g>
		<path class="st9" d="M125.7,71.06c1.34-0.39,3.63-2.56,3.26-3.61c-0.36-1.03-1.19-4.03-3.17-3l-3.52,2.47l1.72,4.64L125.7,71.06z"
			/>
	</g>
	<g>
		<path class="st4" d="M65.1,98.16h28.26l3.08,32.78l-3.84,27.59H81.32l4.6-24.74c0,0-3.79-16.51-4.34-22.42h-3.74l-2.01,22.86
			l-9.65,24.11H54.57l10.08-26.09c0,0,0.39-26.31,0.47-30.21C64.98,101.37,65.1,98.16,65.1,98.16z"/>
	</g>
	<g>
		<path class="st3" d="M65.1,98.16h28.26l3.53-37.53c0.32-3.06-2.64-5.69-6.41-5.69h-22.5c-3.76,0-6.72,2.63-6.41,5.69L65.1,98.16z"
			/>
	</g>
	<g>
		<path class="st10" d="M79.37,58.91c-5.01,0-4.98-3.4-4.98-4.22v-5.54c0-1.25,1.87-1.15,2.98-1.15h3.58c1.11,0,2.98,1.02,2.98,2.27
			v4.42C83.95,55.5,83.42,58.91,79.37,58.91z"/>
	</g>
	<g>
		<path class="st9" d="M87.06,48c-1.44,4.87-5.51,4.12-10.38,2.69c-4.87-1.44-7.65-6.55-6.21-11.42c1.44-4.87,6.55-7.65,11.42-6.21
			C86.76,34.49,88.5,43.13,87.06,48z"/>
	</g>
	<g>
		<path class="st3" d="M97.03,59.42l7.53,14.97l17.54-7.89c0-0.48,4.15,3.69,3.51,4.82c-1.05,1.83-13.15,8.99-19.59,14.08
			c-3.6,2.85-12.41-8.85-12.92-9.69c-0.8-1.34-1.89-9.65-2.05-14.28c-0.04-1.07,0.76-1.98,1.83-2.09l1.67-3
			C95.47,56.24,96.71,58.55,97.03,59.42z"/>
	</g>
	<g>
		<path class="st3" d="M63.9,56.17c0,0-13.07,13.94-17.68,18.33c-2.54,2.42,0,4.24,1.45,6.05c4.03,5.04,17.07,14.05,17.07,14.05
			l-0.73-7.63l-7.87-9.2c0,0,11.07-8.55,11.44-9.17c1.01-1.68,0.17-9.07,0.17-9.07L63.9,56.17z"/>
	</g>
	<g>
		<path class="st8" d="M89.83,158.45h-5.49v4.21h11.13c0.73,0,0.99-1.65,0.34-2.01L89.83,158.45z"/>
	</g>
	<g>
		<path class="st8" d="M63.75,158.45h-5.49v4.21h11.13c0.73,0,0.99-1.65,0.34-2.01L63.75,158.45z"/>
	</g>
	<g>
		<defs>
			<path id="SVGID_00000174596117760953257450000003001567213560837261_" d="M65.1,98.16h28.26l3.53-37.53
				c0.32-3.06-2.64-5.69-6.41-5.69h-22.5c-3.76,0-6.72,2.63-6.41,5.69L65.1,98.16z"/>
		</defs>
		<clipPath id="SVGID_00000023975388788782000270000006129789578386563203_">
			<use xlink:href="#SVGID_00000174596117760953257450000003001567213560837261_"  style="overflow:visible;"/>
		</clipPath>
		<g style="clip-path:url(#SVGID_00000023975388788782000270000006129789578386563203_);">
			<rect x="94.59" y="65.74" class="st12" width="0.44" height="20.49"/>
		</g>
		<g style="clip-path:url(#SVGID_00000023975388788782000270000006129789578386563203_);">
			
				<rect x="63.17" y="66.74" transform="matrix(0.998 -0.0634 0.0634 0.998 -4.7456 4.1735)" class="st12" width="0.44" height="20.25"/>
		</g>
	</g>
	<g>
		<polygon class="st13" points="130.14,60.11 132.28,62.26 133.15,60.02 132.58,59.38 		"/>
	</g>
	<g>
		<path class="st14" d="M132.58,59.38l0.58,0.64c0,0,0.82-0.78,0.5-1.09C133.28,58.56,132.58,59.38,132.58,59.38z"/>
	</g>
	<g>
		<defs>
			<path id="SVGID_00000077299503215439748170000006427353244409828538_" d="M65.1,98.16h28.26l3.08,32.78l-3.84,27.59H81.32
				l4.6-24.74c0,0-3.79-16.51-4.34-22.42h-3.74l-2.01,22.86l-9.65,24.11H54.57l10.08-26.09c0,0,0.39-26.31,0.47-30.21
				C64.98,101.37,65.1,98.16,65.1,98.16z"/>
		</defs>
		<clipPath id="SVGID_00000042717694530945230520000018345498826210355593_">
			<use xlink:href="#SVGID_00000077299503215439748170000006427353244409828538_"  style="overflow:visible;"/>
		</clipPath>
		<g style="clip-path:url(#SVGID_00000042717694530945230520000018345498826210355593_);">
			<g>
				<rect x="49.39" y="99.96" class="st16" width="51" height="1.12"/>
			</g>
			<g>
				<rect x="49.39" y="103.89" class="st16" width="51" height="1.12"/>
			</g>
			<g>
				<rect x="49.39" y="107.82" class="st16" width="51" height="1.12"/>
			</g>
			<g>
				<rect x="49.39" y="111.75" class="st16" width="51" height="1.12"/>
			</g>
			<g>
				<rect x="49.39" y="115.68" class="st16" width="51" height="1.12"/>
			</g>
			<g>
				<rect x="49.39" y="119.61" class="st16" width="51" height="1.12"/>
			</g>
			<g>
				<rect x="49.39" y="123.54" class="st16" width="51" height="1.12"/>
			</g>
			<g>
				<rect x="49.39" y="127.47" class="st16" width="51" height="1.12"/>
			</g>
			<g>
				<rect x="49.39" y="131.4" class="st16" width="51" height="1.12"/>
			</g>
			<g>
				<rect x="49.39" y="135.33" class="st16" width="51" height="1.12"/>
			</g>
			<g>
				<rect x="49.39" y="139.26" class="st16" width="51" height="1.12"/>
			</g>
			<g>
				<rect x="49.39" y="143.19" class="st16" width="51" height="1.12"/>
			</g>
			<g>
				<rect x="49.39" y="147.12" class="st16" width="51" height="1.12"/>
			</g>
			<g>
				<rect x="49.39" y="151.05" class="st16" width="51" height="1.12"/>
			</g>
			<g>
				<rect x="49.39" y="154.98" class="st16" width="51" height="1.12"/>
			</g>
		</g>
	</g>
	<g>
		<path class="st8" d="M79.42,44.43c1.53-0.66-0.96-3.08,0.95-4.46c2.85-2.05,5.26-3,5.85-6.65c0.65-4.05-3.8-6.58-4.53-6.58
			c-0.73,0,1.53,1.17-0.95,2.92c-2.09,1.47-11.25,3.87-11.76,9.94c-0.52,6.14,1.32,8.04,3.65,9.21c2.34,1.17-0.73-2.48,1.17-4.82
			C75.69,41.65,78.4,44.87,79.42,44.43z"/>
	</g>
	<g>
		<g>
			
				<rect x="128.4" y="19.06" transform="matrix(0.7071 -0.7071 0.7071 0.7071 21.9273 97.8879)" class="st8" width="1.45" height="6.83"/>
		</g>
		<g>
			
				<rect x="129.56" y="21.75" transform="matrix(0.7071 -0.7071 0.7071 0.7071 23.0599 100.6184)" class="st8" width="6.83" height="1.45"/>
		</g>
	</g>
	<g>
		<g>
			
				<rect x="128.4" y="39.56" transform="matrix(0.7071 -0.7071 0.7071 0.7071 7.4339 103.8913)" class="st8" width="1.45" height="6.83"/>
		</g>
		<g>
			
				<rect x="129.56" y="42.25" transform="matrix(0.7071 -0.7071 0.7071 0.7071 8.5657 106.6225)" class="st8" width="6.83" height="1.45"/>
		</g>
	</g>
	<g>
		<path class="st3" d="M47.19,11.69c0,1.13-0.92,2.05-2.05,2.05l0,0c-1.13,0-2.05-0.92-2.05-2.05V2.05C43.1,0.92,44.02,0,45.15,0
			l0,0c1.13,0,2.05,0.92,2.05,2.05V11.69z"/>
	</g>
	<g>
		<path class="st3" d="M142.48,11.69c0,1.13-0.92,2.05-2.05,2.05l0,0c-1.13,0-2.05-0.92-2.05-2.05V2.05c0-1.13,0.92-2.05,2.05-2.05
			l0,0c1.13,0,2.05,0.92,2.05,2.05V11.69z"/>
	</g>
</g>
</svg>
