<?xml version="1.0" encoding="utf-8"?>
<!-- Generator: Adobe Illustrator 26.3.1, SVG Export Plug-In . SVG Version: 6.00 Build 0)  -->
<svg version="1.1" id="Calque_1" xmlns="http://www.w3.org/2000/svg" xmlns:xlink="http://www.w3.org/1999/xlink" x="0px" y="0px"
	 viewBox="0 0 186.24 203.05" style="enable-background:new 0 0 186.24 203.05;" xml:space="preserve">
<style type="text/css">
	.st0{fill:#23398C;}
	.st1{fill:#F7BFC1;}
	.st2{fill:#465AA5;}
	.st3{fill:#F2948F;}
	.st4{fill:#EA8996;}
	.st5{fill:#F6B2B7;}
	.st6{fill:#804E4F;}
	.st7{clip-path:url(#SVGID_00000100349337902456477580000004837615362903846286_);}
	.st8{fill:#CDCCCC;}
	.st9{clip-path:url(#SVGID_00000106118012183677175880000013871698741843251601_);}
	.st10{fill:#FCE2E3;}
	.st11{fill:#FFFFFF;}
	.st12{clip-path:url(#SVGID_00000052067067593478586990000000969982882610147254_);}
	.st13{fill:#1A1B39;}
	.st14{fill:#F8C9CE;}
	.st15{clip-path:url(#SVGID_00000012448469959244245650000017515528756045240987_);}
	.st16{clip-path:url(#SVGID_00000127027375736540361870000008903309182456509614_);}
	.st17{clip-path:url(#SVGID_00000036945083839095750850000011423787624658921111_);}
	.st18{clip-path:url(#SVGID_00000154404957788656191650000013283171777452604574_);}
	.st19{clip-path:url(#SVGID_00000101806402706197768340000003619643262735529352_);}
	.st20{clip-path:url(#SVGID_00000094611108413805895440000009338778277521397899_);}
</style>
<g>
	<g>
		<g>
			<path class="st0" d="M160.09,182.33c-1.64-0.33-6.08-3.78-9.7-13.31c-2.07-5.45-7.89-33.52,0-35.5
				c7.89-1.97,6.41,12.16,6.41,25.14C156.8,166.59,160.09,182.33,160.09,182.33z"/>
		</g>
		<g>
			<path class="st0" d="M163.71,183.65c-4.15-0.28-3.29-42.23-3.62-52.09c-0.33-9.86-2.3-46.67,3.29-52.59
				c5.59-5.92,11.34-0.66,11.83,6.98c0.23,3.62-0.99,29.99-1.64,37.55c-0.66,7.56-1.48,24.65-2.14,35.5
				C170.77,169.84,168.64,183.98,163.71,183.65z"/>
		</g>
		<g>
			<g>
				<path class="st0" d="M171.43,184.14c0,0,9.21-18.17,11.5-32.21c4.11-25.14,4.93-49.63-0.66-49.3
					c-5.59,0.33-5.99,24.98-6.24,35.5c-0.66,27.28-7.07,44.37-7.07,44.37L171.43,184.14z"/>
			</g>
		</g>
		<g>
			<path class="st1" d="M170.63,183.39l-0.38-0.14c0.03-0.09,3.28-9.1,5.42-15.12c4.21-11.83,4.91-27.56,4.92-27.71l0.4,0.02
				c-0.01,0.16-0.71,15.94-4.94,27.83C173.91,174.29,170.67,183.3,170.63,183.39z"/>
		</g>
		<g>
			<path class="st1" d="M165.06,180.85h-0.4c0-5.61,0.98-22.03,0.99-22.2l0.4,0.02C166.03,158.85,165.06,175.26,165.06,180.85z"/>
		</g>
		<g>
			<path class="st1" d="M158.51,182.16c-0.03-0.08-3.48-8.48-5.43-16.05c-1.96-7.59-1.49-14.78-1.48-14.85l0.4,0.03
				c-0.01,0.07-0.47,7.21,1.47,14.73c1.95,7.54,5.38,15.91,5.41,16L158.51,182.16z"/>
		</g>
		<g>
			<path class="st2" d="M167.32,159c0,0.68-0.55,1.23-1.23,1.23s-1.23-0.55-1.23-1.23s0.55-1.23,1.23-1.23S167.32,158.32,167.32,159
				z"/>
		</g>
		<g>
			<path class="st2" d="M153.02,151.44c0,0.68-0.55,1.23-1.23,1.23c-0.68,0-1.23-0.55-1.23-1.23c0-0.68,0.55-1.23,1.23-1.23
				C152.47,150.21,153.02,150.76,153.02,151.44z"/>
		</g>
		<g>
			<path class="st2" d="M182.03,140.43c0,0.68-0.55,1.23-1.23,1.23c-0.68,0-1.23-0.55-1.23-1.23c0-0.68,0.55-1.23,1.23-1.23
				C181.48,139.2,182.03,139.75,182.03,140.43z"/>
		</g>
	</g>
	<g>
		<g>
			<path class="st2" d="M84.8,41.22l-6.89,3.16c-0.86,0.39-1.83-0.29-1.74-1.24l0.71-7.55c0.09-0.94,1.17-1.44,1.94-0.89L85,39.1
				C85.78,39.64,85.67,40.82,84.8,41.22z"/>
		</g>
		<g>
			<path class="st2" d="M60.24,51.91l7.34,5.83c0.92,0.73,0.7,2.18-0.39,2.61l-8.72,3.44c-1.09,0.43-2.24-0.48-2.07-1.64l1.38-9.27
				C57.96,51.72,59.32,51.18,60.24,51.91z"/>
		</g>
		<g>
			<path class="st2" d="M70.12,43.18l0.68,5.66c0.09,0.71-0.63,1.24-1.28,0.96l-5.24-2.24c-0.65-0.28-0.76-1.16-0.19-1.59l4.56-3.42
				C69.22,42.12,70.04,42.47,70.12,43.18z"/>
		</g>
		<g>
			<path class="st2" d="M80.38,59.08l-6.59-3.75c-0.82-0.47-0.83-1.65-0.01-2.13l6.54-3.83c0.82-0.48,1.85,0.11,1.85,1.05L82.22,58
				C82.22,58.95,81.2,59.55,80.38,59.08z"/>
		</g>
		<g>
			<path class="st0" d="M74.94,70.58c-0.28-0.51-0.56-1.02-0.84-1.53c-3.15-5.68-6.13-11.05-1.68-18.34
				c4.45-7.28,7.6-11.56,7.63-11.6l0.32,0.24c-0.03,0.04-3.18,4.3-7.61,11.57c-4.33,7.09-1.41,12.36,1.69,17.93
				c0.28,0.51,0.57,1.02,0.85,1.53L74.94,70.58z"/>
		</g>
		<g>
			
				<rect x="69.82" y="45.5" transform="matrix(0.8415 -0.5403 0.5403 0.8415 -15.3931 45.6075)" class="st0" width="0.4" height="7.07"/>
		</g>
		<g>
			
				<rect x="66.71" y="55.39" transform="matrix(0.1595 -0.9872 0.9872 0.1595 -1.9344 115.5806)" class="st0" width="0.4" height="7.07"/>
		</g>
		<g>
			
				<rect x="70.94" y="54.11" transform="matrix(0.9985 -0.0548 0.0548 0.9985 -2.8639 4.1627)" class="st0" width="7.07" height="0.4"/>
		</g>
	</g>
	<g>
		<g>
			<path class="st2" d="M62.85,166.22l7.15-0.91c0.89-0.11,1.57,0.78,1.23,1.61l-2.79,6.64c-0.35,0.83-1.46,0.97-2.01,0.26
				l-4.36-5.73C61.52,167.38,61.96,166.34,62.85,166.22z"/>
		</g>
		<g>
			<path class="st2" d="M88.16,163.49l-5.01-7.37c-0.63-0.92-0.02-2.17,1.09-2.26l8.88-0.65c1.11-0.08,1.89,1.07,1.41,2.07
				l-3.88,8.02C90.17,164.31,88.78,164.41,88.16,163.49z"/>
		</g>
		<g>
			<path class="st2" d="M76.72,168.6l0.99-5.32c0.12-0.67,0.92-0.95,1.43-0.51l4.12,3.51c0.51,0.44,0.36,1.27-0.28,1.5l-5.1,1.81
				C77.24,169.82,76.6,169.27,76.72,168.6z"/>
		</g>
		<g>
			<path class="st2" d="M71.93,151.28l4.91,5.27c0.61,0.66,0.29,1.74-0.59,1.94l-7.02,1.62c-0.88,0.2-1.65-0.62-1.38-1.48l2.11-6.89
				C70.21,150.88,71.31,150.63,71.93,151.28z"/>
		</g>
		<g>
			<path class="st0" d="M66.57,169.49l-0.24-0.33c0.04-0.03,4.1-3,10.18-8.33c5.93-5.2,4.77-10.8,3.55-16.73
				c-0.11-0.54-0.22-1.08-0.33-1.63l0.4-0.08c0.11,0.55,0.22,1.09,0.33,1.63c1.25,6.05,2.43,11.76-3.68,17.12
				C70.68,166.48,66.61,169.46,66.57,169.49z"/>
		</g>
		<g>
			
				<rect x="78.27" y="159.96" transform="matrix(0.9643 -0.2647 0.2647 0.9643 -40.4319 26.5951)" class="st0" width="0.41" height="6.72"/>
		</g>
		<g>
			
				<rect x="83.89" y="151.88" transform="matrix(0.4467 -0.8947 0.8947 0.4467 -92.3589 161.1324)" class="st0" width="0.4" height="6.72"/>
		</g>
		<g>
			
				<rect x="75.72" y="153.92" transform="matrix(0.2465 -0.9691 0.9691 0.2465 -95.2196 192.0897)" class="st0" width="0.4" height="6.72"/>
		</g>
	</g>
	<g>
		<polygon class="st1" points="155,178.55 174.06,178.55 170.74,202.99 158.32,202.99 		"/>
	</g>
	<g>
		<path class="st3" d="M59.46,131.19l9.29,41.19l-7.38,26.34h-6.1l3.26-26.42c0,0-4.96-12.62-7.43-19.28l-4.18,0.93l1.39,19.28
			l-4.9,25.49h-6.1l0.77-25.26c0,0-6.59-31.78-6.5-35.77C31.42,137.04,59.46,131.19,59.46,131.19z"/>
	</g>
	<g>
		<path class="st0" d="M61.78,137.23l-28.8,5.57l-18.97-21.03c-2.26-1.89-2.41-5.31-0.33-7.4l12.42-12.49
			c2.08-2.09,5.5-1.96,7.41,0.29L61.78,137.23z"/>
	</g>
	<g>
		<path class="st4" d="M22.32,108.57l-2.42,2.44c-0.75,0.76-2.05,0.68-2.91-0.17l-3-2.99c-0.85-0.85-0.93-2.15-0.18-2.91l2.42-2.44
			c0.75-0.76,2.05-0.68,2.91,0.17l3,2.99C22.99,106.51,23.07,107.82,22.32,108.57z"/>
	</g>
	<g>
		<path class="st0" d="M12.39,116.52c-0.74,1.85,0.73,25.75,2.1,27.49c2.71,3.45,24.4,4.93,24.4,4.93v-5.3l-16.02-5.67l-2.34-19.84
			C20.53,118.12,13.51,113.72,12.39,116.52z"/>
	</g>
	<g>
		<path class="st5" d="M20.35,98.36c2.34,4.27-0.92,6.54-5.19,8.88c-4.27,2.34-9.63,0.77-11.97-3.5c-2.34-4.27-0.77-9.63,3.5-11.97
			C10.95,89.43,18.01,94.09,20.35,98.36z"/>
	</g>
	<g>
		<path class="st6" d="M4.95,100.46c0,0,10.11-7.96,11.72-11.79c1.52-3.61,0.59-6.37-3.39-6.42c-5.1-0.06-7.82,5.32-8.9,11.38
			C4.02,95.64,4.95,100.46,4.95,100.46z"/>
	</g>
	<g>
		<defs>
			<path id="SVGID_1_" d="M20.35,98.36c2.34,4.27-0.92,6.54-5.19,8.88c-4.27,2.34-9.63,0.77-11.97-3.5
				c-2.34-4.27-0.77-9.63,3.5-11.97C10.95,89.43,18.01,94.09,20.35,98.36z"/>
		</defs>
		<clipPath id="SVGID_00000049213702411553962890000000860802090988896413_">
			<use xlink:href="#SVGID_1_"  style="overflow:visible;"/>
		</clipPath>
		<g style="clip-path:url(#SVGID_00000049213702411553962890000000860802090988896413_);">
			<path class="st6" d="M6.42,98.21c0,0,2.21,2.2,1.91,2.5c-0.3,0.3-1.9,0.99-1.66,2.89c0.23,1.9,2.21,2.04,3.42,1.28
				c1.21-0.76,3.12,2.5,0.32,4.4c-2.8,1.91-9.2-2.78-10.12-6.12c-0.92-3.34,0.58-9.57,2.1-10.79c1.52-1.22,5.47,1.35,5.47,1.35
				L6.42,98.21z"/>
		</g>
	</g>
	<g>
		<path class="st6" d="M23.84,97.06c2.42,2.4,2.43,6.31,0.02,8.73c-2.4,2.42-6.31,2.43-8.73,0.02c-2.42-2.4-2.43-6.31-0.02-8.73
			C17.52,94.67,21.43,94.66,23.84,97.06z"/>
	</g>
	<g>
		<path class="st5" d="M19.26,99.46l-1.83,1.84c-0.37,0.38-0.98,0.38-1.36,0l-0.3-0.29c-0.38-0.37-0.38-0.98,0-1.36l1.83-1.84
			c0.37-0.38,0.98-0.38,1.36,0l0.3,0.29C19.63,98.48,19.64,99.09,19.26,99.46z"/>
	</g>
	<g>
		<g>
			<g>
				<polygon class="st8" points="72.1,201.31 69.87,200.34 94.41,144.5 96.64,145.48 				"/>
			</g>
			<g>
				<path class="st1" d="M73.09,200.68c0.02,1.24-0.96,2.26-2.2,2.28c-1.24,0.02-2.26-0.96-2.28-2.2c-0.02-1.24,0.96-2.26,2.2-2.28
					C72.05,198.46,73.07,199.45,73.09,200.68z"/>
			</g>
		</g>
		<g>
			<g>
				<polygon class="st8" points="124.86,201.31 127.1,200.34 102.35,144.04 100.12,145.02 				"/>
			</g>
			<g>
				<path class="st1" d="M123.87,200.68c-0.02,1.24,0.96,2.26,2.2,2.28c1.24,0.02,2.26-0.96,2.28-2.2c0.02-1.24-0.96-2.26-2.2-2.28
					C124.91,198.46,123.89,199.45,123.87,200.68z"/>
			</g>
		</g>
	</g>
	<g>
		<path class="st0" d="M92.07,61.21c0.43-4.53,4.1-5.83,5.61-7.77c1.51-1.94,1.87-7.7,3.67-10.86c1.93-3.39,5.04-8.49,13.53-7.55
			c6.84,0.75,8.71,6.12,8.92,10.22s3.89,7.99,6.48,9.28c2.59,1.3,3.89,6.04,3.67,8.2C133.73,64.87,92.07,61.21,92.07,61.21z"/>
	</g>
	<g>
		<path class="st3" d="M102.25,87.54h22.92l-3.15-11.7l6.02-18.74c0.26-2.48-2.14-4.61-5.2-4.61h-18.25c-3.05,0-5.45,2.13-5.2,4.61
			l6.5,18.74L102.25,87.54z"/>
	</g>
	<g>
		<path class="st3" d="M102.24,61.64c-1.86-0.21-4.62-3.58-8.68-10.75c-4.07-7.17-4.41-8.54-4.34-9.58
			c0.07-1.03,2.96-15.5,2.96-15.5h4.41l-1.31,15.71c0,0,5.42,8.89,8.87,11.05C106.07,53.77,102.24,61.64,102.24,61.64z"/>
	</g>
	<g>
		<path class="st3" d="M124.97,61.64c1.86-0.21,4.62-3.58,8.68-10.75c4.07-7.17,4.41-8.54,4.34-9.58c-0.07-1.03-2.96-15.5-2.96-15.5
			h-4.41l1.31,15.71c0,0-5.43,8.57-8.35,11.12C121.87,54.14,124.97,61.64,124.97,61.64z"/>
	</g>
	<g>
		<defs>
			<path id="SVGID_00000149377397570664674340000017290565513558017180_" d="M102.25,87.54h22.92l-3.15-11.7l6.02-18.74
				c0.26-2.48-2.14-4.61-5.2-4.61h-18.25c-3.05,0-5.45,2.13-5.2,4.61l6.5,18.74L102.25,87.54z"/>
		</defs>
		<clipPath id="SVGID_00000165943289326002713810000001072105485211113606_">
			<use xlink:href="#SVGID_00000149377397570664674340000017290565513558017180_"  style="overflow:visible;"/>
		</clipPath>
		<g style="clip-path:url(#SVGID_00000165943289326002713810000001072105485211113606_);">
			<circle class="st4" cx="113.62" cy="48.72" r="9.2"/>
		</g>
	</g>
	<g>
		<g>
			<path class="st10" d="M160.27,147.45H36.69c-4.87,0-8.83-3.95-8.83-8.83V68.93c0-4.88,3.95-8.83,8.83-8.83h123.58
				c4.88,0,8.83,3.95,8.83,8.83v69.69C169.1,143.49,165.15,147.45,160.27,147.45z"/>
		</g>
	</g>
	<g>
		<path class="st1" d="M51.19,86.14H38.95c-1.76,0-3.18-1.43-3.18-3.18V70.71c0-1.76,1.43-3.18,3.18-3.18h12.24
			c1.76,0,3.18,1.43,3.18,3.18v12.24C54.38,84.71,52.95,86.14,51.19,86.14z"/>
	</g>
	<g>
		<path class="st1" d="M78.13,86.14H65.89c-1.76,0-3.18-1.43-3.18-3.18V70.71c0-1.76,1.43-3.18,3.18-3.18h12.24
			c1.76,0,3.18,1.43,3.18,3.18v12.24C81.31,84.71,79.89,86.14,78.13,86.14z"/>
	</g>
	<g>
		<path class="st1" d="M105.07,86.14H92.82c-1.76,0-3.18-1.43-3.18-3.18V70.71c0-1.76,1.43-3.18,3.18-3.18h12.24
			c1.76,0,3.18,1.43,3.18,3.18v12.24C108.25,84.71,106.83,86.14,105.07,86.14z"/>
	</g>
	<g>
		<path class="st1" d="M132.01,86.14h-12.24c-1.76,0-3.18-1.43-3.18-3.18V70.71c0-1.76,1.43-3.18,3.18-3.18h12.24
			c1.76,0,3.18,1.43,3.18,3.18v12.24C135.19,84.71,133.77,86.14,132.01,86.14z"/>
	</g>
	<g>
		<g>
			<path class="st1" d="M158.95,86.14H146.7c-1.76,0-3.18-1.43-3.18-3.18V70.71c0-1.76,1.43-3.18,3.18-3.18h12.24
				c1.76,0,3.18,1.43,3.18,3.18v12.24C162.13,84.71,160.7,86.14,158.95,86.14z"/>
		</g>
	</g>
	<g>
		<path class="st1" d="M51.19,112.62H38.95c-1.76,0-3.18-1.43-3.18-3.18V97.19c0-1.76,1.43-3.18,3.18-3.18h12.24
			c1.76,0,3.18,1.43,3.18,3.18v12.24C54.38,111.19,52.95,112.62,51.19,112.62z"/>
	</g>
	<g>
		<path class="st1" d="M78.13,112.62H65.89c-1.76,0-3.18-1.43-3.18-3.18V97.19c0-1.76,1.43-3.18,3.18-3.18h12.24
			c1.76,0,3.18,1.43,3.18,3.18v12.24C81.31,111.19,79.89,112.62,78.13,112.62z"/>
	</g>
	<g>
		<path class="st1" d="M105.07,112.62H92.82c-1.76,0-3.18-1.43-3.18-3.18V97.19c0-1.76,1.43-3.18,3.18-3.18h12.24
			c1.76,0,3.18,1.43,3.18,3.18v12.24C108.25,111.19,106.83,112.62,105.07,112.62z"/>
	</g>
	<g>
		<path class="st1" d="M158.95,112.62H146.7c-1.76,0-3.18-1.43-3.18-3.18V97.19c0-1.76,1.43-3.18,3.18-3.18h12.24
			c1.76,0,3.18,1.43,3.18,3.18v12.24C162.13,111.19,160.7,112.62,158.95,112.62z"/>
	</g>
	<g>
		<path class="st1" d="M51.19,139.1H38.95c-1.76,0-3.18-1.43-3.18-3.18v-12.24c0-1.76,1.43-3.18,3.18-3.18h12.24
			c1.76,0,3.18,1.43,3.18,3.18v12.24C54.38,137.67,52.95,139.1,51.19,139.1z"/>
	</g>
	<g>
		<path class="st1" d="M78.13,139.1H65.89c-1.76,0-3.18-1.43-3.18-3.18v-12.24c0-1.76,1.43-3.18,3.18-3.18h12.24
			c1.76,0,3.18,1.43,3.18,3.18v12.24C81.31,137.67,79.89,139.1,78.13,139.1z"/>
	</g>
	<g>
		<path class="st1" d="M105.07,139.1H92.82c-1.76,0-3.18-1.43-3.18-3.18v-12.24c0-1.76,1.43-3.18,3.18-3.18h12.24
			c1.76,0,3.18,1.43,3.18,3.18v12.24C108.25,137.67,106.83,139.1,105.07,139.1z"/>
	</g>
	<g>
		<path class="st1" d="M132.01,139.1h-12.24c-1.76,0-3.18-1.43-3.18-3.18v-12.24c0-1.76,1.43-3.18,3.18-3.18h12.24
			c1.76,0,3.18,1.43,3.18,3.18v12.24C135.19,137.67,133.77,139.1,132.01,139.1z"/>
	</g>
	<g>
		<path class="st1" d="M158.95,139.1H146.7c-1.76,0-3.18-1.43-3.18-3.18v-12.24c0-1.76,1.43-3.18,3.18-3.18h12.24
			c1.76,0,3.18,1.43,3.18,3.18v12.24C162.13,137.67,160.7,139.1,158.95,139.1z"/>
	</g>
	<g>
		<path class="st2" d="M61.36,198.65h-6.14v4.04H65.9c0.7,0,0.95-1.58,0.33-1.92L61.36,198.65z"/>
	</g>
	<g>
		<path class="st2" d="M43.41,198.65h-6.15v4.04h10.67c0.7,0,0.95-1.58,0.33-1.92L43.41,198.65z"/>
	</g>
	<g>
		<path class="st11" d="M137.71,107.29c1.39,0.46,4.97,3.28,6.59,6.42c1.22,2.35,7.5,14.96,7.19,16.97
			c-0.31,2.01-19.05,14.25-19.05,14.25l-2.79-6.19c0,0,13.01-8.67,12.54-9.91c-0.46-1.24-7.01-14.35-7.01-14.35L137.71,107.29z"/>
	</g>
	<g>
		<path class="st5" d="M125.93,150.82h-11.22l0.61,48.48h4.33c0,0,3.28-24.39,4.52-37.87h1.57
			C125.95,157.89,125.96,154.37,125.93,150.82z"/>
	</g>
	<g>
		<path class="st5" d="M128.17,149.6l-10.32,5.02c1.58,3.19,3.11,6.36,4.47,9.62l1.29-0.63l17.37,33.66l3.9-1.9
			c0,0-12.03-36.44-15.36-42.97C129.39,151.88,128.17,149.6,128.17,149.6z"/>
	</g>
	<g>
		<path class="st11" d="M134.25,135.28h-16.03l-4.11-25.82c-0.22-2.11,1.82-3.91,4.41-3.91h16.69c2.59,0,4.63,1.81,4.41,3.91
			L134.25,135.28z"/>
	</g>
	<g>
		<path class="st0" d="M114.95,199.23h4.9v3.76h-9.94c-0.66,0-0.88-1.47-0.31-1.79L114.95,199.23z"/>
	</g>
	<g>
		<path class="st0" d="M140.54,197.42l4.41-2.14l1.64,3.38l-8.94,4.35c-0.59,0.29-1.44-0.94-1.06-1.48L140.54,197.42z"/>
	</g>
	<g>
		<path class="st2" d="M118.23,135.28h16.03c0,0,4.18,4.89,7.12,19.45c2.52,12.45,5.11,31.28,5.11,31.28h-38.13
			c0,0,2.74-27.7,4.88-36.7C115.44,140.01,118.23,135.28,118.23,135.28z"/>
	</g>
	<g>
		<defs>
			<path id="SVGID_00000152963701892785796590000014542628774856966317_" d="M134.25,135.28h-16.03l-4.11-25.82
				c-0.22-2.11,1.82-3.91,4.41-3.91h16.69c2.59,0,4.63,1.81,4.41,3.91L134.25,135.28z"/>
		</defs>
		<clipPath id="SVGID_00000106854468233224772650000003772632015545595051_">
			<use xlink:href="#SVGID_00000152963701892785796590000014542628774856966317_"  style="overflow:visible;"/>
		</clipPath>
		<g style="clip-path:url(#SVGID_00000106854468233224772650000003772632015545595051_);">
			<rect x="111.1" y="130.65" class="st13" width="32.52" height="1.86"/>
		</g>
		<g style="clip-path:url(#SVGID_00000106854468233224772650000003772632015545595051_);">
			<rect x="111.1" y="126.11" class="st13" width="32.52" height="1.86"/>
		</g>
		<g style="clip-path:url(#SVGID_00000106854468233224772650000003772632015545595051_);">
			<rect x="111.1" y="121.57" class="st13" width="32.52" height="1.86"/>
		</g>
		<g style="clip-path:url(#SVGID_00000106854468233224772650000003772632015545595051_);">
			<rect x="111.1" y="117.03" class="st13" width="32.52" height="1.86"/>
		</g>
		<g style="clip-path:url(#SVGID_00000106854468233224772650000003772632015545595051_);">
			<rect x="111.1" y="112.5" class="st13" width="32.52" height="1.86"/>
		</g>
		<g style="clip-path:url(#SVGID_00000106854468233224772650000003772632015545595051_);">
			<rect x="111.1" y="107.96" class="st13" width="32.52" height="1.86"/>
		</g>
	</g>
	<g>
		<path class="st4" d="M125,107.3h2.92c0.91,0,1.64-0.83,1.64-1.85v-3.6c0-1.02-0.74-1.85-1.64-1.85H125
			c-0.91,0-1.64,0.83-1.64,1.85v3.6C123.36,106.47,124.1,107.3,125,107.3z"/>
	</g>
	<g>
		<path class="st14" d="M120.03,99.99c1.17,3.97,4.5,3.36,8.47,2.19c3.97-1.17,6.24-5.35,5.07-9.32c-1.17-3.97-5.35-6.24-9.32-5.07
			C120.27,88.97,118.86,96.02,120.03,99.99z"/>
	</g>
	<g>
		<path class="st3" d="M124.5,86.74c-4.59,1.76-4.94,4.12-5.17,5.59c-0.21,1.31,0.7,0.46,2.85,0.75c1.27,0.17,2.5,0.17,2.61,0.99
			c0.26,1.85,0.02,16.98,0.95,16.98c0.93,0,14.31,0.81,14.61-0.43c0.31-1.24-2.21-18.7-7.2-22.18
			C129.1,85.62,126.51,85.97,124.5,86.74z"/>
	</g>
	<g>
		<path class="st11" d="M119.54,105.63c0,0-12.49-0.53-14.09-0.93c-1.6-0.4-12.19-15.74-12.19-15.74l-3.33,1.73
			c0,0,9.59,17.99,11.59,18.79s13.84,5.29,13.84,5.29s2.17,0,3.56-3.56C120.39,107.46,119.54,105.63,119.54,105.63z"/>
	</g>
	<g>
		<defs>
			<path id="SVGID_00000084527452663335720400000014944539005291813562_" d="M105.07,86.14H92.82c-1.76,0-3.18-1.43-3.18-3.18V70.71
				c0-1.76,1.43-3.18,3.18-3.18h12.24c1.76,0,3.18,1.43,3.18,3.18v12.24C108.25,84.71,106.83,86.14,105.07,86.14z"/>
		</defs>
		<clipPath id="SVGID_00000010282939530565777680000000120229577191770538_">
			<use xlink:href="#SVGID_00000084527452663335720400000014944539005291813562_"  style="overflow:visible;"/>
		</clipPath>
		<g style="clip-path:url(#SVGID_00000010282939530565777680000000120229577191770538_);">
			<g>
				<g>
					
						<rect x="97.88" y="50.7" transform="matrix(0.7071 -0.7071 0.7071 0.7071 -25.3464 92.4736)" class="st2" width="2.13" height="52.27"/>
				</g>
			</g>
			<g>
				<g>
					
						<rect x="72.81" y="75.77" transform="matrix(0.7072 -0.7071 0.7071 0.7072 -25.348 92.4612)" class="st2" width="52.27" height="2.13"/>
				</g>
			</g>
		</g>
	</g>
	<g>
		<defs>
			<path id="SVGID_00000155133736914889571990000005423422747434906018_" d="M51.19,112.62H38.95c-1.76,0-3.18-1.43-3.18-3.18V97.19
				c0-1.76,1.43-3.18,3.18-3.18h12.24c1.76,0,3.18,1.43,3.18,3.18v12.24C54.38,111.19,52.95,112.62,51.19,112.62z"/>
		</defs>
		<clipPath id="SVGID_00000038387529568430570200000001770699954631253403_">
			<use xlink:href="#SVGID_00000155133736914889571990000005423422747434906018_"  style="overflow:visible;"/>
		</clipPath>
		<g style="clip-path:url(#SVGID_00000038387529568430570200000001770699954631253403_);">
			<g>
				<g>
					
						<rect x="44.01" y="77.18" transform="matrix(0.7071 -0.7071 0.7071 0.7071 -59.8531 62.1326)" class="st2" width="2.13" height="52.27"/>
				</g>
			</g>
			<g>
				<g>
					
						<rect x="18.93" y="102.25" transform="matrix(0.7071 -0.7071 0.7071 0.7071 -59.8531 62.1326)" class="st2" width="52.27" height="2.13"/>
				</g>
			</g>
		</g>
	</g>
	<g>
		<defs>
			<path id="SVGID_00000082352178864125954020000006250324790461525679_" d="M78.13,139.1H65.89c-1.76,0-3.18-1.43-3.18-3.18v-12.24
				c0-1.76,1.43-3.18,3.18-3.18h12.24c1.76,0,3.18,1.43,3.18,3.18v12.24C81.31,137.67,79.89,139.1,78.13,139.1z"/>
		</defs>
		<clipPath id="SVGID_00000106147616119663078490000007367897750280632245_">
			<use xlink:href="#SVGID_00000082352178864125954020000006250324790461525679_"  style="overflow:visible;"/>
		</clipPath>
		<g style="clip-path:url(#SVGID_00000106147616119663078490000007367897750280632245_);">
			
				<rect x="70.95" y="103.66" transform="matrix(0.7071 -0.7071 0.7071 0.7071 -70.6867 88.9341)" class="st2" width="2.13" height="52.27"/>
		</g>
		<g style="clip-path:url(#SVGID_00000106147616119663078490000007367897750280632245_);">
			
				<rect x="45.87" y="128.73" transform="matrix(0.7071 -0.7071 0.7071 0.7071 -70.6863 88.9327)" class="st2" width="52.27" height="2.13"/>
		</g>
	</g>
	<g>
		<rect x="109.91" y="45.95" class="st4" width="6.91" height="8.63"/>
	</g>
	<g>
		<path class="st5" d="M115.81,48.69c-2.9,2.43-4.91,0.26-7.34-2.64c-2.43-2.9-2.05-7.23,0.85-9.66c2.9-2.43,7.23-2.05,9.66,0.85
			C121.41,40.13,118.72,46.25,115.81,48.69z"/>
	</g>
	<g>
		<path class="st0" d="M112.22,36.06c-1.5,0-4.36-4.49-1.75-6.98c2.47-2.35,6.46-0.2,6.61,2.37
			C117.33,35.81,115.46,36.06,112.22,36.06z"/>
	</g>
	<g>
		<defs>
			<path id="SVGID_00000090980663837571113180000013287326268145711494_" d="M116.03,48.65c-2.9,2.43-5.12,0.29-7.56-2.61
				c-2.43-2.9-2.39-7.08,0.51-9.52c2.9-2.43,7.57-2.4,10,0.5C121.41,39.93,118.93,46.22,116.03,48.65z"/>
		</defs>
		<clipPath id="SVGID_00000181052606279017623910000008859275697133904547_">
			<use xlink:href="#SVGID_00000090980663837571113180000013287326268145711494_"  style="overflow:visible;"/>
		</clipPath>
		<g style="clip-path:url(#SVGID_00000181052606279017623910000008859275697133904547_);">
			<path class="st0" d="M104.88,43.36c1.01,0,4.17-0.77,4.89-2.93c0.72-2.16,0.92-2.48,3.13-2.48c2.87,0,3.68,0.03,4.1,1.56
				c0.65,2.37,3.99,5.88,6.15,5.45c2.16-0.43,1.3-7.36-2.16-8.94c-3.45-1.58-12.95-4.17-14.53-1.44c-1.58,2.73-2.16,8.78-2.16,8.78
				H104.88z"/>
		</g>
	</g>
	<g>
		
			<rect x="89.39" y="81.11" transform="matrix(0.7071 -0.7071 0.7071 0.7071 -31.0556 90.0488)" class="st11" width="7.55" height="2.8"/>
	</g>
	<g>
		<path class="st5" d="M93.26,88.96c0,0,0.96-4.7-0.2-4.93c-0.76-0.15-1.01,1.94-2.09,1.55c-0.46-0.16,0.7-4.41-0.15-4.49
			c-0.85-0.08-2.63,4.1-2.48,5.27c0.15,1.16,1.59,4.34,1.59,4.34L93.26,88.96z"/>
	</g>
	<g>
		<polygon class="st10" points="94.85,78.85 96.83,80.83 97.63,78.77 97.1,78.17 		"/>
	</g>
	<g>
		<path class="st0" d="M97.1,78.17l0.53,0.59c0,0,0.76-0.72,0.46-1.01C97.75,77.41,97.1,78.17,97.1,78.17z"/>
	</g>
	<g>
		<defs>
			<path id="SVGID_00000020364467562539408080000010993247337640905915_" d="M118.23,135.28h16.03c0,0,4.18,4.89,7.12,19.45
				c2.52,12.45,5.11,31.28,5.11,31.28h-38.13c0,0,2.74-27.7,4.88-36.7C115.44,140.01,118.23,135.28,118.23,135.28z"/>
		</defs>
		<clipPath id="SVGID_00000124868035047914579760000017662690680288560029_">
			<use xlink:href="#SVGID_00000020364467562539408080000010993247337640905915_"  style="overflow:visible;"/>
		</clipPath>
		<g style="clip-path:url(#SVGID_00000124868035047914579760000017662690680288560029_);">
			<path class="st0" d="M112.35,142.89h8.38c0,0,0.74,10.93-5.92,13.06c-5.2,1.67-6.41-1.23-6.41-1.23L112.35,142.89z"/>
		</g>
	</g>
	<g>
		<path class="st5" d="M38.89,148.93c0,0,7.76-0.62,8.5-1.73c0.74-1.11-1.36-2.83-4.19-2.59c-2.83,0.25-4.44,2.59-4.44,2.59
			L38.89,148.93z"/>
	</g>
	<g>
		<path class="st5" d="M92.18,25.81h4.41c0,0,1.46-6.6,0.66-6.97c-0.48-0.22-1.17,2.1-1.48,2.65c-0.31,0.55-2.71-0.25-3.33,0.62
			C91.83,22.97,92.18,25.81,92.18,25.81z"/>
	</g>
	<g>
		<path class="st5" d="M135.07,25.81h-4.41c0,0-1.46-6.6-0.66-6.97c0.48-0.22,1.17,2.1,1.48,2.65c0.31,0.55,2.71-0.25,3.33,0.62
			C135.42,22.97,135.07,25.81,135.07,25.81z"/>
	</g>
	<g>
		<defs>
			<polygon id="SVGID_00000101810142949470669550000015293890695067024516_" points="155,178.55 174.06,178.55 170.74,202.99 
				158.32,202.99 			"/>
		</defs>
		<clipPath id="SVGID_00000057853882392098072650000006742405051791224255_">
			<use xlink:href="#SVGID_00000101810142949470669550000015293890695067024516_"  style="overflow:visible;"/>
		</clipPath>
		<g style="clip-path:url(#SVGID_00000057853882392098072650000006742405051791224255_);">
			<rect x="150.31" y="180.61" class="st10" width="35.5" height="1.97"/>
		</g>
	</g>
	<g>
		<path class="st1" d="M115.56,6.68c0,1.73-2.11,6.23-2.11,6.23s-2.57-4.49-2.57-6.23S113.44,0,113.44,0S115.56,4.95,115.56,6.68z"
			/>
	</g>
	<g>
		<path class="st1" d="M92.58,10.97c1,1.42,1.84,6.31,1.84,6.31s-4.68-2.2-5.68-3.62c-1-1.42-1.73-6.95-1.73-6.95
			S91.59,9.55,92.58,10.97z"/>
	</g>
	<g>
		<path class="st1" d="M78.83,27.2c1.61,0.63,5.02,4.24,5.02,4.24s-5.12,0.75-6.73,0.11c-1.61-0.63-5.28-4.84-5.28-4.84
			S77.21,26.56,78.83,27.2z"/>
	</g>
	<g>
		<path class="st1" d="M133.66,10.97c-1,1.42-1.84,6.31-1.84,6.31s4.68-2.2,5.68-3.62c1-1.42,1.73-6.95,1.73-6.95
			S134.66,9.55,133.66,10.97z"/>
	</g>
	<g>
		<path class="st1" d="M147.42,27.2c-1.61,0.63-5.02,4.24-5.02,4.24s5.12,0.75,6.73,0.11c1.61-0.63,5.28-4.84,5.28-4.84
			S149.03,26.56,147.42,27.2z"/>
	</g>
</g>
</svg>
