<?xml version="1.0" encoding="utf-8"?>
<!-- Generator: Adobe Illustrator 26.3.1, SVG Export Plug-In . SVG Version: 6.00 Build 0)  -->
<svg version="1.1" id="Calque_1" xmlns="http://www.w3.org/2000/svg" xmlns:xlink="http://www.w3.org/1999/xlink" x="0px" y="0px"
	 viewBox="0 0 135.95 176.3" style="enable-background:new 0 0 135.95 176.3;" xml:space="preserve">
<style type="text/css">
	.st0{fill:#A5B7DF;}
	.st1{fill:#FFFFFF;}
	.st2{fill:#23398C;}
	.st3{fill:#465AA5;}
	.st4{fill:#F7BFC1;}
	.st5{fill:#CDCCCC;}
	.st6{fill:#F2948F;}
	.st7{fill:#1A1B39;}
	.st8{clip-path:url(#SVGID_00000098942460141167910850000011089444276769536915_);}
	.st9{fill:#F6B2B7;}
	.st10{clip-path:url(#SVGID_00000176736039120150487460000015528808232681990534_);}
	.st11{fill:#4F697F;}
	.st12{fill:#B3C8E9;}
	.st13{clip-path:url(#SVGID_00000124135403415225322590000002415429445272794808_);}
	.st14{fill:#EA8996;}
	.st15{clip-path:url(#SVGID_00000147925606033556479890000011867395534934690214_);}
	.st16{fill:#FCE2E3;}
</style>
<g>
	<g>
		<g>
			<path class="st0" d="M42.27,77.27h20.54c2.95,0,5.34-2.39,5.34-5.34V51.39c0-2.95-2.39-5.34-5.34-5.34H42.27
				c-2.95,0-5.34,2.39-5.34,5.34v20.54C36.93,74.88,39.32,77.27,42.27,77.27z"/>
		</g>
		<g>
			<g>
				
					<rect x="48.98" y="61.55" transform="matrix(0.7071 -0.7071 0.7071 0.7071 -27.9551 59.2323)" class="st1" width="17.08" height="3.61"/>
			</g>
			<g>
				
					<rect x="46.08" y="54.82" transform="matrix(0.7071 -0.7071 0.7071 0.7071 -30.7771 52.4153)" class="st1" width="3.61" height="17.08"/>
			</g>
		</g>
	</g>
	<g>
		<g>
			<path class="st2" d="M5.34,77.27h20.54c2.95,0,5.34-2.39,5.34-5.34V51.39c0-2.95-2.39-5.34-5.34-5.34H5.34
				C2.39,46.05,0,48.44,0,51.39v20.54C0,74.88,2.39,77.27,5.34,77.27z"/>
		</g>
		<g>
			<g>
				
					<rect x="12.05" y="61.55" transform="matrix(0.7071 -0.7071 0.7071 0.7071 -38.7736 33.1192)" class="st1" width="17.08" height="3.61"/>
			</g>
			<g>
				
					<rect x="9.15" y="54.82" transform="matrix(0.7071 -0.7071 0.7071 0.7071 -41.5934 26.3009)" class="st1" width="3.61" height="17.08"/>
			</g>
		</g>
	</g>
	<g>
		<g>
			<path class="st3" d="M42.27,40.16h20.54c2.95,0,5.34-2.39,5.34-5.34V14.28c0-2.95-2.39-5.34-5.34-5.34H42.27
				c-2.95,0-5.34,2.39-5.34,5.34v20.54C36.93,37.77,39.32,40.16,42.27,40.16z"/>
		</g>
		<g>
			<g>
				
					<rect x="48.98" y="24.44" transform="matrix(0.7071 -0.7071 0.7071 0.7071 -1.7132 48.3626)" class="st1" width="17.08" height="3.61"/>
			</g>
			<g>
				
					<rect x="46.08" y="17.71" transform="matrix(0.7071 -0.7071 0.7071 0.7071 -4.5362 41.5466)" class="st1" width="3.61" height="17.08"/>
			</g>
		</g>
	</g>
	<g>
		<g>
			<path class="st4" d="M5.34,40.16h20.54c2.95,0,5.34-2.39,5.34-5.34V14.28c0-2.95-2.39-5.34-5.34-5.34H5.34
				C2.39,8.93,0,11.33,0,14.28v20.54C0,37.77,2.39,40.16,5.34,40.16z"/>
		</g>
		<g>
			<g>
				
					<rect x="12.05" y="24.44" transform="matrix(0.7071 -0.7071 0.7071 0.7071 -12.5307 22.2485)" class="st1" width="17.08" height="3.61"/>
			</g>
			<g>
				
					<rect x="9.15" y="17.71" transform="matrix(0.7071 -0.7071 0.7071 0.7071 -15.3526 15.4322)" class="st1" width="3.61" height="17.08"/>
			</g>
		</g>
	</g>
	<g>
		<path class="st5" d="M44.2,123.14V67.38c0-2.17,1.76-3.93,3.93-3.93h30.63c2.17,0,3.93,1.76,3.93,3.93v55.13L44.2,123.14z"/>
	</g>
	<g>
		<rect x="58.78" y="135.67" class="st5" width="5.63" height="21.54"/>
	</g>
	<g>
		<rect x="59.95" y="151" class="st5" width="3.3" height="21.54"/>
	</g>
	<g>
		<g>
			<g>
				<path class="st5" d="M81.79,138.39H45.83c-1.88,0-3.41-1.27-3.41-2.85v-2.59c0-1.57,1.53-2.85,3.41-2.85h35.96
					c1.88,0,3.41,1.27,3.41,2.85v2.59C85.2,137.11,83.68,138.39,81.79,138.39z"/>
			</g>
		</g>
	</g>
	<g>
		<path class="st5" d="M81.79,130.79H45.83c-1.88,0-3.41-1.27-3.41-2.85v-2.59c0-1.57,1.53-2.85,3.41-2.85h35.96
			c1.88,0,3.41,1.27,3.41,2.85v2.59C85.2,129.52,83.68,130.79,81.79,130.79z"/>
	</g>
	<g>
		<g>
			<path class="st5" d="M45.45,172.94c-1.04-1.6-1.56-3.31-1.56-5.09c0-6.77,7.94-12.28,17.71-12.28c9.76,0,17.71,5.51,17.71,12.28
				c0,1.65-0.45,3.24-1.35,4.74l-2.6-1.55c0.61-1.02,0.92-2.1,0.92-3.19c0-5.02-6.72-9.25-14.68-9.25c-7.96,0-14.68,4.24-14.68,9.25
				c0,1.18,0.36,2.34,1.07,3.44L45.45,172.94z"/>
		</g>
	</g>
	<g>
		<path class="st4" d="M42.68,172.64c0-1.98,1.61-3.59,3.59-3.59c1.98,0,3.59,1.61,3.59,3.59c0,1.98-1.61,3.59-3.59,3.59
			C44.29,176.23,42.68,174.63,42.68,172.64z"/>
	</g>
	<g>
		<path class="st4" d="M57.82,172.64c0-1.98,1.61-3.59,3.59-3.59c1.98,0,3.59,1.61,3.59,3.59c0,1.98-1.61,3.59-3.59,3.59
			C59.43,176.23,57.82,174.63,57.82,172.64z"/>
	</g>
	<g>
		<path class="st6" d="M72.73,57.7c-4.19-6.02-11.78-9.16-18.06-4.45c-6.28,4.71-0.79,12.04-7.33,16.23
			c-6.54,4.19-15.97,4.45-14.92,14.66c0.79,7.66,8.68,13.38,16.54,11.81c7.85-1.57,21.68-12.34,21.94-25.16
			C71.16,57.96,72.73,57.7,72.73,57.7z"/>
	</g>
	<g>
		<path class="st2" d="M84.93,119.76H51.53v8.02c0,4.34,3.52,7.86,7.86,7.86h25.55c4.34,0,7.86-3.52,7.86-7.86v-0.16
			C92.79,123.28,89.27,119.76,84.93,119.76z"/>
	</g>
	<g>
		<path class="st7" d="M51.53,119.66h24.93l3.11-36.93c0.28-3.31-2.33-6.15-5.65-6.15H54.07c-3.32,0-5.93,2.84-5.65,6.15
			L51.53,119.66z"/>
	</g>
	<g>
		<path class="st2" d="M92.31,125.96l4.11,45.79h-6.05c0,0-9.68-29.82-10.65-39.5c-0.97-9.68,6.05-7.99,6.05-7.99L92.31,125.96z"/>
	</g>
	<g>
		<path class="st2" d="M73.19,125.96l4.11,45.79h-6.05c0,0-9.68-29.82-10.65-39.5c-0.97-9.68,6.05-7.99,6.05-7.99L73.19,125.96z"/>
	</g>
	<g>
		<polygon class="st7" points="78.99,79.97 87.95,96.91 75.85,95.95 		"/>
	</g>
	<g>
		<path class="st7" d="M49.89,78.46l-15.61,22.51c-0.72,1.54-0.17,4,1.45,4.54l24.14,5.45l3.15-5.32l-16.94-6.11l12.16-12.16
			L49.89,78.46z"/>
	</g>
	<g>
		<defs>
			<path id="SVGID_1_" d="M35.73,105.51l14.88,3.36l0.91,10.8h24.93l1.98-23.51l9.51,0.76l-8.61-16.29
				c-0.7-2.32-2.84-4.04-5.43-4.04H54.07c-2.29,0-4.24,1.35-5.14,3.27l-14.65,21.12C33.56,102.51,34.12,104.97,35.73,105.51z
				 M46.08,99.52l3.46-3.46l0.41,4.85L46.08,99.52z"/>
		</defs>
		<clipPath id="SVGID_00000134235603123912138950000000926298737668962198_">
			<use xlink:href="#SVGID_1_"  style="overflow:visible;"/>
		</clipPath>
		<g style="clip-path:url(#SVGID_00000134235603123912138950000000926298737668962198_);">
			<g>
				<g>
					<rect x="34.25" y="93" class="st1" width="5.89" height="5.89"/>
				</g>
				<g>
					<rect x="40.13" y="98.89" class="st1" width="5.89" height="5.89"/>
				</g>
				<g>
					<rect x="34.25" y="104.77" class="st1" width="5.89" height="5.89"/>
				</g>
				<g>
					<rect x="40.13" y="110.66" class="st1" width="5.89" height="5.89"/>
				</g>
				<g>
					<rect x="34.25" y="116.54" class="st1" width="5.89" height="5.89"/>
				</g>
				<g>
					<rect x="40.13" y="122.43" class="st1" width="5.89" height="5.89"/>
				</g>
			</g>
			<g>
				<g>
					<rect x="46.02" y="93" class="st1" width="5.89" height="5.89"/>
				</g>
				<g>
					<rect x="51.91" y="98.89" class="st1" width="5.89" height="5.89"/>
				</g>
				<g>
					<rect x="46.02" y="104.77" class="st1" width="5.89" height="5.89"/>
				</g>
				<g>
					<rect x="51.91" y="110.66" class="st1" width="5.89" height="5.89"/>
				</g>
				<g>
					<rect x="46.02" y="116.54" class="st1" width="5.89" height="5.89"/>
				</g>
				<g>
					<rect x="51.91" y="122.43" class="st1" width="5.89" height="5.89"/>
				</g>
			</g>
			<g>
				<g>
					<rect x="34.25" y="57.69" class="st1" width="5.89" height="5.89"/>
				</g>
				<g>
					<rect x="40.13" y="63.57" class="st1" width="5.89" height="5.89"/>
				</g>
				<g>
					<rect x="34.25" y="69.46" class="st1" width="5.89" height="5.89"/>
				</g>
				<g>
					<rect x="40.13" y="75.34" class="st1" width="5.89" height="5.89"/>
				</g>
				<g>
					<rect x="34.25" y="81.23" class="st1" width="5.89" height="5.89"/>
				</g>
				<g>
					<rect x="40.13" y="87.11" class="st1" width="5.89" height="5.89"/>
				</g>
			</g>
			<g>
				<g>
					<rect x="46.02" y="57.69" class="st1" width="5.89" height="5.89"/>
				</g>
				<g>
					<rect x="51.91" y="63.57" class="st1" width="5.89" height="5.89"/>
				</g>
				<g>
					<rect x="46.02" y="69.46" class="st1" width="5.89" height="5.89"/>
				</g>
				<g>
					<rect x="51.91" y="75.34" class="st1" width="5.89" height="5.89"/>
				</g>
				<g>
					<rect x="46.02" y="81.23" class="st1" width="5.89" height="5.89"/>
				</g>
				<g>
					<rect x="51.91" y="87.11" class="st1" width="5.89" height="5.89"/>
				</g>
			</g>
			<g>
				<g>
					<rect x="57.92" y="93" class="st1" width="5.89" height="5.89"/>
				</g>
				<g>
					<rect x="63.81" y="98.89" class="st1" width="5.89" height="5.89"/>
				</g>
				<g>
					<rect x="57.92" y="104.77" class="st1" width="5.89" height="5.89"/>
				</g>
				<g>
					<rect x="63.81" y="110.66" class="st1" width="5.89" height="5.89"/>
				</g>
				<g>
					<rect x="57.92" y="116.54" class="st1" width="5.89" height="5.89"/>
				</g>
				<g>
					<rect x="63.81" y="122.43" class="st1" width="5.89" height="5.89"/>
				</g>
			</g>
			<g>
				<g>
					<rect x="69.69" y="93" class="st1" width="5.89" height="5.89"/>
				</g>
				<g>
					<rect x="75.58" y="98.89" class="st1" width="5.89" height="5.89"/>
				</g>
				<g>
					<rect x="69.69" y="104.77" class="st1" width="5.89" height="5.89"/>
				</g>
				<g>
					<rect x="75.58" y="110.66" class="st1" width="5.89" height="5.89"/>
				</g>
				<g>
					<rect x="69.69" y="116.54" class="st1" width="5.89" height="5.89"/>
				</g>
				<g>
					<rect x="75.58" y="122.43" class="st1" width="5.89" height="5.89"/>
				</g>
			</g>
			<g>
				<g>
					<rect x="57.92" y="57.69" class="st1" width="5.89" height="5.89"/>
				</g>
				<g>
					<rect x="63.81" y="63.57" class="st1" width="5.89" height="5.89"/>
				</g>
				<g>
					<rect x="57.92" y="69.46" class="st1" width="5.89" height="5.89"/>
				</g>
				<g>
					<rect x="63.81" y="75.34" class="st1" width="5.89" height="5.89"/>
				</g>
				<g>
					<rect x="57.92" y="81.23" class="st1" width="5.89" height="5.89"/>
				</g>
				<g>
					<rect x="63.81" y="87.11" class="st1" width="5.89" height="5.89"/>
				</g>
			</g>
			<g>
				<g>
					<rect x="69.69" y="57.69" class="st1" width="5.89" height="5.89"/>
				</g>
				<g>
					<rect x="75.58" y="63.57" class="st1" width="5.89" height="5.89"/>
				</g>
				<g>
					<rect x="69.69" y="69.46" class="st1" width="5.89" height="5.89"/>
				</g>
				<g>
					<rect x="75.58" y="75.34" class="st1" width="5.89" height="5.89"/>
				</g>
				<g>
					<rect x="69.69" y="81.23" class="st1" width="5.89" height="5.89"/>
				</g>
				<g>
					<rect x="75.58" y="87.11" class="st1" width="5.89" height="5.89"/>
				</g>
			</g>
		</g>
	</g>
	<g>
		<path class="st9" d="M60.27,109.65h9.92l0.73-4.36h-7.49c-1.4,0-2.6,1.01-2.83,2.4L60.27,109.65z"/>
	</g>
	<g>
		<path class="st6" d="M96.3,171.75h-5.93v4.55h12.03c0.79,0,1.07-1.78,0.37-2.17L96.3,171.75z"/>
	</g>
	<g>
		<path class="st6" d="M77.3,171.75h-5.93v4.55H83.4c0.79,0,1.07-1.78,0.37-2.17L77.3,171.75z"/>
	</g>
	<g>
		<defs>
			<path id="SVGID_00000026126026430985481190000018075084709920398750_" d="M51.53,119.66h24.93l3.11-36.93
				c0.28-3.31-2.33-6.15-5.65-6.15H54.07c-3.32,0-5.93,2.84-5.65,6.15L51.53,119.66z"/>
		</defs>
		<clipPath id="SVGID_00000119836860750868476020000004129095897205010818_">
			<use xlink:href="#SVGID_00000026126026430985481190000018075084709920398750_"  style="overflow:visible;"/>
		</clipPath>
		<g style="clip-path:url(#SVGID_00000119836860750868476020000004129095897205010818_);">
			
				<rect x="55.81" y="95.08" transform="matrix(0.3245 -0.9459 0.9459 0.3245 -59.6375 122.5869)" class="st11" width="0.4" height="15.94"/>
		</g>
		<g style="clip-path:url(#SVGID_00000119836860750868476020000004129095897205010818_);">
			
				<rect x="53.11" y="100.66" transform="matrix(0.084 -0.9965 0.9965 0.084 -60.1344 153.2813)" class="st11" width="0.4" height="17.39"/>
		</g>
	</g>
	<g>
		<polygon class="st12" points="65.46,109.7 96.7,109.7 100.99,90.35 69.74,90.35 		"/>
	</g>
	<g>
		<rect x="57.82" y="109.56" class="st12" width="38.91" height="3.3"/>
	</g>
	<g>
		<path class="st11" d="M81.78,100.55c0,1.14,0.92,2.06,2.06,2.06c1.14,0,2.06-0.92,2.06-2.06c0-1.14-0.92-2.06-2.06-2.06
			C82.7,98.49,81.78,99.41,81.78,100.55z"/>
	</g>
	<g>
		<g>
			<rect x="22.7" y="112.73" class="st6" width="113.25" height="2.65"/>
		</g>
		<g>
			<rect x="22.7" y="113.21" class="st6" width="0.97" height="62.93"/>
		</g>
		<g>
			<rect x="134.98" y="113.21" class="st6" width="0.97" height="62.93"/>
		</g>
	</g>
	<g>
		<defs>
			<path id="SVGID_00000011723597697309045730000011159293405893167779_" d="M51.53,119.66h24.93l3.11-36.93
				c0.28-3.31-2.33-6.15-5.65-6.15H54.07c-3.32,0-5.93,2.84-5.65,6.15L51.53,119.66z"/>
		</defs>
		<clipPath id="SVGID_00000101790322737439890050000009417695193785637547_">
			<use xlink:href="#SVGID_00000011723597697309045730000011159293405893167779_"  style="overflow:visible;"/>
		</clipPath>
		<g style="clip-path:url(#SVGID_00000101790322737439890050000009417695193785637547_);">
			
				<ellipse transform="matrix(0.2289 -0.9734 0.9734 0.2289 -26.9328 122.822)" class="st14" cx="64.06" cy="78.41" rx="8.2" ry="8.2"/>
		</g>
	</g>
	<g>
		<path class="st14" d="M62.42,78.88h3.87c1.2,0,2.18-1.1,2.18-2.45v-4.77c0-1.36-0.98-2.45-2.18-2.45h-3.87
			c-1.2,0-2.18,1.1-2.18,2.45v4.77C60.24,77.79,61.21,78.88,62.42,78.88z"/>
	</g>
	<g>
		<path class="st9" d="M73.64,69.2c-1.56,5.26-5.96,4.46-11.22,2.9c-5.26-1.56-6.82-8.22-5.26-13.49c1.56-5.26,5.63-7.13,10.89-5.57
			C73.32,54.59,75.2,63.93,73.64,69.2z"/>
	</g>
	<g>
		<g>
			<path class="st3" d="M123.31,94.49c1.47-0.29,5.42-3.37,8.65-11.88c1.84-4.86,7.04-29.91,0-31.67
				c-7.04-1.76-5.72,10.85-5.72,22.43C126.24,80.44,123.31,94.49,123.31,94.49z"/>
		</g>
		<g>
			<path class="st3" d="M120.09,95.66c3.7-0.25,2.93-37.68,3.23-46.48c0.29-8.8,2.05-41.64-2.93-46.92
				c-4.98-5.28-10.12-0.59-10.56,6.23c-0.21,3.23,0.88,26.76,1.47,33.5c0.59,6.74,1.32,21.99,1.91,31.67
				C113.78,83.35,115.69,95.96,120.09,95.66z"/>
		</g>
		<g>
			<path class="st3" d="M113.2,96.1c0,0-8.22-16.21-10.26-28.74c-3.67-22.43-4.4-44.28,0.59-43.98c4.98,0.29,5.35,22.29,5.57,31.67
				c0.59,24.34,6.3,39.59,6.3,39.59L113.2,96.1z"/>
		</g>
		<g>
			<path class="st4" d="M113.89,95.44l0.38-0.14c-0.03-0.08-2.92-8.11-4.84-13.49c-3.76-10.55-4.38-24.58-4.39-24.72l-0.4,0.02
				c0.01,0.14,0.63,14.23,4.41,24.84C110.96,87.32,113.86,95.36,113.89,95.44z"/>
		</g>
		<g>
			<path class="st4" d="M118.86,93.17h0.4c0-5.01-0.87-19.66-0.88-19.81l-0.4,0.02C117.99,73.54,118.86,88.18,118.86,93.17z"/>
		</g>
		<g>
			<path class="st4" d="M124.75,94.35c0.03-0.08,3.1-7.57,4.85-14.32c1.75-6.77,1.33-13.2,1.33-13.26l-0.4,0.03
				c0,0.06,0.42,6.43-1.31,13.13c-1.74,6.73-4.8,14.19-4.83,14.27L124.75,94.35z"/>
		</g>
		<g>
			<path class="st1" d="M116.86,73.67c0,0.61,0.49,1.1,1.1,1.1c0.61,0,1.1-0.49,1.1-1.1c0-0.61-0.49-1.1-1.1-1.1
				C117.35,72.57,116.86,73.06,116.86,73.67z"/>
		</g>
		<g>
			<path class="st1" d="M129.62,66.93c0,0.61,0.49,1.1,1.1,1.1s1.1-0.49,1.1-1.1s-0.49-1.1-1.1-1.1S129.62,66.32,129.62,66.93z"/>
		</g>
		<g>
			<path class="st1" d="M103.74,57.1c0,0.61,0.49,1.1,1.1,1.1c0.61,0,1.1-0.49,1.1-1.1s-0.49-1.1-1.1-1.1
				C104.23,56,103.74,56.5,103.74,57.1z"/>
		</g>
	</g>
	<g>
		<defs>
			<polygon id="SVGID_00000054976020850467894660000010324886337838528695_" points="127.86,91.12 110.85,91.12 113.81,112.92 
				124.89,112.92 			"/>
		</defs>
		<use xlink:href="#SVGID_00000054976020850467894660000010324886337838528695_"  style="overflow:visible;fill:#F7BFC1;"/>
		<clipPath id="SVGID_00000163765845690357555060000010973948692253521538_">
			<use xlink:href="#SVGID_00000054976020850467894660000010324886337838528695_"  style="overflow:visible;"/>
		</clipPath>
		<g style="clip-path:url(#SVGID_00000163765845690357555060000010973948692253521538_);">
			<rect x="100.37" y="92.95" class="st16" width="31.67" height="1.76"/>
		</g>
	</g>
	<g>
		<path class="st6" d="M65.67,51.94c2.62,0.52,4.84,0.92,6.67,3.93c1.83,3.01,1.44,3.93,0.92,3.93s-12.69,2.09-13.35,1.7
			c-0.65-0.39-3.66-6.02-0.92-7.72C61.74,52.07,65.67,51.94,65.67,51.94z"/>
	</g>
	<g>
		<path class="st9" d="M57.16,63.85c-0.65-0.79-3.27,0.39-2.09,2.49c1.18,2.09,3.4,1.05,3.4,1.05L57.16,63.85z"/>
	</g>
</g>
</svg>
