<?xml version="1.0" encoding="utf-8"?>
<!-- Generator: Adobe Illustrator 26.3.1, SVG Export Plug-In . SVG Version: 6.00 Build 0)  -->
<svg version="1.1" id="Calque_1" xmlns="http://www.w3.org/2000/svg" xmlns:xlink="http://www.w3.org/1999/xlink" x="0px" y="0px"
	 viewBox="0 0 197.63 156.62" style="enable-background:new 0 0 197.63 156.62;" xml:space="preserve">
<style type="text/css">
	.st0{fill:#F7BFC1;}
	.st1{fill:#1A1B39;}
	.st2{fill:#1556A4;}
	.st3{fill:#8EA7D7;}
	.st4{fill:#1A1F3B;}
	.st5{fill:#23398C;}
	.st6{fill:#A5B7DF;}
	.st7{fill:#F2948F;}
	.st8{fill:#FCE2E3;}
	.st9{fill:#465AA5;}
	.st10{clip-path:url(#SVGID_00000140012467522843570770000003240904622326905774_);}
	.st11{fill:#EA8996;}
	.st12{clip-path:url(#SVGID_00000162337622445721030350000009949380027011129001_);}
	.st13{fill:#C1D0ED;}
	.st14{fill:#222A51;}
</style>
<g>
	<g>
		<path class="st0" d="M115.28,18.25c-0.11,4.7-6.13,16.74-6.13,16.74s-6.68-12.34-6.57-17.04S109.98,0,109.98,0
			S115.39,13.55,115.28,18.25z"/>
	</g>
	<g>
		<path class="st0" d="M81.41,27.01c3.17,3.47,7.16,16.33,7.16,16.33s-13.36-4.29-16.53-7.76c-3.17-3.47-7.08-18.08-7.08-18.08
			S78.24,23.53,81.41,27.01z"/>
	</g>
	<g>
		<path class="st0" d="M135.58,27.01c-3.17,3.47-7.16,16.33-7.16,16.33s13.36-4.29,16.53-7.76c3.17-3.47,7.08-18.08,7.08-18.08
			S138.75,23.53,135.58,27.01z"/>
	</g>
	<g>
		<rect x="108.92" y="16.14" class="st1" width="0.4" height="110.02"/>
	</g>
	<g>
		<path class="st1" d="M100.83,125.2c-0.02-0.47-1.88-46.87-4.53-62.75c-3.19-19.11-21.42-33.06-21.6-33.2l0.24-0.32
			c0.19,0.14,18.55,14.19,21.76,33.46c2.65,15.9,4.51,62.33,4.53,62.8L100.83,125.2z"/>
	</g>
	<g>
		<path class="st1" d="M116.93,125.2l-0.4-0.02c0.02-0.47,1.88-46.9,4.53-62.8c3.21-19.27,21.57-33.32,21.76-33.46l0.24,0.32
			c-0.18,0.14-18.42,14.09-21.6,33.2C118.81,78.32,116.95,124.73,116.93,125.2z"/>
	</g>
	<g>
		<path class="st2" d="M116.34,120.11H99.36c0,0-3.75,1.76-4.19,7.46c-0.81,10.39,5.7,28.68,5.7,28.68h16.02
			c0,0,5.32-21.82,4.15-28.68C120.09,122.07,116.34,120.11,116.34,120.11z"/>
	</g>
	<g>
		<rect x="60.98" y="105.61" class="st3" width="7.04" height="26.94"/>
	</g>
	<g>
		<rect x="62.44" y="124.79" class="st3" width="4.13" height="26.94"/>
	</g>
	<g>
		<path class="st4" d="M24.35,63.55l22.17,35.92c0,0,38.35,5.99,38.67,2.75c0.07-0.66,0.49-12.62-2.59-13.59
			C79.52,87.66,24.35,63.55,24.35,63.55z"/>
	</g>
	<g>
		<path class="st1" d="M81.62,109.01H44.08c-1.97,0-3.56-1.59-3.56-3.56v-3.24c0-1.97,1.59-3.56,3.56-3.56h37.54
			c1.97,0,3.56,1.59,3.56,3.56v3.24C85.18,107.42,83.59,109.01,81.62,109.01z"/>
	</g>
	<g>
		<path class="st5" d="M41.82,108.53l5.5-9.87c0,0-25.55-40.14-26.21-39.97c-0.65,0.17-8.1-1.45-8.1,2.76
			C13.02,65.65,41.82,108.53,41.82,108.53z"/>
	</g>
	<g>
		<g>
			<path class="st3" d="M44.31,152.22c-1.3-2-1.95-4.14-1.95-6.36c0-8.47,9.93-15.36,22.14-15.36c12.21,0,22.14,6.89,22.14,15.36
				c0,2.06-0.57,4.05-1.68,5.93l-3.25-1.94c0.76-1.28,1.15-2.62,1.15-3.99c0-6.27-8.41-11.57-18.36-11.57
				c-9.95,0-18.36,5.3-18.36,11.57c0,1.48,0.45,2.93,1.34,4.3L44.31,152.22z"/>
		</g>
	</g>
	<g>
		<g>
			<path class="st3" d="M120.57,154.98c-1.96,1.96-5.13,1.96-7.09,0l0,0c-1.96-1.96-1.96-5.13,0-7.09l8.47-8.47
				c1.96-1.96,5.13-1.96,7.09,0l0,0c1.96,1.96,1.96,5.13,0,7.09L120.57,154.98z"/>
		</g>
		<g>
			<path class="st3" d="M180.52,154.98c1.96,1.96,5.13,1.96,7.09,0l0,0c1.96-1.96,1.96-5.13,0-7.09l-8.47-8.47
				c-1.96-1.96-5.13-1.96-7.09,0l0,0c-1.96,1.96-1.96,5.13,0,7.09L180.52,154.98z"/>
		</g>
		<g>
			<g>
				<path class="st6" d="M126.39,59.72c-1.5-2.3-2.25-4.77-2.25-7.34c0-9.77,11.46-17.72,25.54-17.72
					c14.08,0,25.54,7.95,25.54,17.72c0,2.37-0.65,4.67-1.94,6.84l-3.75-2.24c0.88-1.48,1.33-3.03,1.33-4.6
					c0-7.23-9.7-13.35-21.17-13.35c-11.48,0-21.17,6.11-21.17,13.35c0,1.71,0.52,3.37,1.55,4.96L126.39,59.72z"/>
			</g>
		</g>
		<g>
			
				<rect x="171.31" y="58.32" transform="matrix(0.54 -0.8417 0.8417 0.54 24.7227 182.516)" class="st0" width="16.06" height="20.64"/>
		</g>
		<g>
			<g>
				<path class="st7" d="M167.56,59.36c0.38-0.81,0.84-1.6,1.38-2.36c4.98-7.03,14.71-8.7,21.75-3.72
					c7.03,4.98,8.7,14.71,3.72,21.75c-0.54,0.76-1.13,1.45-1.77,2.08L167.56,59.36z"/>
			</g>
		</g>
		<g>
			
				<rect x="109.86" y="61.26" transform="matrix(0.8417 -0.54 0.54 0.8417 -18.3864 75.8691)" class="st0" width="20.64" height="16.06"/>
		</g>
		<g>
			
				<ellipse transform="matrix(0.241 -0.9705 0.9705 0.241 8.0398 228.5914)" class="st7" cx="150.16" cy="109.16" rx="47.47" ry="47.47"/>
		</g>
		<g>
			
				<ellipse transform="matrix(0.2127 -0.9771 0.9771 0.2127 11.5698 232.6702)" class="st8" cx="150.16" cy="109.16" rx="39.46" ry="39.46"/>
		</g>
		<g>
			<path class="st9" d="M151.62,74.81c0,0.8-0.65,1.46-1.46,1.46c-0.8,0-1.46-0.65-1.46-1.46c0-0.8,0.65-1.46,1.46-1.46
				C150.97,73.36,151.62,74.01,151.62,74.81z"/>
		</g>
		<g>
			<path class="st9" d="M134.25,78.69c0.4,0.7,0.16,1.59-0.53,1.99c-0.7,0.4-1.59,0.16-1.99-0.53c-0.4-0.7-0.16-1.59,0.53-1.99
				C132.96,77.75,133.85,77.99,134.25,78.69z"/>
		</g>
		<g>
			<path class="st9" d="M121.15,90.72c0.7,0.4,0.93,1.29,0.53,1.99c-0.4,0.7-1.29,0.93-1.99,0.53c-0.7-0.4-0.93-1.29-0.53-1.99
				C119.56,90.56,120.45,90.32,121.15,90.72z"/>
		</g>
		<g>
			<path class="st9" d="M115.82,107.7c0.8,0,1.46,0.65,1.46,1.46c0,0.8-0.65,1.46-1.46,1.46c-0.8,0-1.46-0.65-1.46-1.46
				C114.37,108.35,115.02,107.7,115.82,107.7z"/>
		</g>
		<g>
			<path class="st9" d="M119.69,125.07c0.7-0.4,1.59-0.16,1.99,0.53c0.4,0.7,0.16,1.59-0.53,1.99c-0.7,0.4-1.59,0.16-1.99-0.53
				C118.76,126.36,119,125.47,119.69,125.07z"/>
		</g>
		<g>
			<path class="st9" d="M131.73,138.17c0.4-0.7,1.29-0.93,1.99-0.53c0.7,0.4,0.93,1.29,0.53,1.99c-0.4,0.7-1.29,0.93-1.99,0.53
				C131.57,139.75,131.33,138.86,131.73,138.17z"/>
		</g>
		<g>
			<path class="st9" d="M148.71,143.5c0-0.8,0.65-1.46,1.46-1.46c0.8,0,1.46,0.65,1.46,1.46c0,0.8-0.65,1.46-1.46,1.46
				C149.36,144.95,148.71,144.3,148.71,143.5z"/>
		</g>
		<g>
			<path class="st9" d="M166.07,139.62c-0.4-0.7-0.16-1.59,0.53-1.99c0.7-0.4,1.59-0.16,1.99,0.53c0.4,0.7,0.16,1.59-0.53,1.99
				C167.36,140.56,166.47,140.32,166.07,139.62z"/>
		</g>
		<g>
			<path class="st9" d="M179.17,127.59c-0.7-0.4-0.93-1.29-0.53-1.99c0.4-0.7,1.29-0.93,1.99-0.53c0.7,0.4,0.93,1.29,0.53,1.99
				C180.76,127.75,179.87,127.99,179.17,127.59z"/>
		</g>
		<g>
			<path class="st9" d="M184.5,110.61c-0.8,0-1.46-0.65-1.46-1.46c0-0.8,0.65-1.46,1.46-1.46c0.8,0,1.46,0.65,1.46,1.46
				C185.96,109.96,185.31,110.61,184.5,110.61z"/>
		</g>
		<g>
			<path class="st9" d="M180.63,93.25c-0.7,0.4-1.59,0.16-1.99-0.53c-0.4-0.7-0.16-1.59,0.53-1.99c0.7-0.4,1.59-0.16,1.99,0.53
				S181.33,92.84,180.63,93.25z"/>
		</g>
		<g>
			<path class="st9" d="M168.59,80.14c-0.4,0.7-1.29,0.93-1.99,0.53c-0.7-0.4-0.93-1.29-0.53-1.99c0.4-0.7,1.29-0.93,1.99-0.53
				C168.76,78.56,169,79.45,168.59,80.14z"/>
		</g>
		<g>
			
				<rect x="140.12" y="94.55" transform="matrix(0.4687 -0.8834 0.8834 0.4687 -16.2924 180.1909)" class="st9" width="3.03" height="18.17"/>
		</g>
		<g>
			
				<rect x="148.96" y="100.74" transform="matrix(0.8757 -0.4828 0.4828 0.8757 -28.9704 91.175)" class="st9" width="27.32" height="2.25"/>
		</g>
		<g>
			<path class="st7" d="M157.08,109.16c0,3.82-3.1,6.92-6.92,6.92c-3.82,0-6.92-3.1-6.92-6.92c0-3.82,3.1-6.92,6.92-6.92
				C153.98,102.24,157.08,105.34,157.08,109.16z"/>
		</g>
		<g>
			<path class="st7" d="M131.96,60.01c-0.38-0.81-0.84-1.6-1.38-2.36c-4.98-7.03-14.71-8.7-21.75-3.72
				c-7.03,4.98-8.7,14.71-3.72,21.75c0.54,0.76,1.13,1.45,1.77,2.08L131.96,60.01z"/>
		</g>
	</g>
	<g>
		<g>
			<path class="st2" d="M61.42,85.36l11.26-34.61c0.68-2.08,2.68-3.44,4.86-3.29l34.88,2.32l-6.28,6.04l-23.33,2.71l-3.15,22.36
				L61.42,85.36z"/>
		</g>
		<g>
			<defs>
				<path id="SVGID_1_" d="M70.33,79.87L56.22,51.46c-0.18-5.12-0.41-12.92-0.41-19.89c0-3.35-2.27-4.13-4.44-3.71
					c-6.72,1.29-20.14,5.31-23.86,6.44c-0.36,0.11-0.42,0.61-0.08,0.79l6.12,3.36c0.07,0.04,0.16,0.06,0.24,0.05l12.57-1.05
					c0.27-0.02,0.49,0.21,0.46,0.48c-0.12,1.01-0.49,3.58-0.89,6.3c-0.19,0.1-0.37,0.2-0.55,0.31L27.2,55.93
					c-0.43,0.27-0.81,0.57-1.16,0.9c-3.12-0.76-6.03-1.46-7-1.75c-0.26-0.08-0.38-0.38-0.25-0.61l5.95-11.12
					c0.04-0.07,0.06-0.16,0.05-0.24l-0.65-6.95c-0.04-0.38-0.51-0.53-0.76-0.24C20.86,38.88,11.85,49.6,7.99,55.26
					c-1.25,1.83-1.43,4.22,1.64,5.55c7.4,3.2,15.7,7.12,20.07,9.22l17.41,23.54L70.33,79.87z"/>
			</defs>
			<use xlink:href="#SVGID_1_"  style="overflow:visible;fill:#A5B7DF;"/>
			<clipPath id="SVGID_00000121276377887657332530000012982202613328380069_">
				<use xlink:href="#SVGID_1_"  style="overflow:visible;"/>
			</clipPath>
			<g style="clip-path:url(#SVGID_00000121276377887657332530000012982202613328380069_);">
				<g>
					<g>
						
							<rect x="26.02" y="30.02" transform="matrix(0.8721 -0.4892 0.4892 0.8721 -12.2275 18.0519)" class="st1" width="4.81" height="4.81"/>
					</g>
					<g>
						
							<rect x="32.57" y="31.86" transform="matrix(0.8721 -0.4892 0.4892 0.8721 -12.2913 21.4887)" class="st1" width="4.81" height="4.81"/>
					</g>
					<g>
						
							<rect x="34.41" y="25.31" transform="matrix(0.8721 -0.4892 0.4892 0.8721 -8.8544 21.5525)" class="st1" width="4.81" height="4.81"/>
					</g>
					<g>
						
							<rect x="40.95" y="27.15" transform="matrix(0.8721 -0.4892 0.4892 0.8721 -8.9183 24.9895)" class="st1" width="4.81" height="4.81"/>
					</g>
					<g>
						
							<rect x="42.79" y="20.61" transform="matrix(0.8721 -0.4892 0.4892 0.8721 -5.4814 25.0532)" class="st1" width="4.81" height="4.81"/>
					</g>
					<g>
						
							<rect x="49.33" y="22.45" transform="matrix(0.8722 -0.4892 0.4892 0.8722 -5.5453 28.4879)" class="st1" width="4.81" height="4.81"/>
					</g>
				</g>
				<g>
					<g>
						
							<rect x="30.72" y="38.4" transform="matrix(0.8721 -0.4892 0.4892 0.8721 -15.728 21.4245)" class="st1" width="4.81" height="4.81"/>
					</g>
					<g>
						
							<rect x="37.27" y="40.24" transform="matrix(0.8721 -0.4893 0.4893 0.8721 -15.7921 24.8623)" class="st1" width="4.81" height="4.81"/>
					</g>
					<g>
						
							<rect x="39.11" y="33.7" transform="matrix(0.8721 -0.4893 0.4893 0.8721 -12.3552 24.9261)" class="st1" width="4.81" height="4.81"/>
					</g>
					<g>
						
							<rect x="45.65" y="35.54" transform="matrix(0.8721 -0.4893 0.4893 0.8721 -12.419 28.363)" class="st1" width="4.81" height="4.81"/>
					</g>
					<g>
						
							<rect x="47.49" y="28.99" transform="matrix(0.8722 -0.4892 0.4892 0.8722 -8.9819 28.424)" class="st1" width="4.81" height="4.81"/>
					</g>
					<g>
						
							<rect x="54.04" y="30.84" transform="matrix(0.8722 -0.4892 0.4892 0.8722 -9.0458 31.8614)" class="st1" width="4.81" height="4.81"/>
					</g>
				</g>
				<g>
					<g>
						
							<rect x="0.87" y="44.13" transform="matrix(0.8721 -0.4893 0.4893 0.8721 -22.3474 7.5504)" class="st1" width="4.81" height="4.81"/>
					</g>
					<g>
						
							<rect x="7.41" y="45.97" transform="matrix(0.8721 -0.4892 0.4892 0.8721 -22.4101 10.9864)" class="st1" width="4.81" height="4.81"/>
					</g>
					<g>
						
							<rect x="9.25" y="39.42" transform="matrix(0.8721 -0.4892 0.4892 0.8721 -18.9736 11.0506)" class="st1" width="4.81" height="4.81"/>
					</g>
					<g>
						
							<rect x="15.8" y="41.26" transform="matrix(0.8721 -0.4892 0.4892 0.8721 -19.0371 14.4871)" class="st1" width="4.81" height="4.81"/>
					</g>
					<g>
						
							<rect x="17.64" y="34.72" transform="matrix(0.8722 -0.4892 0.4892 0.8722 -15.6001 14.5506)" class="st1" width="4.81" height="4.81"/>
					</g>
					<g>
						
							<rect x="24.18" y="36.56" transform="matrix(0.8722 -0.4892 0.4892 0.8722 -15.6636 17.9865)" class="st1" width="4.81" height="4.81"/>
					</g>
				</g>
				<g>
					<g>
						
							<rect x="5.57" y="52.51" transform="matrix(0.8721 -0.4893 0.4893 0.8721 -25.8477 10.9233)" class="st1" width="4.81" height="4.81"/>
					</g>
					<g>
						
							<rect x="12.12" y="54.35" transform="matrix(0.8721 -0.4892 0.4892 0.8721 -25.9107 14.3595)" class="st1" width="4.81" height="4.81"/>
					</g>
					<g>
						
							<rect x="13.96" y="47.81" transform="matrix(0.8721 -0.4893 0.4893 0.8721 -22.4746 14.424)" class="st1" width="4.81" height="4.81"/>
					</g>
					<g>
						
							<rect x="20.5" y="49.65" transform="matrix(0.8721 -0.4892 0.4892 0.8721 -22.5378 17.8601)" class="st1" width="4.81" height="4.81"/>
					</g>
					<g>
						
							<rect x="22.34" y="43.1" transform="matrix(0.8721 -0.4892 0.4892 0.8721 -19.101 17.924)" class="st1" width="4.81" height="4.81"/>
					</g>
					<g>
						
							<rect x="28.88" y="44.95" transform="matrix(0.8721 -0.4893 0.4893 0.8721 -19.1652 21.3616)" class="st1" width="4.81" height="4.81"/>
					</g>
				</g>
				<g>
					<g>
						
							<rect x="35.48" y="46.88" transform="matrix(0.8721 -0.4893 0.4893 0.8721 -19.2679 24.836)" class="st1" width="4.81" height="4.81"/>
					</g>
					<g>
						
							<rect x="42.02" y="48.72" transform="matrix(0.8722 -0.4892 0.4892 0.8722 -19.3309 28.2706)" class="st1" width="4.81" height="4.81"/>
					</g>
					<g>
						
							<rect x="43.86" y="42.18" transform="matrix(0.8721 -0.4892 0.4892 0.8721 -15.8945 28.3356)" class="st1" width="4.81" height="4.81"/>
					</g>
					<g>
						
							<rect x="50.41" y="44.02" transform="matrix(0.8721 -0.4893 0.4893 0.8721 -15.9586 31.7735)" class="st1" width="4.81" height="4.81"/>
					</g>
					<g>
						
							<rect x="52.25" y="37.47" transform="matrix(0.8721 -0.4893 0.4893 0.8721 -12.5217 31.8374)" class="st1" width="4.81" height="4.81"/>
					</g>
					<g>
						
							<rect x="58.79" y="39.31" transform="matrix(0.8721 -0.4893 0.4893 0.8721 -12.5855 35.2743)" class="st1" width="4.81" height="4.81"/>
					</g>
				</g>
				<g>
					<g>
						
							<rect x="40.18" y="55.26" transform="matrix(0.8722 -0.4892 0.4892 0.8722 -22.7676 28.2068)" class="st1" width="4.81" height="4.81"/>
					</g>
					<g>
						
							<rect x="46.73" y="57.1" transform="matrix(0.8722 -0.4892 0.4892 0.8722 -22.8311 31.6427)" class="st1" width="4.81" height="4.81"/>
					</g>
					<g>
						
							<rect x="48.57" y="50.56" transform="matrix(0.8721 -0.4892 0.4892 0.8721 -19.3951 31.7086)" class="st1" width="4.81" height="4.81"/>
					</g>
					<g>
						
							<rect x="55.11" y="52.4" transform="matrix(0.8721 -0.4892 0.4892 0.8721 -19.4591 35.146)" class="st1" width="4.81" height="4.81"/>
					</g>
					<g>
						
							<rect x="56.95" y="45.86" transform="matrix(0.8721 -0.4893 0.4893 0.8721 -16.0224 35.2106)" class="st1" width="4.81" height="4.81"/>
					</g>
					<g>
						
							<rect x="63.5" y="47.7" transform="matrix(0.8721 -0.4893 0.4893 0.8721 -16.0863 38.6483)" class="st1" width="4.81" height="4.81"/>
					</g>
				</g>
				<g>
					<g>
						
							<rect x="10.33" y="60.99" transform="matrix(0.8721 -0.4892 0.4892 0.8721 -29.3863 14.333)" class="st1" width="4.81" height="4.81"/>
					</g>
					<g>
						
							<rect x="16.87" y="62.83" transform="matrix(0.8722 -0.4892 0.4892 0.8722 -29.4489 17.7685)" class="st1" width="4.81" height="4.81"/>
					</g>
					<g>
						
							<rect x="18.71" y="56.29" transform="matrix(0.8721 -0.4893 0.4893 0.8721 -26.0142 17.8346)" class="st1" width="4.81" height="4.81"/>
					</g>
					<g>
						
							<rect x="25.26" y="58.13" transform="matrix(0.8721 -0.4893 0.4893 0.8721 -26.0781 21.2716)" class="st1" width="4.81" height="4.81"/>
					</g>
					<g>
						
							<rect x="27.1" y="51.58" transform="matrix(0.8721 -0.4893 0.4893 0.8721 -22.6411 21.3353)" class="st1" width="4.81" height="4.81"/>
					</g>
					<g>
						
							<rect x="33.64" y="53.42" transform="matrix(0.8721 -0.4893 0.4893 0.8721 -22.7049 24.7722)" class="st1" width="4.81" height="4.81"/>
					</g>
				</g>
				<g>
					<g>
						
							<rect x="15.03" y="69.37" transform="matrix(0.8722 -0.4892 0.4892 0.8722 -32.8865 17.7056)" class="st1" width="4.81" height="4.81"/>
					</g>
					<g>
						
							<rect x="21.57" y="71.21" transform="matrix(0.8721 -0.4892 0.4892 0.8721 -32.9513 21.1435)" class="st1" width="4.81" height="4.81"/>
					</g>
					<g>
						
							<rect x="23.41" y="64.67" transform="matrix(0.8722 -0.4892 0.4892 0.8722 -29.5136 21.2062)" class="st1" width="4.81" height="4.81"/>
					</g>
					<g>
						
							<rect x="29.96" y="66.51" transform="matrix(0.8721 -0.4892 0.4892 0.8721 -29.5782 24.644)" class="st1" width="4.81" height="4.81"/>
					</g>
					<g>
						
							<rect x="31.8" y="59.97" transform="matrix(0.8721 -0.4892 0.4892 0.8721 -26.1413 24.7077)" class="st1" width="4.81" height="4.81"/>
					</g>
					<g>
						
							<rect x="38.34" y="61.81" transform="matrix(0.8721 -0.4892 0.4892 0.8721 -26.2052 28.1447)" class="st1" width="4.81" height="4.81"/>
					</g>
				</g>
			</g>
			<g style="clip-path:url(#SVGID_00000121276377887657332530000012982202613328380069_);">
				<g>
					<g>
						
							<rect x="44.86" y="63.6" transform="matrix(0.8721 -0.4892 0.4892 0.8721 -26.2475 31.5608)" class="st1" width="4.81" height="4.81"/>
					</g>
					<g>
						
							<rect x="51.4" y="65.44" transform="matrix(0.8721 -0.4892 0.4892 0.8721 -26.3113 34.9976)" class="st1" width="4.81" height="4.81"/>
					</g>
					<g>
						
							<rect x="53.24" y="58.89" transform="matrix(0.8721 -0.4892 0.4892 0.8721 -22.8744 35.0614)" class="st1" width="4.81" height="4.81"/>
					</g>
					<g>
						
							<rect x="59.79" y="60.73" transform="matrix(0.8722 -0.4892 0.4892 0.8722 -22.9373 38.4952)" class="st1" width="4.81" height="4.81"/>
					</g>
					<g>
						
							<rect x="61.63" y="54.19" transform="matrix(0.8722 -0.4892 0.4892 0.8722 -19.5008 38.5592)" class="st1" width="4.81" height="4.81"/>
					</g>
					<g>
						
							<rect x="68.17" y="56.03" transform="matrix(0.8721 -0.4892 0.4892 0.8721 -19.5652 41.9988)" class="st1" width="4.81" height="4.81"/>
					</g>
				</g>
				<g>
					<g>
						
							<rect x="49.56" y="71.98" transform="matrix(0.8721 -0.4893 0.4893 0.8721 -29.7485 34.9347)" class="st1" width="4.81" height="4.81"/>
					</g>
					<g>
						
							<rect x="56.1" y="73.82" transform="matrix(0.8721 -0.4893 0.4893 0.8721 -29.8123 38.3716)" class="st1" width="4.81" height="4.81"/>
					</g>
					<g>
						
							<rect x="57.95" y="67.28" transform="matrix(0.8721 -0.4892 0.4892 0.8721 -26.3748 38.4338)" class="st1" width="4.81" height="4.81"/>
					</g>
					<g>
						
							<rect x="64.49" y="69.12" transform="matrix(0.8722 -0.4892 0.4892 0.8722 -26.4381 41.8687)" class="st1" width="4.81" height="4.81"/>
					</g>
					<g>
						
							<rect x="66.33" y="62.57" transform="matrix(0.8722 -0.4892 0.4892 0.8722 -23.0012 41.9318)" class="st1" width="4.81" height="4.81"/>
					</g>
					<g>
						
							<rect x="72.87" y="64.41" transform="matrix(0.8721 -0.4893 0.4893 0.8721 -23.0661 45.373)" class="st1" width="4.81" height="4.81"/>
					</g>
				</g>
				<g>
					<g>
						
							<rect x="19.71" y="77.71" transform="matrix(0.8721 -0.4892 0.4892 0.8721 -36.3668 21.059)" class="st1" width="4.81" height="4.81"/>
					</g>
					<g>
						
							<rect x="26.25" y="79.55" transform="matrix(0.8721 -0.4893 0.4893 0.8721 -36.431 24.4964)" class="st1" width="4.81" height="4.81"/>
					</g>
					<g>
						
							<rect x="28.09" y="73" transform="matrix(0.8721 -0.4892 0.4892 0.8721 -32.9937 24.5596)" class="st1" width="4.81" height="4.81"/>
					</g>
					<g>
						
							<rect x="34.63" y="74.84" transform="matrix(0.8721 -0.4892 0.4892 0.8721 -33.057 27.9958)" class="st1" width="4.81" height="4.81"/>
					</g>
					<g>
						
							<rect x="36.47" y="68.3" transform="matrix(0.8721 -0.4892 0.4892 0.8721 -29.6205 28.0601)" class="st1" width="4.81" height="4.81"/>
					</g>
					<g>
						
							<rect x="43.02" y="70.14" transform="matrix(0.8721 -0.4893 0.4893 0.8721 -29.6848 31.4979)" class="st1" width="4.81" height="4.81"/>
					</g>
				</g>
				<g>
					<g>
						
							<rect x="24.41" y="86.09" transform="matrix(0.8721 -0.4893 0.4893 0.8721 -39.8678 24.4324)" class="st1" width="4.81" height="4.81"/>
					</g>
					<g>
						
							<rect x="30.95" y="87.93" transform="matrix(0.8722 -0.4892 0.4892 0.8722 -39.9294 27.8668)" class="st1" width="4.81" height="4.81"/>
					</g>
					<g>
						
							<rect x="32.79" y="81.39" transform="matrix(0.8721 -0.4892 0.4892 0.8721 -36.4938 27.932)" class="st1" width="4.81" height="4.81"/>
					</g>
					<g>
						
							<rect x="39.34" y="83.23" transform="matrix(0.8721 -0.4893 0.4893 0.8721 -36.5587 31.3703)" class="st1" width="4.81" height="4.81"/>
					</g>
					<g>
						
							<rect x="41.18" y="76.68" transform="matrix(0.8721 -0.4893 0.4893 0.8721 -33.1217 31.434)" class="st1" width="4.81" height="4.81"/>
					</g>
					<g>
						
							<rect x="47.72" y="78.52" transform="matrix(0.8721 -0.4893 0.4893 0.8721 -33.1854 34.8709)" class="st1" width="4.81" height="4.81"/>
					</g>
				</g>
				<g>
					<g>
						
							<rect x="54.32" y="80.46" transform="matrix(0.8722 -0.4892 0.4892 0.8722 -33.2865 38.342)" class="st1" width="4.81" height="4.81"/>
					</g>
					<g>
						
							<rect x="60.86" y="82.3" transform="matrix(0.8721 -0.4893 0.4893 0.8721 -33.3519 41.7822)" class="st1" width="4.81" height="4.81"/>
					</g>
					<g>
						
							<rect x="62.7" y="75.75" transform="matrix(0.8721 -0.4893 0.4893 0.8721 -29.915 41.846)" class="st1" width="4.81" height="4.81"/>
					</g>
					<g>
						
							<rect x="69.24" y="77.6" transform="matrix(0.8721 -0.4893 0.4893 0.8721 -29.9788 45.2829)" class="st1" width="4.81" height="4.81"/>
					</g>
					<g>
						
							<rect x="71.09" y="71.05" transform="matrix(0.8721 -0.4893 0.4893 0.8721 -26.5418 45.3465)" class="st1" width="4.81" height="4.81"/>
					</g>
					<g>
						
							<rect x="77.63" y="72.89" transform="matrix(0.8722 -0.4892 0.4892 0.8722 -26.6047 48.7797)" class="st1" width="4.81" height="4.81"/>
					</g>
				</g>
				<g>
					<g>
						
							<rect x="29.16" y="94.57" transform="matrix(0.8721 -0.4893 0.4893 0.8721 -43.4075 27.8431)" class="st1" width="4.81" height="4.81"/>
					</g>
					<g>
						
							<rect x="35.71" y="96.41" transform="matrix(0.8722 -0.4892 0.4892 0.8722 -43.4694 31.2778)" class="st1" width="4.81" height="4.81"/>
					</g>
					<g>
						
							<rect x="37.55" y="89.86" transform="matrix(0.8721 -0.4893 0.4893 0.8721 -40.0344 31.3439)" class="st1" width="4.81" height="4.81"/>
					</g>
					<g>
						
							<rect x="44.09" y="91.7" transform="matrix(0.8721 -0.4892 0.4892 0.8721 -40.0976 34.7799)" class="st1" width="4.81" height="4.81"/>
					</g>
					<g>
						
							<rect x="45.93" y="85.16" transform="matrix(0.8721 -0.4893 0.4893 0.8721 -36.6614 34.8447)" class="st1" width="4.81" height="4.81"/>
					</g>
					<g>
						
							<rect x="52.48" y="87" transform="matrix(0.8722 -0.4892 0.4892 0.8722 -36.7232 38.2781)" class="st1" width="4.81" height="4.81"/>
					</g>
				</g>
			</g>
		</g>
		<g>
			<g>
				<path class="st11" d="M38.01,53.34c-4.32,2.02-5.35-0.19-5.76-0.85l-2.8-4.47c-0.63-1.01,0.93-1.87,1.83-2.44l2.89-1.81
					c0.9-0.56,2.92-0.69,3.56,0.32l3.35,5.15C41.49,49.89,42.31,51.34,38.01,53.34z"/>
			</g>
		</g>
		<g>
			<defs>
				<path id="SVGID_00000109735244810278923100000010198494342174061987_" d="M39.09,40.67c1.3,4.66-2.36,6.12-7.02,7.42
					c-4.66,1.3-9.5-1.42-10.8-6.08c-1.3-4.66,1.42-9.5,6.08-10.8C32.01,29.91,37.79,36.01,39.09,40.67z"/>
			</defs>
			<use xlink:href="#SVGID_00000109735244810278923100000010198494342174061987_"  style="overflow:visible;fill:#F6B2B7;"/>
			<clipPath id="SVGID_00000032620932694798805670000004884466122950445224_">
				<use xlink:href="#SVGID_00000109735244810278923100000010198494342174061987_"  style="overflow:visible;"/>
			</clipPath>
			<g style="clip-path:url(#SVGID_00000032620932694798805670000004884466122950445224_);">
				<g>
					<g>
						<path class="st13" d="M25.64,37.39c0,0,1.64,2.62,1.28,2.85c-0.36,0.23-2.06,0.53-2.26,2.42c-0.2,1.89,1.68,2.47,3.02,2.01
							c1.35-0.47,2.46,3.12-0.68,4.33s-8.27-4.76-8.41-8.2c-0.14-3.44,2.71-9.13,4.46-9.97c1.74-0.84,16.09-1.79,16.09-1.79
							L25.64,37.39z"/>
					</g>
				</g>
			</g>
		</g>
		<g>
			<path class="st14" d="M115.94,47.22l1.63,4.97l3.81-1.25l-3.31-10.07c-0.22-0.66-1.79-0.4-1.92,0.29L115.94,47.22z"/>
		</g>
		<g>
			<path class="st9" d="M47.11,93.56l23.22-13.69l19.43-21.23l26.18-11.43l1.63,4.97L96.73,67.87c0,0-12.38,29.33-25.31,33.63
				C58.49,105.79,47.11,93.56,47.11,93.56z"/>
		</g>
	</g>
	<g>
		<path class="st0" d="M40.85,151.85c0-2.48,2.01-4.49,4.49-4.49c2.48,0,4.49,2.01,4.49,4.49c0,2.48-2.01,4.49-4.49,4.49
			C42.86,156.34,40.85,154.33,40.85,151.85z"/>
	</g>
	<g>
		<path class="st0" d="M59.78,151.85c0-2.48,2.01-4.49,4.49-4.49c2.48,0,4.49,2.01,4.49,4.49c0,2.48-2.01,4.49-4.49,4.49
			C61.79,156.34,59.78,154.33,59.78,151.85z"/>
	</g>
	<g>
		<path class="st0" d="M78.71,151.85c0-2.48,2.01-4.49,4.49-4.49c2.48,0,4.49,2.01,4.49,4.49c0,2.48-2.01,4.49-4.49,4.49
			C80.72,156.34,78.71,154.33,78.71,151.85z"/>
	</g>
	<g>
		<path class="st1" d="M76.34,29.53c0,0.57-0.46,1.03-1.03,1.03c-0.57,0-1.03-0.46-1.03-1.03c0-0.57,0.46-1.03,1.03-1.03
			C75.88,28.5,76.34,28.96,76.34,29.53z"/>
	</g>
	<g>
		<path class="st1" d="M110.2,15.94c0,0.57-0.46,1.03-1.03,1.03c-0.57,0-1.03-0.46-1.03-1.03c0-0.57,0.46-1.03,1.03-1.03
			C109.74,14.91,110.2,15.37,110.2,15.94z"/>
	</g>
	<g>
		<path class="st1" d="M143.51,29.29c0,0.57-0.46,1.03-1.03,1.03c-0.57,0-1.03-0.46-1.03-1.03c0-0.57,0.46-1.03,1.03-1.03
			C143.05,28.26,143.51,28.72,143.51,29.29z"/>
	</g>
</g>
</svg>
