<?xml version="1.0" encoding="utf-8"?>
<!-- Generator: Adobe Illustrator 26.3.1, SVG Export Plug-In . SVG Version: 6.00 Build 0)  -->
<svg version="1.1" id="Calque_1" xmlns="http://www.w3.org/2000/svg" xmlns:xlink="http://www.w3.org/1999/xlink" x="0px" y="0px"
	 viewBox="0 0 165 165" style="enable-background:new 0 0 165 165;" xml:space="preserve">
<style type="text/css">
	.st0{fill:#FFFFFF;}
	.st1{fill:#ACD4F7;}
	.st2{opacity:0.1294;}
</style>
<g>
	<g>
		<g>
			<path d="M65.12,143.95c-10.6,0-21.22-4.34-28.64-11.93c-0.29-0.3-0.29-0.78,0.01-1.08c0.3-0.29,0.78-0.29,1.08,0.01
				c8.29,8.47,20.73,12.74,32.47,11.14c0.42-0.06,0.8,0.24,0.86,0.65c0.06,0.42-0.24,0.8-0.65,0.86
				C68.54,143.84,66.83,143.95,65.12,143.95z"/>
		</g>
		<g>
			<path d="M63.48,147.81c-0.31,0-0.6-0.19-0.71-0.5c-0.15-0.39,0.06-0.83,0.45-0.98c2.13-0.78,4.12-1.87,5.92-3.23
				c-2.01-1.14-3.93-2.45-5.72-3.92c-0.32-0.27-0.37-0.75-0.1-1.07c0.27-0.32,0.75-0.37,1.07-0.1c2,1.65,4.18,3.1,6.48,4.3
				c0.22,0.12,0.38,0.34,0.4,0.59c0.03,0.25-0.07,0.5-0.27,0.67c-2.17,1.81-4.61,3.22-7.25,4.19
				C63.66,147.79,63.57,147.81,63.48,147.81z"/>
		</g>
	</g>
	<g>
		<g>
			<path d="M146.09,56.53c-0.02,0-0.04,0-0.06,0c-0.42-0.03-0.73-0.4-0.7-0.82c0.88-10.6-4.2-21.36-12.93-27.43
				c-0.35-0.24-0.43-0.71-0.19-1.06c0.24-0.35,0.72-0.43,1.06-0.19c9.17,6.37,14.5,17.67,13.58,28.8
				C146.82,56.23,146.49,56.53,146.09,56.53z"/>
		</g>
		<g>
			<path d="M135.16,35.8c-0.33,0-0.64-0.22-0.73-0.55c-0.74-2.59-1.64-5.16-2.69-7.64c-0.11-0.27-0.06-0.58,0.13-0.8
				c0.19-0.22,0.5-0.31,0.78-0.23l7.86,2.2c0.41,0.11,0.64,0.53,0.53,0.94c-0.11,0.41-0.53,0.64-0.94,0.53l-6.37-1.78
				c0.82,2.08,1.55,4.22,2.16,6.37c0.12,0.4-0.12,0.83-0.52,0.94C135.3,35.79,135.23,35.8,135.16,35.8z"/>
		</g>
	</g>
	<g>
		<path d="M157.27,55.14c-0.03,0-0.05,0-0.08,0c-0.42-0.04-0.72-0.42-0.68-0.84c0.7-6.72-0.43-13.52-3.27-19.65
			c-0.18-0.38-0.01-0.83,0.37-1.01c0.38-0.18,0.83-0.01,1.01,0.37c2.95,6.38,4.13,13.45,3.4,20.45
			C157.98,54.85,157.65,55.14,157.27,55.14z"/>
	</g>
	<g>
		<path d="M51.18,153.58c-0.05,0-0.1,0-0.15-0.01c-7.72-1.52-14.99-5.47-20.47-11.11c-0.29-0.3-0.29-0.78,0.02-1.08
			c0.3-0.29,0.78-0.29,1.08,0.02c5.27,5.42,12.26,9.22,19.68,10.68c0.41,0.08,0.68,0.48,0.6,0.89
			C51.85,153.32,51.54,153.58,51.18,153.58z"/>
	</g>
	<g>
		<g>
			<path d="M65.12,143.95c-10.6,0-21.22-4.34-28.64-11.93c-0.29-0.3-0.29-0.78,0.01-1.08c0.3-0.29,0.78-0.29,1.08,0.01
				c8.29,8.47,20.73,12.74,32.47,11.14c0.42-0.06,0.8,0.24,0.86,0.65c0.06,0.42-0.24,0.8-0.65,0.86
				C68.54,143.84,66.83,143.95,65.12,143.95z"/>
		</g>
		<g>
			<path d="M63.48,147.81c-0.31,0-0.6-0.19-0.71-0.5c-0.15-0.39,0.06-0.83,0.45-0.98c2.13-0.78,4.12-1.87,5.92-3.23
				c-2.01-1.14-3.93-2.45-5.72-3.92c-0.32-0.27-0.37-0.75-0.1-1.07c0.27-0.32,0.75-0.37,1.07-0.1c2,1.65,4.18,3.1,6.48,4.3
				c0.22,0.12,0.38,0.34,0.4,0.59c0.03,0.25-0.07,0.5-0.27,0.67c-2.17,1.81-4.61,3.22-7.25,4.19
				C63.66,147.79,63.57,147.81,63.48,147.81z"/>
		</g>
	</g>
	<g>
		<g>
			<path d="M146.09,56.53c-0.02,0-0.04,0-0.06,0c-0.42-0.03-0.73-0.4-0.7-0.82c0.88-10.6-4.2-21.36-12.93-27.43
				c-0.35-0.24-0.43-0.71-0.19-1.06c0.24-0.35,0.72-0.43,1.06-0.19c9.17,6.37,14.5,17.67,13.58,28.8
				C146.82,56.23,146.49,56.53,146.09,56.53z"/>
		</g>
		<g>
			<path d="M135.16,35.8c-0.33,0-0.64-0.22-0.73-0.55c-0.74-2.59-1.64-5.16-2.69-7.64c-0.11-0.27-0.06-0.58,0.13-0.8
				c0.19-0.22,0.5-0.31,0.78-0.23l7.86,2.2c0.41,0.11,0.64,0.53,0.53,0.94c-0.11,0.41-0.53,0.64-0.94,0.53l-6.37-1.78
				c0.82,2.08,1.55,4.22,2.16,6.37c0.12,0.4-0.12,0.83-0.52,0.94C135.3,35.79,135.23,35.8,135.16,35.8z"/>
		</g>
	</g>
	<g>
		<g>
			<path class="st0" d="M36.52,60.82c-4.55,1.52-8.58,4.73-10.74,9.02c-2.15,4.29-2.28,9.62,0,13.84c3.32,6.14,11.55,8.88,18.07,6.4
				c7.1-2.71,11.43-11.24,9.35-18.55C51.12,64.21,42.75,58.74,36.52,60.82z M45.15,80c-0.64,1.5-2.09,2.89-3.55,3.6
				c-3.32,1.62-7.09,0.23-9.05-2.78c-2.02-3.09-1.73-7.27,0.35-10.27c1.04-1.49,2.35-2.66,4.18-3.01c1.69-0.32,3.38-0.01,4.71,1.06
				c0.86,0.15,1.68,0.51,2.36,1.07c1.31,1.09,1.87,3.26,1.98,4.9C46.25,76.37,45.86,78.36,45.15,80z"/>
		</g>
		<g>
			<g>
				<path class="st1" d="M70.76,74.57c-1.89-0.57-3.71-1.56-4.96-3.1c-1.74-2.14-2.16-5.17-1.45-7.84c0.71-2.67,2.44-4.98,4.55-6.76
					c-1.86-2.96-3.88-5.74-6-8.44c-2.57,1.9-5.03,3.7-7.88,3.84c-2.75,0.14-5.41-1.37-7.12-3.52c-1.71-2.16-2.56-4.89-2.9-7.62
					c-0.1-0.26-0.24-0.31-0.34-0.32c-2.88-0.21-5.77-0.43-8.65-0.64c-0.52,2.69-1.75,5.1-3.63,6.84c-1.88,1.74-4.44,2.78-7,2.7
					c-1.05-0.03-2.09-0.25-3.12-0.47c-1.68-0.37-3.47-0.82-4.65-2.07c-2.29,1.56-4.35,3.22-6.34,4.95c1.02,0.69,1.45,1.65,1.81,2.58
					c0.77,1.99,1.35,4.17,0.87,6.25c-0.5,2.15-2.12,3.93-4.06,4.99c-1.94,1.06-4.17,1.48-6.37,1.61c-0.61,3.15-0.91,6.52-1.01,9.9
					c1.88,0.67,3.66,1.24,5.27,2.18c1.6,0.93,3.04,2.27,3.75,3.98c0.8,1.93,0.61,4.18-0.23,6.09c-0.84,1.91-2.28,3.51-3.91,4.83
					c1.97,3.19,3.86,6.15,5.8,9.07c3-1.97,6.78-2.58,10.07-1.52c0.82,0.26,1.61,0.63,2.29,1.17c0.84,0.67,1.46,1.58,1.95,2.54
					c1.16,2.3,1.6,4.96,1.23,7.51c3.5,0.7,6.89,1.15,10.29,1.42c-0.21-3.54,1.32-7.09,4.12-9.03c2.8-1.94,6.79-2.07,9.61-0.15
					c1.33,0.91,2.36,2.2,3.35,3.47c3.07-2.17,6.1-4.38,8.94-6.82c-1.59-2.47-3.2-4.94-3.27-7.72c-0.07-2.9,1.68-5.66,4.11-7.24
					c2.43-1.57,5.47-2.05,8.35-1.75c0.99-3.37,1.83-6.66,2.53-9.98C74.64,75.34,72.65,75.14,70.76,74.57z M52.67,81.98
					c-1.17,2.58-3.07,4.81-5.35,6.49c-1.33,0.98-2.8,1.77-4.37,2.28c-6.44,2.06-13.99-1.56-16.98-7.63
					c-2.18-4.42-2.08-9.9,0.25-14.24c2.33-4.34,6.84-7.45,11.74-8.07c4.38-0.56,9.93,1.81,13.09,6.07
					C54.21,71.14,54.85,77.14,52.67,81.98z"/>
			</g>
		</g>
		<g>
			<g class="st2">
				<path d="M56.6,74.94c-0.07-0.5-0.17-1-0.29-1.49c-0.06-0.12-0.11-0.23-0.17-0.35c-0.91-1.8-2-3.5-3.24-5.09
					c-0.2,0.14-0.36,0.35-0.43,0.6c-0.13,0.85,0.54,1.64,0.75,2.45c0.75,2.24,1.25,3.32,1.01,5.36c0.03,0.78-1.26,5.11-1.67,5.66
					c-0.49,0.95-1.05,1.87-1.7,2.73c-0.2,0.24-0.26,0.34-0.23,0.35c-0.32,0.25-0.6,0.58-0.92,0.84c-0.67,0.57-1.34,1.15-2.02,1.71
					c-0.18,0.13-0.47,0.37-0.68,0.58c0.11-0.16-0.19,0.12-0.46,0.35c-0.15,0.1-0.82,0.56-1.16,0.73c-2.36,0.83-4.81,1.29-6.11,1.36
					c-1.73,0.16-3.43-0.28-4.76-0.59c-0.95-0.27-1.78-1.21-2.8-1.02c-0.44,0.11-0.73,0.44-0.85,0.83c0.1,0.11,0.2,0.21,0.3,0.31
					c0.35,0.28,0.69,0.57,1.04,0.85c1.26,0.82,2.53,1.65,3.8,2.46c2.1,0.61,4.35,0.73,7.03,0.22c-0.05,0-0.1,0.01-0.16,0.02
					c2.82-0.6,3.7-0.97,5.76-2.04c1.8-1.07,3.25-2.63,4.37-4.4c0.03-0.05,0.06-0.1,0.1-0.15c0-0.01,0.01-0.01,0.01-0.02
					c1.31-1.64,2.31-3.51,3.01-5.49C56.82,79.55,56.81,77.2,56.6,74.94z"/>
			</g>
		</g>
		<g class="st2">
			<path d="M63.46,98.01c-0.28,0.02-0.56,0.08-0.8,0.22c-0.36,0.2-0.59,0.53-0.82,0.86c-0.21,0.27-0.43,0.53-0.62,0.82
				c-0.56,0.72-0.72,1.03-1.96,2.29c-0.69,0.74-1.77,1.2-2.22,2.12c-0.01,0.02-0.01,0.03-0.02,0.05c-0.27,0.15-0.53,0.31-0.8,0.45
				c-0.5,0.31-1.15,0.46-1.5,0.96c-1.09,1.29,0.6,3.19,2.03,2.31c1.49-0.79,2.89-1.73,4.15-2.86c0.06-0.06,0.12-0.13,0.19-0.19
				c0.98-0.79,1.93-1.61,2.81-2.51c0.32-0.34,0.7-0.74,1.01-1.17c-0.33-0.66-0.61-1.34-0.87-2.02
				C63.82,98.91,63.63,98.46,63.46,98.01z"/>
		</g>
		<g class="st2">
			<path d="M73.18,75.35c-0.57,2.18-1.21,4.34-1.91,6.49c-0.32,0.99-0.64,2-0.96,3c0.38,0.47,1.03,0.74,1.63,0.55
				c0.03-0.01,0.06-0.03,0.09-0.04c0.52,0.73,1.88,0.64,2.14-0.38c0.13-0.47,0.33-0.94,0.49-1.41c0.1-0.05,0.21-0.11,0.3-0.19
				c0.62-0.45,0.79-1.3,1.02-1.99c0.34-1.4,0.53-2.84,0.59-4.27c0-0.08,0.01-0.17,0.02-0.26C75.43,76.37,74.3,75.87,73.18,75.35z"/>
		</g>
		<g>
			<path d="M39.01,115.49c-0.02,0-0.04,0-0.06,0c-3.6-0.28-6.99-0.75-10.38-1.43c-0.4-0.08-0.66-0.46-0.6-0.86
				c0.35-2.39-0.07-4.9-1.16-7.06c-0.51-1.02-1.08-1.77-1.74-2.29c-0.53-0.43-1.2-0.77-2.05-1.04c-3.03-0.98-6.55-0.45-9.41,1.43
				c-0.35,0.23-0.82,0.13-1.05-0.22c-1.91-2.88-3.82-5.86-5.81-9.09c-0.2-0.33-0.13-0.75,0.17-0.99c1.74-1.4,2.98-2.93,3.69-4.54
				c0.82-1.86,0.9-3.87,0.22-5.5c-0.74-1.77-2.27-2.94-3.43-3.62c-1.34-0.78-2.85-1.31-4.44-1.87l-0.7-0.25
				c-0.31-0.11-0.52-0.41-0.51-0.74c0.11-3.71,0.45-7.09,1.02-10.02c0.07-0.34,0.36-0.59,0.7-0.61c2.48-0.15,4.46-0.65,6.05-1.52
				c1.89-1.04,3.27-2.72,3.68-4.5c0.47-2.01-0.2-4.16-0.84-5.81c-0.33-0.85-0.69-1.66-1.52-2.23c-0.19-0.13-0.32-0.35-0.33-0.58
				c-0.01-0.23,0.08-0.46,0.26-0.62c2.29-2,4.33-3.59,6.41-5.01c0.31-0.21,0.72-0.17,0.98,0.11c1.02,1.07,2.6,1.49,4.26,1.85
				c1.06,0.23,2.01,0.43,2.98,0.46c2.31,0.07,4.66-0.84,6.46-2.5c1.72-1.59,2.89-3.81,3.4-6.42c0.07-0.38,0.41-0.64,0.8-0.61
				l8.65,0.64c0.46,0.03,0.82,0.33,1,0.81c0.02,0.06,0.03,0.11,0.04,0.17c0.37,2.98,1.3,5.42,2.74,7.24
				c1.68,2.11,4.16,3.35,6.49,3.23c2.66-0.14,5.1-1.95,7.47-3.7c0.33-0.25,0.8-0.18,1.05,0.14c2.37,3.04,4.35,5.82,6.04,8.5
				c0.2,0.32,0.14,0.74-0.15,0.99c-1.54,1.3-3.53,3.45-4.31,6.37c-0.69,2.58-0.19,5.33,1.3,7.16c1.03,1.27,2.61,2.25,4.59,2.85
				c1.82,0.55,3.72,0.74,5.83,0.91c0.22,0.02,0.42,0.13,0.55,0.3c0.13,0.18,0.18,0.4,0.14,0.61c-0.69,3.27-1.52,6.55-2.54,10.04
				c-0.1,0.35-0.44,0.58-0.81,0.54c-2.96-0.31-5.75,0.27-7.86,1.63c-2.34,1.51-3.82,4.09-3.76,6.58c0.06,2.53,1.53,4.82,3.09,7.25
				l0.05,0.08c0.21,0.32,0.14,0.74-0.14,0.99c-2.94,2.52-6.07,4.79-9,6.86c-0.33,0.23-0.79,0.17-1.04-0.15
				c-0.89-1.14-1.9-2.44-3.18-3.31c-2.49-1.7-6.17-1.63-8.74,0.15c-2.5,1.73-3.99,5.01-3.79,8.36c0.01,0.22-0.07,0.43-0.23,0.59
				C39.4,115.41,39.21,115.49,39.01,115.49z M29.56,112.7c2.84,0.54,5.69,0.94,8.68,1.2c0.05-3.6,1.72-6.93,4.47-8.83
				c3.13-2.16,7.43-2.23,10.47-0.15c1.24,0.85,2.24,2.01,3.07,3.06c2.56-1.82,5.24-3.78,7.79-5.93c-1.5-2.35-2.96-4.78-3.03-7.56
				c-0.07-3,1.68-6.1,4.46-7.89c2.24-1.45,5.13-2.12,8.2-1.92c0.85-2.93,1.56-5.72,2.16-8.48c-1.87-0.16-3.59-0.38-5.29-0.89
				c-2.27-0.69-4.11-1.85-5.33-3.35c-1.79-2.21-2.4-5.47-1.59-8.51c0.65-2.43,2.13-4.74,4.29-6.7c-1.49-2.32-3.14-4.65-5.15-7.24
				c-2.36,1.74-4.82,3.4-7.7,3.55c-2.81,0.15-5.78-1.32-7.76-3.81c-1.57-1.97-2.58-4.56-3.02-7.67l-7.67-0.57
				c-0.63,2.65-1.91,4.92-3.72,6.59c-2.09,1.93-4.84,3-7.54,2.9c-1.1-0.03-2.17-0.25-3.26-0.49c-1.62-0.35-3.29-0.79-4.56-1.84
				c-1.65,1.15-3.3,2.44-5.1,3.97c0.69,0.72,1.05,1.55,1.35,2.31c0.71,1.85,1.46,4.29,0.9,6.7c-0.52,2.23-2.13,4.23-4.43,5.49
				c-1.66,0.91-3.66,1.46-6.1,1.66c-0.46,2.57-0.75,5.47-0.87,8.65l0.17,0.06c1.66,0.58,3.23,1.14,4.7,1.99
				c1.36,0.79,3.17,2.19,4.07,4.35c0.84,2.01,0.75,4.45-0.23,6.69c-0.73,1.67-1.94,3.24-3.61,4.68c1.72,2.78,3.37,5.36,5.03,7.87
				c3.12-1.8,6.83-2.26,10.07-1.21c1.02,0.33,1.85,0.75,2.53,1.3c0.83,0.66,1.54,1.58,2.15,2.8
				C29.29,107.67,29.77,110.22,29.56,112.7z"/>
		</g>
		<g>
			<path d="M38.63,85.02c-2.56,0-5.16-1.42-6.61-3.71c-1.53-2.41-1.77-5.69-0.65-8.54c0.76-1.93,2.07-3.55,3.7-4.56
				c1.8-1.12,3.94-1.47,5.86-0.95l0,0c2.18,0.59,3.81,1.55,4.83,2.87c1.24,1.59,1.92,3.71,1.9,5.99c-0.01,1.55-0.33,2.88-0.97,3.96
				c-0.56,0.95-1.34,1.67-2.03,2.26c-1.74,1.48-3.3,2.3-4.9,2.58C39.4,84.99,39.01,85.02,38.63,85.02z M39.15,68.55
				c-1.12,0-2.28,0.33-3.28,0.95c-1.35,0.84-2.44,2.2-3.08,3.83c-0.95,2.41-0.75,5.16,0.52,7.17c1.34,2.13,3.9,3.33,6.21,2.92
				c1.32-0.23,2.65-0.94,4.17-2.24c0.59-0.5,1.26-1.12,1.7-1.87c0.5-0.84,0.75-1.92,0.76-3.19c0.01-1.93-0.55-3.72-1.58-5.04
				c-0.82-1.05-2.18-1.84-4.03-2.34l0,0C40.09,68.61,39.62,68.55,39.15,68.55z"/>
		</g>
		<g>
			<path d="M39.17,92.08c-5.59,0-11.3-3.36-13.89-8.63c-2.29-4.65-2.19-10.37,0.26-14.94c2.45-4.56,7.17-7.81,12.31-8.47l0,0
				c4.81-0.61,10.61,2.07,13.8,6.37c3.35,4.52,4.01,10.75,1.7,15.87c-1.18,2.63-3.12,4.97-5.6,6.79c-1.48,1.08-3.02,1.89-4.59,2.39
				C41.88,91.88,40.53,92.08,39.17,92.08z M39.29,61.48c-0.42,0-0.83,0.03-1.24,0.08l0,0c-4.66,0.6-8.94,3.54-11.16,7.68
				c-2.22,4.14-2.32,9.33-0.24,13.54c2.91,5.9,10.11,9.15,16.06,7.24c1.41-0.45,2.81-1.18,4.15-2.17c2.27-1.66,4.03-3.8,5.11-6.19
				c2.06-4.56,1.44-10.32-1.54-14.34C47.82,63.8,43.31,61.48,39.29,61.48z M37.95,60.8L37.95,60.8L37.95,60.8z"/>
		</g>
		<g>
			<g>
				<path class="st1" d="M70.76,74.57c-1.89-0.57-3.71-1.56-4.96-3.1c-1.74-2.14-2.16-5.17-1.45-7.84c0.71-2.67,2.44-4.98,4.55-6.76
					c-1.86-2.96-3.88-5.74-6-8.44c-2.57,1.9-5.03,3.7-7.88,3.84c-2.75,0.14-5.41-1.37-7.12-3.52c-1.71-2.16-2.56-4.89-2.9-7.62
					c-0.1-0.26-0.24-0.31-0.34-0.32c-2.88-0.21-5.77-0.43-8.65-0.64c-0.52,2.69-1.75,5.1-3.63,6.84c-1.88,1.74-4.44,2.78-7,2.7
					c-1.05-0.03-2.09-0.25-3.12-0.47c-1.68-0.37-3.47-0.82-4.65-2.07c-2.29,1.56-4.35,3.22-6.34,4.95c1.02,0.69,1.45,1.65,1.81,2.58
					c0.77,1.99,1.35,4.17,0.87,6.25c-0.5,2.15-2.12,3.93-4.06,4.99c-1.94,1.06-4.17,1.48-6.37,1.61c-0.61,3.15-0.91,6.52-1.01,9.9
					c1.88,0.67,3.66,1.24,5.27,2.18c1.6,0.93,3.04,2.27,3.75,3.98c0.8,1.93,0.61,4.18-0.23,6.09c-0.84,1.91-2.28,3.51-3.91,4.83
					c1.97,3.19,3.86,6.15,5.8,9.07c3-1.97,6.78-2.58,10.07-1.52c0.82,0.26,1.61,0.63,2.29,1.17c0.84,0.67,1.46,1.58,1.95,2.54
					c1.16,2.3,1.6,4.96,1.23,7.51c3.5,0.7,6.89,1.15,10.29,1.42c-0.21-3.54,1.32-7.09,4.12-9.03c2.8-1.94,6.79-2.07,9.61-0.15
					c1.33,0.91,2.36,2.2,3.35,3.47c3.07-2.17,6.1-4.38,8.94-6.82c-1.59-2.47-3.2-4.94-3.27-7.72c-0.07-2.9,1.68-5.66,4.11-7.24
					c2.43-1.57,5.47-2.05,8.35-1.75c0.99-3.37,1.83-6.66,2.53-9.98C74.64,75.34,72.65,75.14,70.76,74.57z M52.67,81.98
					c-1.17,2.58-3.07,4.81-5.35,6.49c-1.33,0.98-2.8,1.77-4.37,2.28c-6.44,2.06-13.99-1.56-16.98-7.63
					c-2.18-4.42-2.08-9.9,0.25-14.24c2.33-4.34,6.84-7.45,11.74-8.07c4.38-0.56,9.93,1.81,13.09,6.07
					C54.21,71.14,54.85,77.14,52.67,81.98z"/>
			</g>
		</g>
		<g>
			<g class="st2">
				<path d="M56.6,74.94c-0.07-0.5-0.17-1-0.29-1.49c-0.06-0.12-0.11-0.23-0.17-0.35c-0.91-1.8-2-3.5-3.24-5.09
					c-0.2,0.14-0.36,0.35-0.43,0.6c-0.13,0.85,0.54,1.64,0.75,2.45c0.75,2.24,1.25,3.32,1.01,5.36c0.03,0.78-1.26,5.11-1.67,5.66
					c-0.49,0.95-1.05,1.87-1.7,2.73c-0.2,0.24-0.26,0.34-0.23,0.35c-0.32,0.25-0.6,0.58-0.92,0.84c-0.67,0.57-1.34,1.15-2.02,1.71
					c-0.18,0.13-0.47,0.37-0.68,0.58c0.11-0.16-0.19,0.12-0.46,0.35c-0.15,0.1-0.82,0.56-1.16,0.73c-2.36,0.83-4.81,1.29-6.11,1.36
					c-1.73,0.16-3.43-0.28-4.76-0.59c-0.95-0.27-1.78-1.21-2.8-1.02c-0.44,0.11-0.73,0.44-0.85,0.83c0.1,0.11,0.2,0.21,0.3,0.31
					c0.35,0.28,0.69,0.57,1.04,0.85c1.26,0.82,2.53,1.65,3.8,2.46c2.1,0.61,4.35,0.73,7.03,0.22c-0.05,0-0.1,0.01-0.16,0.02
					c2.82-0.6,3.7-0.97,5.76-2.04c1.8-1.07,3.25-2.63,4.37-4.4c0.03-0.05,0.06-0.1,0.1-0.15c0-0.01,0.01-0.01,0.01-0.02
					c1.31-1.64,2.31-3.51,3.01-5.49C56.82,79.55,56.81,77.2,56.6,74.94z"/>
			</g>
		</g>
		<g class="st2">
			<path d="M63.46,98.01c-0.28,0.02-0.56,0.08-0.8,0.22c-0.36,0.2-0.59,0.53-0.82,0.86c-0.21,0.27-0.43,0.53-0.62,0.82
				c-0.56,0.72-0.72,1.03-1.96,2.29c-0.69,0.74-1.77,1.2-2.22,2.12c-0.01,0.02-0.01,0.03-0.02,0.05c-0.27,0.15-0.53,0.31-0.8,0.45
				c-0.5,0.31-1.15,0.46-1.5,0.96c-1.09,1.29,0.6,3.19,2.03,2.31c1.49-0.79,2.89-1.73,4.15-2.86c0.06-0.06,0.12-0.13,0.19-0.19
				c0.98-0.79,1.93-1.61,2.81-2.51c0.32-0.34,0.7-0.74,1.01-1.17c-0.33-0.66-0.61-1.34-0.87-2.02
				C63.82,98.91,63.63,98.46,63.46,98.01z"/>
		</g>
		<g class="st2">
			<path d="M73.18,75.35c-0.57,2.18-1.21,4.34-1.91,6.49c-0.32,0.99-0.64,2-0.96,3c0.38,0.47,1.03,0.74,1.63,0.55
				c0.03-0.01,0.06-0.03,0.09-0.04c0.52,0.73,1.88,0.64,2.14-0.38c0.13-0.47,0.33-0.94,0.49-1.41c0.1-0.05,0.21-0.11,0.3-0.19
				c0.62-0.45,0.79-1.3,1.02-1.99c0.34-1.4,0.53-2.84,0.59-4.27c0-0.08,0.01-0.17,0.02-0.26C75.43,76.37,74.3,75.87,73.18,75.35z"/>
		</g>
		<g>
			<path d="M39.01,115.49c-0.02,0-0.04,0-0.06,0c-3.6-0.28-6.99-0.75-10.38-1.43c-0.4-0.08-0.66-0.46-0.6-0.86
				c0.35-2.39-0.07-4.9-1.16-7.06c-0.51-1.02-1.08-1.77-1.74-2.29c-0.53-0.43-1.2-0.77-2.05-1.04c-3.03-0.98-6.55-0.45-9.41,1.43
				c-0.35,0.23-0.82,0.13-1.05-0.22c-1.91-2.88-3.82-5.86-5.81-9.09c-0.2-0.33-0.13-0.75,0.17-0.99c1.74-1.4,2.98-2.93,3.69-4.54
				c0.82-1.86,0.9-3.87,0.22-5.5c-0.74-1.77-2.27-2.94-3.43-3.62c-1.34-0.78-2.85-1.31-4.44-1.87l-0.7-0.25
				c-0.31-0.11-0.52-0.41-0.51-0.74c0.11-3.71,0.45-7.09,1.02-10.02c0.07-0.34,0.36-0.59,0.7-0.61c2.48-0.15,4.46-0.65,6.05-1.52
				c1.89-1.04,3.27-2.72,3.68-4.5c0.47-2.01-0.2-4.16-0.84-5.81c-0.33-0.85-0.69-1.66-1.52-2.23c-0.19-0.13-0.32-0.35-0.33-0.58
				c-0.01-0.23,0.08-0.46,0.26-0.62c2.29-2,4.33-3.59,6.41-5.01c0.31-0.21,0.72-0.17,0.98,0.11c1.02,1.07,2.6,1.49,4.26,1.85
				c1.06,0.23,2.01,0.43,2.98,0.46c2.31,0.07,4.66-0.84,6.46-2.5c1.72-1.59,2.89-3.81,3.4-6.42c0.07-0.38,0.41-0.64,0.8-0.61
				l8.65,0.64c0.46,0.03,0.82,0.33,1,0.81c0.02,0.06,0.03,0.11,0.04,0.17c0.37,2.98,1.3,5.42,2.74,7.24
				c1.68,2.11,4.16,3.35,6.49,3.23c2.66-0.14,5.1-1.95,7.47-3.7c0.33-0.25,0.8-0.18,1.05,0.14c2.37,3.04,4.35,5.82,6.04,8.5
				c0.2,0.32,0.14,0.74-0.15,0.99c-1.54,1.3-3.53,3.45-4.31,6.37c-0.69,2.58-0.19,5.33,1.3,7.16c1.03,1.27,2.61,2.25,4.59,2.85
				c1.82,0.55,3.72,0.74,5.83,0.91c0.22,0.02,0.42,0.13,0.55,0.3c0.13,0.18,0.18,0.4,0.14,0.61c-0.69,3.27-1.52,6.55-2.54,10.04
				c-0.1,0.35-0.44,0.58-0.81,0.54c-2.96-0.31-5.75,0.27-7.86,1.63c-2.34,1.51-3.82,4.09-3.76,6.58c0.06,2.53,1.53,4.82,3.09,7.25
				l0.05,0.08c0.21,0.32,0.14,0.74-0.14,0.99c-2.94,2.52-6.07,4.79-9,6.86c-0.33,0.23-0.79,0.17-1.04-0.15
				c-0.89-1.14-1.9-2.44-3.18-3.31c-2.49-1.7-6.17-1.63-8.74,0.15c-2.5,1.73-3.99,5.01-3.79,8.36c0.01,0.22-0.07,0.43-0.23,0.59
				C39.4,115.41,39.21,115.49,39.01,115.49z M29.56,112.7c2.84,0.54,5.69,0.94,8.68,1.2c0.05-3.6,1.72-6.93,4.47-8.83
				c3.13-2.16,7.43-2.23,10.47-0.15c1.24,0.85,2.24,2.01,3.07,3.06c2.56-1.82,5.24-3.78,7.79-5.93c-1.5-2.35-2.96-4.78-3.03-7.56
				c-0.07-3,1.68-6.1,4.46-7.89c2.24-1.45,5.13-2.12,8.2-1.92c0.85-2.93,1.56-5.72,2.16-8.48c-1.87-0.16-3.59-0.38-5.29-0.89
				c-2.27-0.69-4.11-1.85-5.33-3.35c-1.79-2.21-2.4-5.47-1.59-8.51c0.65-2.43,2.13-4.74,4.29-6.7c-1.49-2.32-3.14-4.65-5.15-7.24
				c-2.36,1.74-4.82,3.4-7.7,3.55c-2.81,0.15-5.78-1.32-7.76-3.81c-1.57-1.97-2.58-4.56-3.02-7.67l-7.67-0.57
				c-0.63,2.65-1.91,4.92-3.72,6.59c-2.09,1.93-4.84,3-7.54,2.9c-1.1-0.03-2.17-0.25-3.26-0.49c-1.62-0.35-3.29-0.79-4.56-1.84
				c-1.65,1.15-3.3,2.44-5.1,3.97c0.69,0.72,1.05,1.55,1.35,2.31c0.71,1.85,1.46,4.29,0.9,6.7c-0.52,2.23-2.13,4.23-4.43,5.49
				c-1.66,0.91-3.66,1.46-6.1,1.66c-0.46,2.57-0.75,5.47-0.87,8.65l0.17,0.06c1.66,0.58,3.23,1.14,4.7,1.99
				c1.36,0.79,3.17,2.19,4.07,4.35c0.84,2.01,0.75,4.45-0.23,6.69c-0.73,1.67-1.94,3.24-3.61,4.68c1.72,2.78,3.37,5.36,5.03,7.87
				c3.12-1.8,6.83-2.26,10.07-1.21c1.02,0.33,1.85,0.75,2.53,1.3c0.83,0.66,1.54,1.58,2.15,2.8
				C29.29,107.67,29.77,110.22,29.56,112.7z"/>
		</g>
		<g>
			<path d="M38.63,85.02c-2.56,0-5.16-1.42-6.61-3.71c-1.53-2.41-1.77-5.69-0.65-8.54c0.76-1.93,2.07-3.55,3.7-4.56
				c1.8-1.12,3.94-1.47,5.86-0.95l0,0c2.18,0.59,3.81,1.55,4.83,2.87c1.24,1.59,1.92,3.71,1.9,5.99c-0.01,1.55-0.33,2.88-0.97,3.96
				c-0.56,0.95-1.34,1.67-2.03,2.26c-1.74,1.48-3.3,2.3-4.9,2.58C39.4,84.99,39.01,85.02,38.63,85.02z M39.15,68.55
				c-1.12,0-2.28,0.33-3.28,0.95c-1.35,0.84-2.44,2.2-3.08,3.83c-0.95,2.41-0.75,5.16,0.52,7.17c1.34,2.13,3.9,3.33,6.21,2.92
				c1.32-0.23,2.65-0.94,4.17-2.24c0.59-0.5,1.26-1.12,1.7-1.87c0.5-0.84,0.75-1.92,0.76-3.19c0.01-1.93-0.55-3.72-1.58-5.04
				c-0.82-1.05-2.18-1.84-4.03-2.34l0,0C40.09,68.61,39.62,68.55,39.15,68.55z"/>
		</g>
		<g>
			<path d="M39.17,92.08c-5.59,0-11.3-3.36-13.89-8.63c-2.29-4.65-2.19-10.37,0.26-14.94c2.45-4.56,7.17-7.81,12.31-8.47l0,0
				c4.81-0.61,10.61,2.07,13.8,6.37c3.35,4.52,4.01,10.75,1.7,15.87c-1.18,2.63-3.12,4.97-5.6,6.79c-1.48,1.08-3.02,1.89-4.59,2.39
				C41.88,91.88,40.53,92.08,39.17,92.08z M39.29,61.48c-0.42,0-0.83,0.03-1.24,0.08l0,0c-4.66,0.6-8.94,3.54-11.16,7.68
				c-2.22,4.14-2.32,9.33-0.24,13.54c2.91,5.9,10.11,9.15,16.06,7.24c1.41-0.45,2.81-1.18,4.15-2.17c2.27-1.66,4.03-3.8,5.11-6.19
				c2.06-4.56,1.44-10.32-1.54-14.34C47.82,63.8,43.31,61.48,39.29,61.48z M37.95,60.8L37.95,60.8L37.95,60.8z"/>
		</g>
	</g>
	<g>
		<g>
			<path class="st0" d="M113.58,28.88l-1.67-5.49l3.52-4.95l-8.66-5.98c-1.12,1.82-2.23,3.63-3.35,5.45
				c-0.06,0.1-0.12,0.2-0.22,0.26c-0.13,0.08-0.29,0.09-0.45,0.08c-1.93-0.03-3.86-0.06-5.79-0.11c-0.95-1.8-1.87-3.51-2.91-5.15
				c-0.08-0.13-0.18-0.27-0.33-0.31c-0.15-0.04-0.3,0.05-0.43,0.13c-2.29,1.37-4.59,2.75-6.88,4.12c-0.06,0.04-0.12,0.07-0.16,0.13
				c-0.1,0.15-0.01,0.34,0.07,0.49c0.87,1.52,1.9,2.95,3.07,4.26c-1.04,1.9-2.13,3.67-3.32,5.37c-0.29,0.41-0.61,0.84-1.09,0.98
				c-0.4,0.12-0.83,0.01-1.23-0.1c-1.61-0.45-3.21-0.97-4.79-1.54c-1.35,3.17-1.6,6.78-0.72,10.11c0.13,0.25,6.12-0.6,6.12-0.6
				l3.57,6.17l-2.87,4.69l6.57,4.77l3.41-4.96l6.02,0.12l2.32,5.24l8.97-3.09l-2.17-5.37l3.23-5.21l6.09-0.49l0.19-7.39
				L113.58,28.88z M103.23,31.67c0.06,0.26-0.17,0.77-0.27,1.01c-0.09,0.21-0.18,0.4-0.3,0.59c-0.23,0.35-0.52,0.68-0.83,0.96
				c-0.64,0.59-1.36,1.02-2.18,1.33c-0.33,0.12-0.69,0.2-1.03,0.26c-0.31,0.05-0.59,0.08-0.9,0.05c-0.19-0.02-0.39-0.08-0.58-0.08
				c0.54,0-0.05,0.01-0.26-0.05c-0.92-0.26-1.83-1.01-2.28-1.85c-0.27-0.5-0.52-1.07-0.54-1.65c-0.02-0.52,0.12-1.06,0.32-1.54
				c0.29-0.69,0.62-1.38,1.05-1.99c0.48-0.69,1.08-1.41,1.85-1.79c0.78-0.39,1.62-0.45,2.37-0.16c0.31-0.14,0.67-0.19,0.97-0.08
				c0.56,0.21,1.04,0.48,1.42,0.94c0.38,0.46,0.64,0.9,0.86,1.46c0.07,0.17,0.13,0.35,0.17,0.53c0.03,0.1,0.04,0.21,0.06,0.32
				c0.02,0.17,0.05,0.33,0.07,0.5c0-0.04-0.01-0.07-0.01-0.11c-0.02-0.14-0.01-0.15,0.01-0.02c0.03,0.17,0.05,0.33,0.07,0.5
				c0.01,0.08,0.01,0.17,0.01,0.25C103.3,31.25,103.29,31.47,103.23,31.67z"/>
		</g>
		<g>
			<path d="M87.2,35.51c-0.02,0-0.05,0-0.07-0.01c-0.13-0.04-0.21-0.18-0.17-0.31c1.71-5.84,3.74-11.67,6.02-17.32
				c0.05-0.13,0.2-0.19,0.33-0.14c0.13,0.05,0.19,0.2,0.14,0.33c-2.27,5.63-4.29,11.44-6,17.27C87.41,35.43,87.31,35.51,87.2,35.51z
				"/>
		</g>
		<g>
			<path d="M89.83,36.45c-0.02,0-0.05,0-0.07-0.01c-0.13-0.04-0.21-0.18-0.17-0.31c1.58-5.52,3.68-10.93,6.22-16.08
				c0.06-0.13,0.21-0.18,0.34-0.12c0.13,0.06,0.18,0.21,0.12,0.34c-2.53,5.12-4.61,10.5-6.19,15.99
				C90.04,36.38,89.94,36.45,89.83,36.45z"/>
		</g>
		<g>
			<path d="M88.85,47.03c-0.03,0-0.07-0.01-0.1-0.02c-0.13-0.05-0.19-0.2-0.14-0.33l4.36-10.47c0.05-0.13,0.2-0.19,0.33-0.14
				c0.13,0.05,0.19,0.2,0.14,0.33l-4.36,10.47C89.04,46.97,88.95,47.03,88.85,47.03z"/>
		</g>
		<g>
			<path d="M94.57,44.78c-0.03,0-0.06-0.01-0.1-0.02c-0.13-0.05-0.19-0.2-0.14-0.33l2.43-6.01c0.05-0.13,0.2-0.19,0.33-0.14
				c0.13,0.05,0.19,0.2,0.14,0.33l-2.43,6.01C94.76,44.72,94.67,44.78,94.57,44.78z"/>
		</g>
		<g>
			<path d="M99.11,24.96c-0.03,0-0.05,0-0.08-0.01c-0.13-0.04-0.21-0.18-0.17-0.32l1.16-3.69c0.04-0.13,0.18-0.21,0.32-0.17
				c0.13,0.04,0.21,0.18,0.17,0.32l-1.16,3.69C99.32,24.89,99.22,24.96,99.11,24.96z"/>
		</g>
		<g>
			<path d="M103.7,25.93c-0.03,0-0.06,0-0.09-0.02c-0.13-0.05-0.2-0.2-0.15-0.33c1.19-3.16,2.55-6.3,4.06-9.33
				c0.06-0.13,0.22-0.18,0.34-0.11c0.13,0.06,0.18,0.21,0.11,0.34c-1.5,3.01-2.86,6.14-4.04,9.28
				C103.9,25.87,103.8,25.93,103.7,25.93z"/>
		</g>
		<g>
			<path d="M99.11,44.84c-0.04,0-0.07-0.01-0.11-0.02c-0.13-0.06-0.18-0.21-0.12-0.34l11.06-23.37c0.06-0.13,0.21-0.18,0.34-0.12
				c0.13,0.06,0.18,0.21,0.12,0.34L99.34,44.69C99.29,44.78,99.2,44.84,99.11,44.84z"/>
		</g>
		<g>
			<path d="M103.53,45.78c-0.04,0-0.07-0.01-0.11-0.02c-0.13-0.06-0.18-0.21-0.12-0.34l7.43-15.9c0.06-0.13,0.21-0.18,0.34-0.12
				c0.13,0.06,0.18,0.21,0.12,0.34l-7.43,15.9C103.72,45.73,103.63,45.78,103.53,45.78z"/>
		</g>
		<g>
			<path d="M111.45,37.83c-0.04,0-0.08-0.01-0.12-0.03c-0.12-0.07-0.17-0.22-0.1-0.35l3.27-5.91c0.07-0.12,0.22-0.17,0.35-0.1
				c0.12,0.07,0.17,0.22,0.1,0.35l-3.27,5.91C111.63,37.78,111.54,37.83,111.45,37.83z"/>
		</g>
		<g>
			<path d="M105.97,49c-0.04,0-0.08-0.01-0.11-0.03c-0.13-0.06-0.18-0.22-0.11-0.34l1.48-2.95c0.06-0.12,0.22-0.18,0.34-0.11
				c0.13,0.06,0.18,0.22,0.11,0.34l-1.48,2.95C106.15,48.95,106.06,49,105.97,49z"/>
		</g>
		<g>
			<path d="M80.98,34.13c-0.04,0-0.08-0.01-0.11-0.03c-0.13-0.06-0.18-0.21-0.12-0.34l2-4.11c0.06-0.13,0.21-0.18,0.34-0.12
				c0.13,0.06,0.18,0.21,0.12,0.34l-2,4.11C81.16,34.08,81.07,34.13,80.98,34.13z"/>
		</g>
		<g>
			<path d="M89.41,18.63c-0.04,0-0.08-0.01-0.12-0.03c-0.12-0.07-0.17-0.22-0.1-0.35l1.48-2.64c0.07-0.12,0.22-0.17,0.35-0.1
				c0.12,0.07,0.17,0.22,0.1,0.35l-1.48,2.64C89.59,18.59,89.5,18.63,89.41,18.63z"/>
		</g>
		<g class="st2">
			<path d="M105,32.77c-0.07-0.92-1.49-1.01-1.71-0.12c-0.28,0.87-0.17,0.72-1.11,1.61c-0.9,0.72-0.58,0.51-1.99,1.02
				c-1.31,0.39-0.78,0.31-1.89,0.31c-0.15-0.03-0.3-0.07-0.45-0.11c-0.54-0.2-0.37-0.1-1.4-0.67c-0.43-0.22-0.81-0.6-1.3-0.63
				c-1.5-0.27-2.23,1.89-0.91,2.63c2.35,1.6,4.71,2.32,7.4,1c1.39-0.75,2.39-2.03,2.9-3.51C104.75,33.82,105.04,33.3,105,32.77z"/>
		</g>
		<g class="st2">
			<path d="M109.05,47.61c-0.88,0.32-1.19,0.53-2.85,0.82c-0.79,0.25-1.74,0.12-2.41,0.63c-1.41,0.99-0.24,3.3,1.4,2.81
				c1.97-0.41,4.23-0.49,5.76-1.94C112.15,48.59,110.62,46.83,109.05,47.61z"/>
		</g>
		<g class="st2">
			<path d="M120.84,35.12c0-0.02,0.01-0.03,0.01-0.05C120.85,35.08,120.84,35.1,120.84,35.12c0.01-0.33-0.07-0.66-0.23-0.94
				c-0.68-1.27-2.68-1.06-3.15,0.25c-0.03,0.06-0.06,0.13-0.11,0.22c-0.13,0.26-0.22,0.53-0.32,0.79c-0.09,0.2-0.21,0.48-0.29,0.64
				c-0.17,0.29-0.25,0.61-0.26,0.95c0.02,2.16,3.09,2.57,3.68,0.5c0.3-0.67,0.54-1.36,0.63-2.08
				C120.82,35.33,120.84,35.23,120.84,35.12z"/>
		</g>
		<g>
			<path d="M103.31,52.73c-0.31,0-0.59-0.19-0.71-0.48c-0.63-1.55-1.28-3.16-2.25-4.72c-1.86,0.21-3.72,0.11-5.49-0.06
				c-0.52,0.92-1.02,1.86-1.55,2.84c-0.31,0.58-0.63,1.17-0.96,1.78c-0.18,0.34-0.59,0.48-0.94,0.35c-2.92-1.13-5.47-2.96-7.36-5.29
				c-0.22-0.27-0.23-0.65-0.02-0.93c0.98-1.34,1.97-2.71,3.04-4.36c-1.12-1.45-2.12-3.18-3.04-5.26c-0.4,0.08-0.81,0.17-1.22,0.25
				c-1.41,0.29-2.86,0.6-4.44,0.81c-0.38,0.05-0.74-0.18-0.84-0.55c-0.9-3.26-0.65-6.94,0.74-10.94c0.13-0.37,0.52-0.59,0.9-0.49
				c1.98,0.49,3.96,0.98,6.05,1.48c0.84-1.73,1.86-3.36,2.94-5.05c-0.96-1.26-2.03-2.74-2.99-4.45c-0.17-0.31-0.11-0.7,0.16-0.94
				c2.17-1.93,4.9-3.62,8.12-5c0.36-0.15,0.77-0.01,0.96,0.32c0.97,1.69,1.85,3.46,2.62,5.26c1.99-0.3,4-0.37,6.01-0.21
				c0.91-1.71,1.86-3.47,3.05-5.31c0.21-0.33,0.64-0.44,0.99-0.27c2.35,1.2,4.58,2.66,6.62,4.34c0.55,0.45,1.08,0.92,1.62,1.39
				c0.28,0.24,0.62,0.54,0.74,1.01c0.06,0.21,0.02,0.44-0.11,0.62c-0.46,0.68-0.94,1.35-1.43,2.03c-0.65,0.91-1.32,1.85-2.01,2.88
				c0.59,1.43,1.18,2.9,1.73,4.37c1.71,0.16,3.89,0.5,6.22,1.44c0.27,0.11,0.46,0.37,0.48,0.66c0.18,3.01-0.22,5.76-1.24,8.4
				c-0.12,0.3-0.39,0.51-0.74,0.49l-0.67-0.03c-1.5-0.06-3.05-0.12-4.71,0c-0.64,1.49-1.59,2.98-2.95,4.64
				c0.89,1.53,1.79,3.13,2.58,5.01c0.15,0.36,0,0.78-0.34,0.97c-3.1,1.65-6.29,2.66-9.48,2.99
				C103.37,52.73,103.34,52.73,103.31,52.73z M100.74,45.95c0.25,0,0.49,0.13,0.64,0.34c1.08,1.63,1.78,3.26,2.43,4.85
				c2.59-0.34,5.19-1.16,7.74-2.43c-0.77-1.7-1.63-3.19-2.47-4.64c-0.16-0.28-0.13-0.64,0.07-0.88c1.58-1.86,2.6-3.47,3.22-5.07
				c0.1-0.27,0.35-0.46,0.64-0.48c1.92-0.18,3.67-0.11,5.36-0.04l0.12,0c0.75-2.14,1.07-4.36,0.98-6.77
				c-2.2-0.82-4.25-1.07-5.81-1.2c-0.3-0.02-0.55-0.22-0.65-0.5c-0.63-1.73-1.34-3.46-2.03-5.14c-0.1-0.23-0.07-0.5,0.07-0.71
				c0.79-1.18,1.53-2.24,2.26-3.26c0.38-0.53,0.75-1.05,1.11-1.57c-0.03-0.02-0.05-0.05-0.07-0.07c-0.52-0.46-1.05-0.92-1.58-1.36
				c-1.78-1.47-3.7-2.75-5.73-3.84c-1.09,1.74-1.98,3.43-2.85,5.06c-0.14,0.27-0.43,0.44-0.75,0.4c-2.23-0.22-4.49-0.14-6.7,0.24
				c-0.35,0.06-0.7-0.13-0.83-0.46c-0.71-1.72-1.53-3.41-2.43-5.04c-2.57,1.16-4.79,2.53-6.62,4.06c0.94,1.59,1.97,2.97,2.88,4.15
				c0.2,0.25,0.21,0.61,0.04,0.88c-1.28,1.99-2.48,3.87-3.39,5.87c-0.15,0.33-0.52,0.51-0.87,0.43c-2.07-0.49-4.03-0.98-5.98-1.46
				c-1.01,3.18-1.23,6.11-0.65,8.72c1.27-0.2,2.48-0.45,3.66-0.69c0.62-0.13,1.23-0.25,1.84-0.37c0.35-0.07,0.71,0.12,0.85,0.45
				c1.02,2.42,2.13,4.34,3.4,5.9c0.21,0.25,0.23,0.61,0.06,0.89c-1.07,1.7-2.07,3.09-3.03,4.42c1.54,1.76,3.5,3.17,5.73,4.13
				c0.22-0.4,0.42-0.79,0.63-1.17c0.62-1.15,1.2-2.23,1.82-3.31c0.15-0.26,0.44-0.4,0.74-0.38c1.97,0.2,4.07,0.35,6.1,0.05
				C100.66,45.96,100.7,45.95,100.74,45.95z"/>
		</g>
		<g>
			<path d="M97.97,36.08c-0.82,0-1.66-0.17-2.43-0.5c-0.67-0.29-1.16-0.65-1.48-1.11c-0.44-0.62-0.55-1.36-0.6-1.93
				c-0.15-1.98,0.33-3.79,1.37-5.09c1.27-1.59,3.38-2.28,5.13-1.7c0.12,0.04,0.22,0.11,0.3,0.19c0.01,0,0.01,0,0.02,0
				c1.85,0.61,3.22,2.43,3.34,4.42c0.11,1.92-0.91,3.83-2.6,4.87C100.12,35.8,99.05,36.08,97.97,36.08z M98.69,27.07
				c-0.96,0-1.99,0.49-2.66,1.33c-0.8,1-1.17,2.42-1.04,4.02c0.03,0.37,0.09,0.84,0.32,1.16c0.16,0.23,0.44,0.42,0.85,0.6
				c1.33,0.58,2.89,0.49,4.08-0.24c1.2-0.74,1.95-2.14,1.87-3.48c-0.08-1.36-1.04-2.65-2.29-3.06l-0.14-0.04
				c-0.12-0.03-0.33-0.1-0.51-0.24C99,27.08,98.85,27.07,98.69,27.07z"/>
		</g>
		<g>
			<path d="M87.2,35.51c-0.02,0-0.05,0-0.07-0.01c-0.13-0.04-0.21-0.18-0.17-0.31c1.71-5.84,3.74-11.67,6.02-17.32
				c0.05-0.13,0.2-0.19,0.33-0.14c0.13,0.05,0.19,0.2,0.14,0.33c-2.27,5.63-4.29,11.44-6,17.27C87.41,35.43,87.31,35.51,87.2,35.51z
				"/>
		</g>
		<g>
			<path d="M89.83,36.45c-0.02,0-0.05,0-0.07-0.01c-0.13-0.04-0.21-0.18-0.17-0.31c1.58-5.52,3.68-10.93,6.22-16.08
				c0.06-0.13,0.21-0.18,0.34-0.12c0.13,0.06,0.18,0.21,0.12,0.34c-2.53,5.12-4.61,10.5-6.19,15.99
				C90.04,36.38,89.94,36.45,89.83,36.45z"/>
		</g>
		<g>
			<path d="M88.85,47.03c-0.03,0-0.07-0.01-0.1-0.02c-0.13-0.05-0.19-0.2-0.14-0.33l4.36-10.47c0.05-0.13,0.2-0.19,0.33-0.14
				c0.13,0.05,0.19,0.2,0.14,0.33l-4.36,10.47C89.04,46.97,88.95,47.03,88.85,47.03z"/>
		</g>
		<g>
			<path d="M94.57,44.78c-0.03,0-0.06-0.01-0.1-0.02c-0.13-0.05-0.19-0.2-0.14-0.33l2.43-6.01c0.05-0.13,0.2-0.19,0.33-0.14
				c0.13,0.05,0.19,0.2,0.14,0.33l-2.43,6.01C94.76,44.72,94.67,44.78,94.57,44.78z"/>
		</g>
		<g>
			<path d="M99.11,24.96c-0.03,0-0.05,0-0.08-0.01c-0.13-0.04-0.21-0.18-0.17-0.32l1.16-3.69c0.04-0.13,0.18-0.21,0.32-0.17
				c0.13,0.04,0.21,0.18,0.17,0.32l-1.16,3.69C99.32,24.89,99.22,24.96,99.11,24.96z"/>
		</g>
		<g>
			<path d="M103.7,25.93c-0.03,0-0.06,0-0.09-0.02c-0.13-0.05-0.2-0.2-0.15-0.33c1.19-3.16,2.55-6.3,4.06-9.33
				c0.06-0.13,0.22-0.18,0.34-0.11c0.13,0.06,0.18,0.21,0.11,0.34c-1.5,3.01-2.86,6.14-4.04,9.28
				C103.9,25.87,103.8,25.93,103.7,25.93z"/>
		</g>
		<g>
			<path d="M99.11,44.84c-0.04,0-0.07-0.01-0.11-0.02c-0.13-0.06-0.18-0.21-0.12-0.34l11.06-23.37c0.06-0.13,0.21-0.18,0.34-0.12
				c0.13,0.06,0.18,0.21,0.12,0.34L99.34,44.69C99.29,44.78,99.2,44.84,99.11,44.84z"/>
		</g>
		<g>
			<path d="M103.53,45.78c-0.04,0-0.07-0.01-0.11-0.02c-0.13-0.06-0.18-0.21-0.12-0.34l7.43-15.9c0.06-0.13,0.21-0.18,0.34-0.12
				c0.13,0.06,0.18,0.21,0.12,0.34l-7.43,15.9C103.72,45.73,103.63,45.78,103.53,45.78z"/>
		</g>
		<g>
			<path d="M111.45,37.83c-0.04,0-0.08-0.01-0.12-0.03c-0.12-0.07-0.17-0.22-0.1-0.35l3.27-5.91c0.07-0.12,0.22-0.17,0.35-0.1
				c0.12,0.07,0.17,0.22,0.1,0.35l-3.27,5.91C111.63,37.78,111.54,37.83,111.45,37.83z"/>
		</g>
		<g>
			<path d="M105.97,49c-0.04,0-0.08-0.01-0.11-0.03c-0.13-0.06-0.18-0.22-0.11-0.34l1.48-2.95c0.06-0.12,0.22-0.18,0.34-0.11
				c0.13,0.06,0.18,0.22,0.11,0.34l-1.48,2.95C106.15,48.95,106.06,49,105.97,49z"/>
		</g>
		<g>
			<path d="M80.98,34.13c-0.04,0-0.08-0.01-0.11-0.03c-0.13-0.06-0.18-0.21-0.12-0.34l2-4.11c0.06-0.13,0.21-0.18,0.34-0.12
				c0.13,0.06,0.18,0.21,0.12,0.34l-2,4.11C81.16,34.08,81.07,34.13,80.98,34.13z"/>
		</g>
		<g>
			<path d="M89.41,18.63c-0.04,0-0.08-0.01-0.12-0.03c-0.12-0.07-0.17-0.22-0.1-0.35l1.48-2.64c0.07-0.12,0.22-0.17,0.35-0.1
				c0.12,0.07,0.17,0.22,0.1,0.35l-1.48,2.64C89.59,18.59,89.5,18.63,89.41,18.63z"/>
		</g>
		<g class="st2">
			<path d="M105,32.77c-0.07-0.92-1.49-1.01-1.71-0.12c-0.28,0.87-0.17,0.72-1.11,1.61c-0.9,0.72-0.58,0.51-1.99,1.02
				c-1.31,0.39-0.78,0.31-1.89,0.31c-0.15-0.03-0.3-0.07-0.45-0.11c-0.54-0.2-0.37-0.1-1.4-0.67c-0.43-0.22-0.81-0.6-1.3-0.63
				c-1.5-0.27-2.23,1.89-0.91,2.63c2.35,1.6,4.71,2.32,7.4,1c1.39-0.75,2.39-2.03,2.9-3.51C104.75,33.82,105.04,33.3,105,32.77z"/>
		</g>
		<g class="st2">
			<path d="M109.05,47.61c-0.88,0.32-1.19,0.53-2.85,0.82c-0.79,0.25-1.74,0.12-2.41,0.63c-1.41,0.99-0.24,3.3,1.4,2.81
				c1.97-0.41,4.23-0.49,5.76-1.94C112.15,48.59,110.62,46.83,109.05,47.61z"/>
		</g>
		<g class="st2">
			<path d="M120.84,35.12c0-0.02,0.01-0.03,0.01-0.05C120.85,35.08,120.84,35.1,120.84,35.12c0.01-0.33-0.07-0.66-0.23-0.94
				c-0.68-1.27-2.68-1.06-3.15,0.25c-0.03,0.06-0.06,0.13-0.11,0.22c-0.13,0.26-0.22,0.53-0.32,0.79c-0.09,0.2-0.21,0.48-0.29,0.64
				c-0.17,0.29-0.25,0.61-0.26,0.95c0.02,2.16,3.09,2.57,3.68,0.5c0.3-0.67,0.54-1.36,0.63-2.08
				C120.82,35.33,120.84,35.23,120.84,35.12z"/>
		</g>
		<g>
			<path d="M103.31,52.73c-0.31,0-0.59-0.19-0.71-0.48c-0.63-1.55-1.28-3.16-2.25-4.72c-1.86,0.21-3.72,0.11-5.49-0.06
				c-0.52,0.92-1.02,1.86-1.55,2.84c-0.31,0.58-0.63,1.17-0.96,1.78c-0.18,0.34-0.59,0.48-0.94,0.35c-2.92-1.13-5.47-2.96-7.36-5.29
				c-0.22-0.27-0.23-0.65-0.02-0.93c0.98-1.34,1.97-2.71,3.04-4.36c-1.12-1.45-2.12-3.18-3.04-5.26c-0.4,0.08-0.81,0.17-1.22,0.25
				c-1.41,0.29-2.86,0.6-4.44,0.81c-0.38,0.05-0.74-0.18-0.84-0.55c-0.9-3.26-0.65-6.94,0.74-10.94c0.13-0.37,0.52-0.59,0.9-0.49
				c1.98,0.49,3.96,0.98,6.05,1.48c0.84-1.73,1.86-3.36,2.94-5.05c-0.96-1.26-2.03-2.74-2.99-4.45c-0.17-0.31-0.11-0.7,0.16-0.94
				c2.17-1.93,4.9-3.62,8.12-5c0.36-0.15,0.77-0.01,0.96,0.32c0.97,1.69,1.85,3.46,2.62,5.26c1.99-0.3,4-0.37,6.01-0.21
				c0.91-1.71,1.86-3.47,3.05-5.31c0.21-0.33,0.64-0.44,0.99-0.27c2.35,1.2,4.58,2.66,6.62,4.34c0.55,0.45,1.08,0.92,1.62,1.39
				c0.28,0.24,0.62,0.54,0.74,1.01c0.06,0.21,0.02,0.44-0.11,0.62c-0.46,0.68-0.94,1.35-1.43,2.03c-0.65,0.91-1.32,1.85-2.01,2.88
				c0.59,1.43,1.18,2.9,1.73,4.37c1.71,0.16,3.89,0.5,6.22,1.44c0.27,0.11,0.46,0.37,0.48,0.66c0.18,3.01-0.22,5.76-1.24,8.4
				c-0.12,0.3-0.39,0.51-0.74,0.49l-0.67-0.03c-1.5-0.06-3.05-0.12-4.71,0c-0.64,1.49-1.59,2.98-2.95,4.64
				c0.89,1.53,1.79,3.13,2.58,5.01c0.15,0.36,0,0.78-0.34,0.97c-3.1,1.65-6.29,2.66-9.48,2.99
				C103.37,52.73,103.34,52.73,103.31,52.73z M100.74,45.95c0.25,0,0.49,0.13,0.64,0.34c1.08,1.63,1.78,3.26,2.43,4.85
				c2.59-0.34,5.19-1.16,7.74-2.43c-0.77-1.7-1.63-3.19-2.47-4.64c-0.16-0.28-0.13-0.64,0.07-0.88c1.58-1.86,2.6-3.47,3.22-5.07
				c0.1-0.27,0.35-0.46,0.64-0.48c1.92-0.18,3.67-0.11,5.36-0.04l0.12,0c0.75-2.14,1.07-4.36,0.98-6.77
				c-2.2-0.82-4.25-1.07-5.81-1.2c-0.3-0.02-0.55-0.22-0.65-0.5c-0.63-1.73-1.34-3.46-2.03-5.14c-0.1-0.23-0.07-0.5,0.07-0.71
				c0.79-1.18,1.53-2.24,2.26-3.26c0.38-0.53,0.75-1.05,1.11-1.57c-0.03-0.02-0.05-0.05-0.07-0.07c-0.52-0.46-1.05-0.92-1.58-1.36
				c-1.78-1.47-3.7-2.75-5.73-3.84c-1.09,1.74-1.98,3.43-2.85,5.06c-0.14,0.27-0.43,0.44-0.75,0.4c-2.23-0.22-4.49-0.14-6.7,0.24
				c-0.35,0.06-0.7-0.13-0.83-0.46c-0.71-1.72-1.53-3.41-2.43-5.04c-2.57,1.16-4.79,2.53-6.62,4.06c0.94,1.59,1.97,2.97,2.88,4.15
				c0.2,0.25,0.21,0.61,0.04,0.88c-1.28,1.99-2.48,3.87-3.39,5.87c-0.15,0.33-0.52,0.51-0.87,0.43c-2.07-0.49-4.03-0.98-5.98-1.46
				c-1.01,3.18-1.23,6.11-0.65,8.72c1.27-0.2,2.48-0.45,3.66-0.69c0.62-0.13,1.23-0.25,1.84-0.37c0.35-0.07,0.71,0.12,0.85,0.45
				c1.02,2.42,2.13,4.34,3.4,5.9c0.21,0.25,0.23,0.61,0.06,0.89c-1.07,1.7-2.07,3.09-3.03,4.42c1.54,1.76,3.5,3.17,5.73,4.13
				c0.22-0.4,0.42-0.79,0.63-1.17c0.62-1.15,1.2-2.23,1.82-3.31c0.15-0.26,0.44-0.4,0.74-0.38c1.97,0.2,4.07,0.35,6.1,0.05
				C100.66,45.96,100.7,45.95,100.74,45.95z"/>
		</g>
		<g>
			<path d="M97.97,36.08c-0.82,0-1.66-0.17-2.43-0.5c-0.67-0.29-1.16-0.65-1.48-1.11c-0.44-0.62-0.55-1.36-0.6-1.93
				c-0.15-1.98,0.33-3.79,1.37-5.09c1.27-1.59,3.38-2.28,5.13-1.7c0.12,0.04,0.22,0.11,0.3,0.19c0.01,0,0.01,0,0.02,0
				c1.85,0.61,3.22,2.43,3.34,4.42c0.11,1.92-0.91,3.83-2.6,4.87C100.12,35.8,99.05,36.08,97.97,36.08z M98.69,27.07
				c-0.96,0-1.99,0.49-2.66,1.33c-0.8,1-1.17,2.42-1.04,4.02c0.03,0.37,0.09,0.84,0.32,1.16c0.16,0.23,0.44,0.42,0.85,0.6
				c1.33,0.58,2.89,0.49,4.08-0.24c1.2-0.74,1.95-2.14,1.87-3.48c-0.08-1.36-1.04-2.65-2.29-3.06l-0.14-0.04
				c-0.12-0.03-0.33-0.1-0.51-0.24C99,27.08,98.85,27.07,98.69,27.07z"/>
		</g>
	</g>
	<g>
		<g>
			<path class="st0" d="M152.37,106.62c-2.21-3.47-3.06-7.85-1.99-11.83c0.92-3.38,3.14-6.3,5.83-8.85
				c-3.15-4.7-6.62-9.18-10.4-13.39c-0.34-0.37-0.68-0.75-1.09-1.04c-0.64-0.46-1.47-0.76-2.27-1.32
				c-3.43,3.73-8.54,5.83-13.67,5.74c-6.66-0.83-12.64-5.71-14.92-12.08c-6.45,1.03-12.77,2.86-18.68,5.39
				c1.22,2.03,1.54,4.49,1.5,6.86c-0.04,2.56-0.48,5.16-1.59,7.46c-1.12,2.31-2.97,4.31-5.32,5.33c-1.36,0.59-2.85,0.83-4.32,0.96
				c-2.56,0.24-5.15,0.17-7.68-0.04c0,0-4.87,18.07-4.32,18.07c1.58,0.39,3.16,0.83,4.72,1.3c1.73,0.53,3.46,1.12,4.97,2.12
				c1.51,1,2.78,2.45,3.23,4.2c0.3,1.17,0.21,2.4,0.01,3.59c-0.73,4.31-2.97,8.34-6.25,11.23c0,0,12.06,11.97,12.26,11.85
				c1.37-2.03,3.64-3.23,5.81-4.35c0.92-0.47,1.84-0.95,2.82-1.26c3.57-1.14,7.66,0.03,10.4,2.58c2.74,2.55,4.19,6.31,4.4,10.11
				c4.28-0.24,8.56-0.56,12.82-0.99c1.87-0.18,3.8-0.41,5.54-1.79c-0.11-3.79,0.71-7.61,2.35-11.03c0.8-1.66,1.8-3.24,3.21-4.43
				c2.1-1.76,4.94-2.47,7.67-2.32c2.73,0.15,5.37,1.11,8.01,2.14c2.8-5.29,5.63-10.68,6.54-16.79
				C158.08,112.66,154.58,110.09,152.37,106.62z M131.76,107.76c-0.3,2.48-1.42,4.77-2.97,6.7c-0.78,0.97-1.69,1.8-2.69,2.54
				c-0.98,0.73-2.23,1.42-3.42,1.72c-1.28,0.32-2.72,0.18-4.02,0.18c-1.37,0-2.77-0.01-4.08-0.48c-1.25-0.44-2.32-1.25-3.27-2.16
				c-0.93-0.89-2.03-1.71-2.67-2.84c-2.51-4.44-1.78-10.33,1.21-14.35c1.6-2.15,3.85-3.78,6.22-5.01c2.55-1.33,5.55-1.8,8.33-0.99
				c0.85,0.25,1.15,0.99,1.04,1.67C129.99,97.11,132.36,102.75,131.76,107.76z"/>
		</g>
		<g>
			<g>
				<path class="st1" d="M131.45,89.98c-3.89-2.56-8.93-3.54-12.72-3.14c-6.57,0.71-11.43,4.05-14.88,9.69
					c-3.45,5.64-3.99,12.99-1.28,19.01c2.72,6.03,8.67,10.51,15.23,11.31c5.49,0.67,11.19-1.2,15.36-4.84
					c4.16-3.64,5.87-8.95,6.41-14.45C139.84,104.79,138.72,94.76,131.45,89.98z M124.01,118.89c-5.26,1.78-11.55-0.23-14.85-4.7
					c-0.98-1.32-1.71-2.84-1.98-4.46c-0.27-1.62-0.07-3.29,0.33-4.89c0.96-3.89,3.18-7.56,6.52-9.77c3.34-2.21,7.87-2.76,11.43-0.92
					c4.42,2.28,7.16,7.13,7.36,11.94C133.05,111.64,129.27,117.11,124.01,118.89z"/>
			</g>
		</g>
		<g class="st2">
			<path d="M140.85,105.49c-0.22-0.66-0.44-1.32-0.67-1.97c-0.43-1.23-0.93-2.43-1.32-3.67c-0.08,0-0.15,0.01-0.23,0.03
				c-1.35,0.6-0.62,1.58-0.58,2.81c0.14,1.21,0.41,2.4,0.57,3.6c0.15,1.21,0.19,2.44,0.1,3.66c-0.01,0.02-0.02,0.05-0.03,0.1
				c-0.18,0.68-0.49,1.31-0.67,1.99c-0.82,2.81-1.14,3.67-2.72,5.89c-0.1,0.12-0.25,0.32-0.35,0.47c-0.12,0.21-0.58,0.84-0.72,1.04
				c-0.04,0.05-0.07,0.09-0.09,0.11c-0.07,0.09-0.14,0.17-0.21,0.26c-0.2,0.29-1.2,1.29-1.2,1.33c-1.37,1.05-1.24,1.03-2.73,2.12
				c-1.11,0.74-2.3,1.37-3.5,1.94c-1.49,0.63-3.33,1.46-5.6,1.59c-1.78,0.03-3.56,0-5.33-0.2c-2.74-0.53-3.38-0.99-5.73-2.3
				c-0.71-0.4-1.39-1.27-2.27-1.11c-0.01,0-0.02,0.01-0.04,0.02c0.63,0.69,1.27,1.37,1.92,2.04c0.83,0.86,1.68,1.7,2.53,2.53
				c2.73,1.06,5.66,1.66,8.59,1.54c1.65-0.07,3.32-0.14,4.93-0.57c2.84-0.75,5.48-2.17,7.76-4.02c1.66-1.52,3.49-2.9,4.86-4.7
				c1.96-3.23,2.88-7.01,2.91-9.83C141.15,109.15,141.06,107.33,140.85,105.49z"/>
		</g>
		<g class="st2">
			<path d="M162.6,114.42c-0.21-0.86-1.47-1.03-1.9-0.25c-1.88,3.29-3.76,6.57-5.74,9.8c-0.82,1.3-1.88,2.47-2.47,3.9
				c-0.19,0.36-0.45,0.71-0.47,1.13c-0.25,1.22,1.25,2.19,2.29,1.53c0.4-0.21,0.58-0.61,0.78-0.98c0.17-0.17,0.34-0.35,0.47-0.55
				c1.92-2.8,2.87-6.14,4.5-9.11c0.81-1.55,1.63-3.11,2.43-4.66C162.63,114.98,162.67,114.68,162.6,114.42z"/>
		</g>
		<g class="st2">
			<path d="M131.98,143.41c-0.75-0.23-1.46,0.19-2.19,0.33c-4.84,1.34-8.09,1.41-13.64,1.23c-2.51,0.06-2.51,3.74,0,3.81
				c4.22,0.12,8.5,0.17,12.61-0.88c0.97-0.23,1.94-0.44,2.9-0.71c0.58-0.15,1.16-0.43,1.46-0.98
				C133.76,145.17,133.16,143.72,131.98,143.41z"/>
		</g>
		<g>
			<path d="M115.49,149.74c-0.4,0-0.74-0.31-0.76-0.72c-0.2-3.61-1.84-7.1-4.48-9.58c-1.1-1.03-2.85-2.3-4.93-2.5
				c-1.8-0.18-3.61,0.45-5.32,1.1c-2.67,1.03-5.37,2.33-7.06,4.91c-0.12,0.18-0.3,0.3-0.51,0.33c-0.21,0.04-0.42-0.02-0.59-0.15
				c-5.22-3.98-9.3-7.93-12.47-12.06c-0.25-0.32-0.2-0.79,0.12-1.05c3.15-2.61,5.38-6.41,6.11-10.44c0.29-1.58,0.27-2.8-0.07-3.85
				c-0.59-1.84-2.22-3.38-4.98-4.71c-2.49-1.2-5.22-2.04-8.1-2.49c-0.2-0.03-0.38-0.14-0.5-0.31c-0.12-0.17-0.17-0.37-0.13-0.57
				c1.03-6.14,2.77-12.34,5.18-18.42c0.15-0.38,0.58-0.57,0.96-0.44c3.26,1.16,11.41,1.27,14.72-2.68c5.5-6.55,2.89-14.05,1.96-16.2
				c-0.16-0.38,0-0.81,0.37-0.99c3.14-1.5,8.37-3.03,13.92-4.65c1.71-0.5,3.46-1.01,5.2-1.53c0.27-0.08,0.55-0.01,0.75,0.18
				c0.2,0.19,0.28,0.48,0.2,0.75c-0.32,1.16,2.7,6.93,7.43,9.36c10.84,5.55,17.72-1.39,19.57-3.65c0.14-0.17,0.34-0.27,0.55-0.28
				c0.21-0.01,0.43,0.07,0.58,0.23c5.31,5.38,9.82,10.72,13.77,16.33c0.24,0.34,0.16,0.81-0.18,1.06c-4.59,3.3-6.96,9.47-5.77,15
				c1.19,5.48,5.87,10.17,11.65,11.67c0.2,0.05,0.37,0.18,0.47,0.36c0.1,0.18,0.13,0.39,0.07,0.59c-1.84,6.21-4.48,12.27-7.63,17.53
				c-0.2,0.33-0.6,0.46-0.96,0.31c-4.15-1.79-8.18-3.3-11.9-2.02c-2.71,0.93-4.97,3.36-6.22,6.68c-0.95,2.52-1.25,5.26-1.57,8.15
				c-0.07,0.61-0.14,1.23-0.21,1.86c-0.04,0.32-0.28,0.59-0.6,0.65c-6.47,1.33-12.56,2.05-18.62,2.21
				C115.5,149.74,115.49,149.74,115.49,149.74z M104.7,135.39c0.25,0,0.51,0.01,0.76,0.04c1.99,0.19,4,1.2,5.83,2.9
				c2.75,2.57,4.51,6.13,4.9,9.86c5.57-0.19,11.17-0.86,17.1-2.05c0.05-0.44,0.1-0.87,0.15-1.3c0.33-3,0.65-5.83,1.66-8.52
				c1.41-3.74,4.01-6.5,7.15-7.58c4.02-1.38,8.3,0.07,12.38,1.8c2.81-4.81,5.19-10.27,6.92-15.88c-5.97-1.84-10.74-6.82-11.99-12.6
				c-1.27-5.86,1.09-12.36,5.76-16.1c-3.66-5.12-7.8-10.02-12.61-14.95c-2.36,2.56-9.84,9.06-20.88,3.4
				c-4.27-2.19-7.68-7.12-8.2-9.9c-1.43,0.43-2.86,0.84-4.27,1.25c-5.11,1.49-9.95,2.9-13.03,4.26c1.14,2.99,3.09,10.46-2.48,17.09
				c-3.58,4.27-11.67,4.45-15.69,3.35c-2.14,5.52-3.73,11.13-4.71,16.7c2.75,0.5,5.36,1.33,7.77,2.49c3.16,1.53,5.05,3.37,5.77,5.62
				c0.41,1.29,0.45,2.75,0.11,4.58c-0.75,4.13-2.95,8.04-6.08,10.85c2.9,3.65,6.55,7.17,11.12,10.73c1.92-2.5,4.64-3.8,7.32-4.83
				C101.03,136.02,102.84,135.39,104.7,135.39z"/>
		</g>
		<g>
			<path d="M119.35,120.3c-4.39,0-8.79-2.07-11.44-5.66c-1.11-1.51-1.85-3.17-2.12-4.79c-0.26-1.54-0.15-3.24,0.34-5.19
				c1.07-4.34,3.57-8.06,6.84-10.22c3.75-2.47,8.54-2.85,12.2-0.96c4.5,2.32,7.55,7.26,7.78,12.58c0.25,5.84-3.76,11.66-9.33,13.55
				C122.24,120.08,120.8,120.3,119.35,120.3z M120.07,93.8c-2.14,0-4.35,0.65-6.26,1.91c-2.96,1.95-5.22,5.35-6.2,9.32
				c-0.43,1.75-0.53,3.25-0.31,4.58c0.23,1.39,0.87,2.82,1.84,4.13c3.09,4.18,9.1,6.09,14,4.43c4.95-1.68,8.51-6.85,8.29-12.04
				c-0.2-4.79-2.93-9.22-6.95-11.29l0,0C123.14,94.14,121.62,93.8,120.07,93.8z"/>
		</g>
		<g>
			<path d="M119.38,127.75c-0.77,0-1.53-0.05-2.29-0.14c-6.77-0.83-12.98-5.44-15.83-11.75c-2.81-6.23-2.3-13.79,1.32-19.72
				c3.64-5.96,8.84-9.34,15.45-10.05c4.32-0.46,9.51,0.81,13.22,3.26c7.91,5.2,8.69,15.92,8.46,18.3
				c-0.66,6.72-2.84,11.61-6.66,14.95C129.24,125.9,124.27,127.75,119.38,127.75z M119.85,87.52c-0.57,0-1.12,0.03-1.67,0.09l0,0
				c-6.2,0.67-10.88,3.72-14.31,9.33c-3.37,5.51-3.84,12.52-1.23,18.3c2.63,5.84,8.38,10.1,14.63,10.87
				c5.18,0.63,10.7-1.11,14.77-4.66c3.52-3.07,5.53-7.64,6.15-13.95c0.29-2.95-1.02-12.44-7.78-16.88
				C127.43,88.66,123.45,87.52,119.85,87.52z M118.1,86.84L118.1,86.84L118.1,86.84z"/>
		</g>
		<g>
			<g>
				<path class="st1" d="M131.45,89.98c-3.89-2.56-8.93-3.54-12.72-3.14c-6.57,0.71-11.43,4.05-14.88,9.69
					c-3.45,5.64-3.99,12.99-1.28,19.01c2.72,6.03,8.67,10.51,15.23,11.31c5.49,0.67,11.19-1.2,15.36-4.84
					c4.16-3.64,5.87-8.95,6.41-14.45C139.84,104.79,138.72,94.76,131.45,89.98z M124.01,118.89c-5.26,1.78-11.55-0.23-14.85-4.7
					c-0.98-1.32-1.71-2.84-1.98-4.46c-0.27-1.62-0.07-3.29,0.33-4.89c0.96-3.89,3.18-7.56,6.52-9.77c3.34-2.21,7.87-2.76,11.43-0.92
					c4.42,2.28,7.16,7.13,7.36,11.94C133.05,111.64,129.27,117.11,124.01,118.89z"/>
			</g>
		</g>
		<g class="st2">
			<path d="M140.85,105.49c-0.22-0.66-0.44-1.32-0.67-1.97c-0.43-1.23-0.93-2.43-1.32-3.67c-0.08,0-0.15,0.01-0.23,0.03
				c-1.35,0.6-0.62,1.58-0.58,2.81c0.14,1.21,0.41,2.4,0.57,3.6c0.15,1.21,0.19,2.44,0.1,3.66c-0.01,0.02-0.02,0.05-0.03,0.1
				c-0.18,0.68-0.49,1.31-0.67,1.99c-0.82,2.81-1.14,3.67-2.72,5.89c-0.1,0.12-0.25,0.32-0.35,0.47c-0.12,0.21-0.58,0.84-0.72,1.04
				c-0.04,0.05-0.07,0.09-0.09,0.11c-0.07,0.09-0.14,0.17-0.21,0.26c-0.2,0.29-1.2,1.29-1.2,1.33c-1.37,1.05-1.24,1.03-2.73,2.12
				c-1.11,0.74-2.3,1.37-3.5,1.94c-1.49,0.63-3.33,1.46-5.6,1.59c-1.78,0.03-3.56,0-5.33-0.2c-2.74-0.53-3.38-0.99-5.73-2.3
				c-0.71-0.4-1.39-1.27-2.27-1.11c-0.01,0-0.02,0.01-0.04,0.02c0.63,0.69,1.27,1.37,1.92,2.04c0.83,0.86,1.68,1.7,2.53,2.53
				c2.73,1.06,5.66,1.66,8.59,1.54c1.65-0.07,3.32-0.14,4.93-0.57c2.84-0.75,5.48-2.17,7.76-4.02c1.66-1.52,3.49-2.9,4.86-4.7
				c1.96-3.23,2.88-7.01,2.91-9.83C141.15,109.15,141.06,107.33,140.85,105.49z"/>
		</g>
		<g class="st2">
			<path d="M162.6,114.42c-0.21-0.86-1.47-1.03-1.9-0.25c-1.88,3.29-3.76,6.57-5.74,9.8c-0.82,1.3-1.88,2.47-2.47,3.9
				c-0.19,0.36-0.45,0.71-0.47,1.13c-0.25,1.22,1.25,2.19,2.29,1.53c0.4-0.21,0.58-0.61,0.78-0.98c0.17-0.17,0.34-0.35,0.47-0.55
				c1.92-2.8,2.87-6.14,4.5-9.11c0.81-1.55,1.63-3.11,2.43-4.66C162.63,114.98,162.67,114.68,162.6,114.42z"/>
		</g>
		<g class="st2">
			<path d="M131.98,143.41c-0.75-0.23-1.46,0.19-2.19,0.33c-4.84,1.34-8.09,1.41-13.64,1.23c-2.51,0.06-2.51,3.74,0,3.81
				c4.22,0.12,8.5,0.17,12.61-0.88c0.97-0.23,1.94-0.44,2.9-0.71c0.58-0.15,1.16-0.43,1.46-0.98
				C133.76,145.17,133.16,143.72,131.98,143.41z"/>
		</g>
		<g>
			<path d="M115.49,149.74c-0.4,0-0.74-0.31-0.76-0.72c-0.2-3.61-1.84-7.1-4.48-9.58c-1.1-1.03-2.85-2.3-4.93-2.5
				c-1.8-0.18-3.61,0.45-5.32,1.1c-2.67,1.03-5.37,2.33-7.06,4.91c-0.12,0.18-0.3,0.3-0.51,0.33c-0.21,0.04-0.42-0.02-0.59-0.15
				c-5.22-3.98-9.3-7.93-12.47-12.06c-0.25-0.32-0.2-0.79,0.12-1.05c3.15-2.61,5.38-6.41,6.11-10.44c0.29-1.58,0.27-2.8-0.07-3.85
				c-0.59-1.84-2.22-3.38-4.98-4.71c-2.49-1.2-5.22-2.04-8.1-2.49c-0.2-0.03-0.38-0.14-0.5-0.31c-0.12-0.17-0.17-0.37-0.13-0.57
				c1.03-6.14,2.77-12.34,5.18-18.42c0.15-0.38,0.58-0.57,0.96-0.44c3.26,1.16,11.41,1.27,14.72-2.68c5.5-6.55,2.89-14.05,1.96-16.2
				c-0.16-0.38,0-0.81,0.37-0.99c3.14-1.5,8.37-3.03,13.92-4.65c1.71-0.5,3.46-1.01,5.2-1.53c0.27-0.08,0.55-0.01,0.75,0.18
				c0.2,0.19,0.28,0.48,0.2,0.75c-0.32,1.16,2.7,6.93,7.43,9.36c10.84,5.55,17.72-1.39,19.57-3.65c0.14-0.17,0.34-0.27,0.55-0.28
				c0.21-0.01,0.43,0.07,0.58,0.23c5.31,5.38,9.82,10.72,13.77,16.33c0.24,0.34,0.16,0.81-0.18,1.06c-4.59,3.3-6.96,9.47-5.77,15
				c1.19,5.48,5.87,10.17,11.65,11.67c0.2,0.05,0.37,0.18,0.47,0.36c0.1,0.18,0.13,0.39,0.07,0.59c-1.84,6.21-4.48,12.27-7.63,17.53
				c-0.2,0.33-0.6,0.46-0.96,0.31c-4.15-1.79-8.18-3.3-11.9-2.02c-2.71,0.93-4.97,3.36-6.22,6.68c-0.95,2.52-1.25,5.26-1.57,8.15
				c-0.07,0.61-0.14,1.23-0.21,1.86c-0.04,0.32-0.28,0.59-0.6,0.65c-6.47,1.33-12.56,2.05-18.62,2.21
				C115.5,149.74,115.49,149.74,115.49,149.74z M104.7,135.39c0.25,0,0.51,0.01,0.76,0.04c1.99,0.19,4,1.2,5.83,2.9
				c2.75,2.57,4.51,6.13,4.9,9.86c5.57-0.19,11.17-0.86,17.1-2.05c0.05-0.44,0.1-0.87,0.15-1.3c0.33-3,0.65-5.83,1.66-8.52
				c1.41-3.74,4.01-6.5,7.15-7.58c4.02-1.38,8.3,0.07,12.38,1.8c2.81-4.81,5.19-10.27,6.92-15.88c-5.97-1.84-10.74-6.82-11.99-12.6
				c-1.27-5.86,1.09-12.36,5.76-16.1c-3.66-5.12-7.8-10.02-12.61-14.95c-2.36,2.56-9.84,9.06-20.88,3.4
				c-4.27-2.19-7.68-7.12-8.2-9.9c-1.43,0.43-2.86,0.84-4.27,1.25c-5.11,1.49-9.95,2.9-13.03,4.26c1.14,2.99,3.09,10.46-2.48,17.09
				c-3.58,4.27-11.67,4.45-15.69,3.35c-2.14,5.52-3.73,11.13-4.71,16.7c2.75,0.5,5.36,1.33,7.77,2.49c3.16,1.53,5.05,3.37,5.77,5.62
				c0.41,1.29,0.45,2.75,0.11,4.58c-0.75,4.13-2.95,8.04-6.08,10.85c2.9,3.65,6.55,7.17,11.12,10.73c1.92-2.5,4.64-3.8,7.32-4.83
				C101.03,136.02,102.84,135.39,104.7,135.39z"/>
		</g>
		<g>
			<path d="M119.35,120.3c-4.39,0-8.79-2.07-11.44-5.66c-1.11-1.51-1.85-3.17-2.12-4.79c-0.26-1.54-0.15-3.24,0.34-5.19
				c1.07-4.34,3.57-8.06,6.84-10.22c3.75-2.47,8.54-2.85,12.2-0.96c4.5,2.32,7.55,7.26,7.78,12.58c0.25,5.84-3.76,11.66-9.33,13.55
				C122.24,120.08,120.8,120.3,119.35,120.3z M120.07,93.8c-2.14,0-4.35,0.65-6.26,1.91c-2.96,1.95-5.22,5.35-6.2,9.32
				c-0.43,1.75-0.53,3.25-0.31,4.58c0.23,1.39,0.87,2.82,1.84,4.13c3.09,4.18,9.1,6.09,14,4.43c4.95-1.68,8.51-6.85,8.29-12.04
				c-0.2-4.79-2.93-9.22-6.95-11.29l0,0C123.14,94.14,121.62,93.8,120.07,93.8z"/>
		</g>
		<g>
			<path d="M119.38,127.75c-0.77,0-1.53-0.05-2.29-0.14c-6.77-0.83-12.98-5.44-15.83-11.75c-2.81-6.23-2.3-13.79,1.32-19.72
				c3.64-5.96,8.84-9.34,15.45-10.05c4.32-0.46,9.51,0.81,13.22,3.26c7.91,5.2,8.69,15.92,8.46,18.3
				c-0.66,6.72-2.84,11.61-6.66,14.95C129.24,125.9,124.27,127.75,119.38,127.75z M119.85,87.52c-0.57,0-1.12,0.03-1.67,0.09l0,0
				c-6.2,0.67-10.88,3.72-14.31,9.33c-3.37,5.51-3.84,12.52-1.23,18.3c2.63,5.84,8.38,10.1,14.63,10.87
				c5.18,0.63,10.7-1.11,14.77-4.66c3.52-3.07,5.53-7.64,6.15-13.95c0.29-2.95-1.02-12.44-7.78-16.88
				C127.43,88.66,123.45,87.52,119.85,87.52z M118.1,86.84L118.1,86.84L118.1,86.84z"/>
		</g>
	</g>
	<g>
		<path d="M157.27,55.14c-0.03,0-0.05,0-0.08,0c-0.42-0.04-0.72-0.42-0.68-0.84c0.7-6.72-0.43-13.52-3.27-19.65
			c-0.18-0.38-0.01-0.83,0.37-1.01c0.38-0.18,0.83-0.01,1.01,0.37c2.95,6.38,4.13,13.45,3.4,20.45
			C157.98,54.85,157.65,55.14,157.27,55.14z"/>
	</g>
	<g>
		<path d="M51.18,153.58c-0.05,0-0.1,0-0.15-0.01c-7.72-1.52-14.99-5.47-20.47-11.11c-0.29-0.3-0.29-0.78,0.02-1.08
			c0.3-0.29,0.78-0.29,1.08,0.02c5.27,5.42,12.26,9.22,19.68,10.68c0.41,0.08,0.68,0.48,0.6,0.89
			C51.85,153.32,51.54,153.58,51.18,153.58z"/>
	</g>
</g>
</svg>
