<?xml version="1.0" encoding="utf-8"?>
<!-- Generator: Adobe Illustrator 26.3.1, SVG Export Plug-In . SVG Version: 6.00 Build 0)  -->
<svg version="1.1" id="Calque_1" xmlns="http://www.w3.org/2000/svg" xmlns:xlink="http://www.w3.org/1999/xlink" x="0px" y="0px"
	 viewBox="0 0 165 165" style="enable-background:new 0 0 165 165;" xml:space="preserve">
<style type="text/css">
	.st0{fill:#FFFFFF;}
	.st1{opacity:0.1294;}
	.st2{fill:#ACD4F7;}
</style>
<g>
	<g>
		<path class="st0" d="M44.84,48.26C34.83,60.1,28.59,75.18,27.83,90.67c-0.77,15.49,4.04,31.27,14.17,43.83
			c4.02,2.99,8.09,5.9,12.22,8.74c2.98,2.05,6,4.07,9.3,5.55c4.86,2.17,10.2,3.11,15.51,3.42c18.84,1.12,38.02-5.69,52-18.4
			c15.43-17.01,21.2-42.24,14.75-64.02c4.57-2.44,9.32-4.53,14.21-6.25c-0.84-0.85-2.03-1.23-3.17-1.58
			c-3.14-0.95-6.28-1.86-9.59-2.68c1.18-3.74,2.36-7.47,3.55-11.21c-0.47-0.43-1.21-0.22-1.81,0.01c-3.85,1.54-7.63,3.29-11.3,5.13
			c-5.72-6.48-12.36-12.15-19.78-16.57c4.88-7.12,9.77-14.24,14.65-21.36c-3.24,0.65-6.49,1.29-9.73,1.94
			c-0.27,0.05-0.56,0.1-0.8-0.03c-0.25-0.14-0.35-0.44-0.44-0.72c-1.1-3.71-1.66-7.57-1.69-11.44c-1.22,1.26-2.12,2.78-3.02,4.29
			c-3.32,5.57-6.64,11.14-9.96,16.71c-0.23,0.38-0.46,0.77-0.6,1.19c-0.47,1.35-0.02,2.82,0.36,4.15
			c-16.23-4.85-34.49-2.37-48.96,6.88c-3.27-5.06-6.42-10.19-9.45-15.4c-0.36,0.27-0.51,0.72-0.63,1.15
			c-0.99,3.38-1.8,6.82-2.19,10.53c-3.61-1.04-7.3-1.8-11.03-2.27c0.63,1.55,1.57,2.94,2.5,4.32C39.61,40.57,42.3,44.55,44.84,48.26
			z"/>
	</g>
	<g>
		<path d="M111.42,33.07c-0.13,0-0.25-0.09-0.28-0.22l-2.17-8.69c-0.04-0.15,0.06-0.31,0.21-0.35c0.16-0.04,0.31,0.06,0.35,0.21
			l2.17,8.69c0.04,0.15-0.06,0.31-0.21,0.35C111.47,33.06,111.45,33.07,111.42,33.07z"/>
	</g>
	<g>
		<path d="M113.78,28.7c-0.12,0-0.23-0.07-0.27-0.19l-2.68-7.34c-0.05-0.15,0.02-0.31,0.17-0.37c0.15-0.05,0.31,0.02,0.37,0.17
			l2.68,7.34c0.05,0.15-0.02,0.31-0.17,0.37C113.85,28.7,113.81,28.7,113.78,28.7z"/>
	</g>
	<g>
		<path d="M116.13,25.54c-0.11,0-0.22-0.07-0.27-0.18l-3.06-7.8c-0.06-0.15,0.02-0.32,0.16-0.37c0.15-0.06,0.32,0.02,0.37,0.16
			l3.06,7.8c0.06,0.15-0.02,0.32-0.16,0.37C116.2,25.54,116.16,25.54,116.13,25.54z"/>
	</g>
	<g>
		<path d="M118.24,22.63c-0.12,0-0.24-0.08-0.28-0.2c-0.99-3.25-1.83-6.17-2.65-8.99l-0.04-0.13c-0.04-0.15,0.04-0.31,0.2-0.36
			c0.15-0.05,0.31,0.04,0.36,0.2l0.04,0.13c0.79,2.74,1.61,5.58,2.56,8.72c3.65-1.01,7.39-1.75,11.15-2.2
			c0.16-0.02,0.3,0.09,0.32,0.25c0.02,0.16-0.09,0.3-0.25,0.32c-3.82,0.46-7.63,1.22-11.33,2.26
			C118.29,22.63,118.26,22.63,118.24,22.63z"/>
	</g>
	<g>
		<path d="M117.05,25.97c-0.14,0-0.26-0.1-0.28-0.24c-0.03-0.16,0.07-0.31,0.23-0.34c3.07-0.56,6.2-1.04,9.3-1.41
			c0.14-0.02,0.3,0.09,0.32,0.25c0.02,0.16-0.09,0.3-0.25,0.32c-3.09,0.37-6.2,0.84-9.26,1.4
			C117.08,25.97,117.07,25.97,117.05,25.97z"/>
	</g>
	<g>
		<path d="M114.86,29.47c-0.14,0-0.26-0.1-0.28-0.24c-0.03-0.16,0.08-0.3,0.23-0.33c3-0.52,6.07-0.86,9.11-1.01
			c0.18-0.02,0.29,0.11,0.3,0.27c0.01,0.16-0.11,0.29-0.27,0.3c-3.02,0.15-6.07,0.49-9.04,1C114.89,29.47,114.87,29.47,114.86,29.47
			z"/>
	</g>
	<g>
		<path d="M112.53,33.66c-0.13,0-0.26-0.1-0.28-0.23c-0.03-0.16,0.07-0.31,0.23-0.34c2.81-0.54,5.69-0.93,8.55-1.16
			c0.16-0.01,0.3,0.1,0.31,0.26c0.01,0.16-0.1,0.3-0.26,0.31c-2.84,0.23-5.69,0.62-8.48,1.15
			C112.57,33.66,112.55,33.66,112.53,33.66z"/>
	</g>
	<g>
		<path d="M71.5,87.6c-0.07,0-0.14-0.02-0.19-0.07c-0.12-0.11-0.13-0.29-0.02-0.41c4.78-5.38,10.11-10.32,15.85-14.66
			c0.13-0.1,0.31-0.07,0.4,0.06c0.1,0.13,0.07,0.31-0.06,0.4c-5.71,4.33-11.02,9.23-15.77,14.59C71.66,87.57,71.58,87.6,71.5,87.6z"
			/>
	</g>
	<g>
		<path d="M71.52,93.8c-0.07,0-0.14-0.02-0.19-0.07c-0.12-0.11-0.13-0.29-0.02-0.41c6.42-7.12,13.47-13.76,20.94-19.76
			c0.12-0.1,0.3-0.08,0.4,0.04c0.1,0.12,0.08,0.3-0.04,0.4c-7.46,5.97-14.48,12.6-20.88,19.69C71.67,93.77,71.59,93.8,71.52,93.8z"
			/>
	</g>
	<g>
		<path d="M73,98.5c-0.07,0-0.15-0.03-0.2-0.08c-0.11-0.11-0.11-0.29,0-0.41c7.26-7.35,14.81-14.62,22.42-21.59
			c0.12-0.11,0.3-0.1,0.41,0.02c0.11,0.12,0.1,0.3-0.02,0.41C88,83.81,80.46,91.06,73.2,98.41C73.14,98.47,73.07,98.5,73,98.5z"/>
	</g>
	<g>
		<path d="M76.65,102.8c-0.06,0-0.13-0.02-0.18-0.06c-0.12-0.1-0.15-0.28-0.05-0.4c2.59-3.26,5.37-6.44,8.25-9.42
			c0.11-0.11,0.29-0.12,0.41-0.01c0.11,0.11,0.12,0.29,0.01,0.41c-2.87,2.98-5.64,6.13-8.22,9.38
			C76.82,102.77,76.74,102.8,76.65,102.8z"/>
	</g>
	<g>
		<path d="M89.15,88.22c-0.07,0-0.15-0.03-0.2-0.08c-0.11-0.11-0.11-0.29,0-0.41l9.02-9.15c0.11-0.11,0.29-0.11,0.41,0
			c0.11,0.11,0.11,0.29,0,0.41l-9.02,9.15C89.29,88.2,89.22,88.22,89.15,88.22z"/>
	</g>
	<g>
		<path d="M81.31,105.24c-0.07,0-0.14-0.02-0.19-0.07c-0.12-0.11-0.13-0.29-0.03-0.41c4.47-5.05,9.25-9.94,14.2-14.53
			c0.12-0.11,0.3-0.1,0.41,0.02c0.11,0.12,0.1,0.3-0.02,0.41c-4.94,4.57-9.7,9.45-14.16,14.49
			C81.47,105.2,81.39,105.24,81.31,105.24z"/>
	</g>
	<g>
		<path d="M87.27,105.82c-0.07,0-0.14-0.02-0.19-0.07c-0.12-0.11-0.13-0.29-0.02-0.41c5.19-5.76,10.49-11.57,15.78-17.29
			c0.1-0.11,0.27-0.12,0.39-0.03c0.12,0.09,0.14,0.26,0.06,0.39l-0.34,0.5c-0.06,0.08-0.15,0.13-0.24,0.13
			c-5.1,5.52-10.23,11.14-15.23,16.69C87.43,105.79,87.35,105.82,87.27,105.82z"/>
	</g>
	<g>
		<path d="M94.5,104.68c-0.07,0-0.14-0.03-0.2-0.08c-0.11-0.11-0.12-0.29-0.01-0.41l6.86-7.14c0.11-0.11,0.29-0.12,0.41-0.01
			c0.11,0.11,0.12,0.29,0.01,0.41l-6.86,7.14C94.65,104.65,94.58,104.68,94.5,104.68z"/>
	</g>
	<g class="st1">
		<path d="M148.37,97.88c0.05-1.38,0.08-2.76,0.09-4.14c0.01-2.2-0.09-4.41-0.16-6.61c-0.06,0.25-0.11,0.48-0.16,0.7
			c-1.27,4.71-2.07,9.57-3.82,14.14c-0.99,3.21-5.33,11.1-6.86,13.61c-3.62,6.25-6.24,10.25-11.5,14.66
			c-3.53,2.83-6.08,4.6-10.26,7.3c-1.72,0.98-3.48,1.89-5.26,2.76c-0.05,0.02-0.09,0.04-0.13,0.06c-4.22,1.64-5.36,2.08-9.27,3.56
			c-4.03,1.35-8.69,2.28-10.68,2.48c0.27-0.04,0.55-0.07,0.82-0.11c-3.63,0.42-3.97,0.33-6.49,0.46c-1.81,0.06-1.51,0.15-4.52,0.07
			c-7.78-0.82-10.41-0.92-17-2.25c-2.8-0.6-5.83-1.04-7.29-2.06c-0.39-0.23-0.77-0.46-1.15-0.7c-1.68-0.45-3.33-0.99-4.94-1.62
			c-0.43,0.6-0.49,1.48,0.13,2.03c2.07,1.66,4.18,3.36,6.67,4.35c3.76,1.27,7.65,2.21,11.51,3.11c3.96,0.82,10.16,2.24,11.91,2.5
			c3.59,0.6,5.47,0.6,7.08,0.6c9.83-0.31,19.01-4.5,27.59-8.99c3.86-1.99,7.57-4.27,10.88-7.1c0.66-0.57,1.34-1.13,2.02-1.69
			c-0.62,0.79-1.25,1.64-1.85,2.57c-0.3,0.48-0.6,0.96-0.89,1.44c-0.01,0.02-0.02,0.03-0.03,0.05c-0.01,0.02-0.02,0.03-0.03,0.05
			c0,0,0.01-0.01,0.01-0.02c-0.17,0.27-0.27,0.59-0.27,0.91c0,0.19,0.03,0.37,0.1,0.55c0.84-0.67,1.68-1.34,2.5-2.04
			c3.92-3.31,7.58-6.96,10.5-11.2c2.97-4.32,5.11-9.12,7.26-13.88c0.23-0.85,0.45-1.71,0.66-2.57c0.68-2.79,1.34-5.58,1.95-8.38
			c0.2-0.9,0.38-1.81,0.56-2.72c-0.16-0.19-0.23-0.45-0.1-0.76C148.11,98.64,148.24,98.26,148.37,97.88z"/>
	</g>
	<g class="st1">
		<path d="M148.1,59.48c-0.73,0.03-1.32,0.59-2.01,0.81c-1.84,0.98-3.73,1.88-5.58,2.86c-2.29,1.53-4.65,2.93-7.18,4.01
			c-1.01,0.47-1.08,0.5-2.47,0.97c-0.43,0.18-0.96,0.15-1.33,0.45c-0.98,0.69-0.17,2.31,0.98,1.96c0.15-0.03,0.3-0.06,0.46-0.09
			c0.32,0.54,0.98,0.87,1.76,0.46c2.58-1.16,5.06-2.53,7.51-3.93c2.05-0.93,4.05-1.95,5.98-3.1c0.87-0.48,1.71-0.99,2.51-1.58
			c0.3-0.28,0.36-0.03,0.77-0.95C149.78,60.43,149.04,59.47,148.1,59.48z"/>
	</g>
	<g class="st1">
		<path d="M89.62,92.64c-0.66-0.83-0.46-0.42-0.82-0.79c-0.01-0.03-0.02-0.07-0.03-0.1c0-0.06,0-0.11,0-0.17
			c0.01-0.04,0.02-0.08,0.03-0.13c0.13-0.53,0.45-1.06,0.31-1.62c-0.17-1.9-3.03-2.08-3.49-0.24c-0.45,1.22-0.69,2.62-0.02,3.8
			c0.58,0.97,1.87,1.93,3.04,1.67C89.66,94.8,90.16,93.54,89.62,92.64z"/>
	</g>
	<g class="st1">
		<path d="M95.89,66.47c-0.18-0.59-0.63-1.08-1.24-1.24c-0.03-0.01-0.06-0.02-0.09-0.03c-0.12-0.05-0.28-0.12-0.43-0.16
			c-0.01,0-0.02-0.01-0.03-0.02c-0.05-0.05-0.1-0.1-0.15-0.15c-0.05-0.08-0.15-0.26-0.24-0.45c-0.29-0.74-0.49-1.55-1.23-1.97
			c-1.73-1.05-3.8,1.02-2.75,2.75c0.5,1.23,1.17,2.5,2.41,3.12C93.7,69.23,96.37,68.71,95.89,66.47z"/>
	</g>
	<g class="st1">
		<path d="M72.19,70.75c-0.21-2.1-3.31-2.29-3.84-0.26c-0.55,1.26-0.11,0.49-0.76,1.67c-0.11,0.11-0.21,0.23-0.33,0.33
			c-0.27,0.18-1.09,0.77-1.21,1.09c-1.22,2.14,1.59,4.31,3.34,2.58c1.12-0.92,1.9-2.16,2.36-3.53
			C71.95,72.02,72.35,71.41,72.19,70.75z"/>
	</g>
	<g class="st1">
		<path d="M121.87,17.04c-2.83,4.42-5.6,8.88-8.29,13.39c-0.86,1.42-1.79,2.8-2.65,4.22c-0.27,0.43-0.51,0.93-0.39,1.45
			c-0.31,0.05-0.6,0.21-0.84,0.49c0,0,0-0.01,0-0.01c-0.25,0.24-0.38,0.55-0.41,0.86c0,0.02,0,0.04-0.01,0.05
			c-0.05,0.65,0.31,1.32,0.97,1.54c0.03,0.01,0.05,0.02,0.08,0.03c0.01,0,0.02,0.01,0.03,0.01c0,0,0-0.01,0-0.01
			c0.53,0.17,1.15,0.06,1.57-0.36c0.44-0.51,0.53-1.03,0.42-1.46c0.14-0.03,0.28-0.08,0.41-0.16c0.37-0.2,0.56-0.58,0.77-0.93
			c0.42-0.71,0.91-1.37,1.35-2.07c3.42-5.23,6.87-10.54,9.57-16.15C124.72,16.46,122.6,15.73,121.87,17.04z"/>
	</g>
	<g>
		<path d="M137.93,54.36c-0.26,0-0.52-0.12-0.69-0.35c-1.76-2.34-3.76-4.61-5.97-6.72c-3.96-3.8-8.77-7.32-13.91-10.18
			c-0.42-0.23-0.57-0.76-0.33-1.17c0.23-0.42,0.76-0.57,1.17-0.33c5.27,2.94,10.2,6.55,14.27,10.45c2.27,2.18,4.34,4.51,6.15,6.93
			c0.29,0.38,0.21,0.92-0.17,1.21C138.29,54.31,138.11,54.36,137.93,54.36z"/>
	</g>
	<g>
		<path d="M83.35,153.03c-5.06,0-9.95-0.6-14.46-1.82c-18.7-5.08-33.98-19.48-38.91-36.69c-1.94-6.75-2.31-13.67-2.41-18.95
			c-0.12-6.07,0.15-10.98,0.84-15.45c1.88-12.04,7.39-23.24,15.93-32.4c0.32-0.35,0.87-0.37,1.22-0.04
			c0.35,0.32,0.37,0.87,0.04,1.22c-8.3,8.91-13.66,19.79-15.48,31.49c-0.68,4.36-0.94,9.18-0.82,15.15
			c0.1,5.17,0.46,11.94,2.35,18.5c4.77,16.64,19.58,30.58,37.71,35.5c26.69,7.25,66.01-8.36,73.84-36.91l0.18-0.65
			c2.24-8.13,6.89-25.06,1.85-42.11c-0.14-0.46,0.13-0.94,0.58-1.07c0.46-0.13,0.94,0.13,1.07,0.58
			c5.19,17.52,0.44,34.77-1.84,43.05l-0.18,0.65c-3.73,13.62-14.94,25.64-30.75,32.98C104.23,150.64,93.44,153.03,83.35,153.03z"/>
	</g>
	<g>
		<path d="M57.39,38.86c-0.29,0-0.57-0.15-0.74-0.41c-0.25-0.41-0.12-0.94,0.29-1.19c11.56-7.06,25.26-10.19,38.6-8.79
			c3.04-0.1,6.98,0.62,11.39,2.1c0.45,0.15,0.69,0.64,0.54,1.09c-0.15,0.45-0.64,0.7-1.09,0.54c-4.18-1.4-8.02-2.11-10.83-2.01
			c-0.04,0-0.08,0-0.12,0c-12.98-1.37-26.33,1.67-37.58,8.54C57.7,38.82,57.54,38.86,57.39,38.86z"/>
	</g>
	<g>
		<path d="M108.07,40.2c-0.18,0-0.36-0.06-0.51-0.17c-0.18-0.14-0.31-0.34-0.34-0.56c-0.58-3.82-1.22-7.68-1.91-11.48
			c-0.04-0.2,0-0.42,0.11-0.59c2.25-3.76,4.47-7.45,6.66-11.09c2.48-4.11,4.91-8.16,7.29-12.16c0.2-0.34,0.6-0.5,0.97-0.39
			c0.38,0.11,0.63,0.45,0.63,0.84c-0.04,4.14,0.35,7.97,1.18,11.38c2.62-0.39,5.25-0.91,7.8-1.41c1-0.2,1.99-0.39,2.98-0.58
			c0.34-0.06,0.69,0.08,0.88,0.37c0.19,0.29,0.19,0.67,0,0.96c-4.72,7.03-9.6,14.29-14.98,21.62c-0.09,0.13-0.22,0.23-0.36,0.29
			c-3.57,1.49-6.93,2.46-10.27,2.97C108.16,40.2,108.11,40.2,108.07,40.2z M107.07,28c0.61,3.43,1.19,6.9,1.72,10.35
			c2.86-0.51,5.75-1.37,8.8-2.63c4.86-6.63,9.33-13.23,13.64-19.64c-0.31,0.06-0.63,0.12-0.94,0.18c-2.82,0.56-5.74,1.13-8.66,1.54
			c-0.44,0.06-0.84-0.21-0.95-0.63c-0.77-2.9-1.23-6.1-1.37-9.53c-1.89,3.15-3.8,6.33-5.74,9.56
			C111.42,20.74,109.26,24.33,107.07,28z"/>
	</g>
	<g>
		<path d="M138.77,73.87c-0.09,0-0.18-0.01-0.26-0.04c-1.57-0.5-3.37-0.94-5.11-1.37c-2.82-0.7-5.26-1.3-6.6-2.05
			c-0.39-0.22-0.55-0.7-0.37-1.11c1.51-3.34,2.33-6.23,3.38-11.88c0.05-0.26,0.21-0.48,0.44-0.6c1.89-1.01,3.79-2.06,5.71-3.11
			c4.65-2.56,9.46-5.2,14.49-7.56c0.3-0.14,0.66-0.1,0.92,0.12c0.26,0.22,0.37,0.56,0.28,0.89c-1.05,3.85-2.12,7.8-3.3,11.66
			c4.68,0.9,8.6,2.07,12.28,3.68c0.31,0.14,0.51,0.44,0.52,0.78c0.01,0.34-0.19,0.65-0.49,0.79c-2.83,1.34-6.28,2.82-9.63,4.25
			c-4.91,2.1-9.54,4.08-11.81,5.44C139.08,73.83,138.93,73.87,138.77,73.87z M128.36,69.23c1.29,0.52,3.33,1.02,5.47,1.55
			c1.63,0.4,3.32,0.82,4.84,1.29c2.46-1.41,6.95-3.33,11.69-5.35c2.65-1.13,5.37-2.3,7.79-3.39c-3.29-1.28-6.85-2.24-11.04-3
			c-0.24-0.04-0.46-0.19-0.58-0.4c-0.13-0.21-0.16-0.47-0.09-0.7c1.1-3.52,2.11-7.15,3.08-10.71c-4.37,2.13-8.59,4.45-12.69,6.7
			c-1.8,0.99-3.59,1.97-5.36,2.93C130.48,63.25,129.68,66.14,128.36,69.23z"/>
	</g>
	<g>
		<g>
			<path class="st2" d="M117.61,61.54c-7.86-8.76-21.75-13.8-27.87-13.68c-15.81,0.32-30.15,6.25-37.89,20.03
				c-2.19,3.89-3.68,8.15-4.79,12.48c-3.1,12.11-2.92,25.93,4.49,36.01c1.69,2.29,3.71,4.33,5.9,6.15
				c10.16,8.43,24.3,11.88,37.19,9.02c12.9-2.86,24.26-11.98,29.8-23.97C131.31,92.67,128.59,73.76,117.61,61.54z M102.18,100.99
				c-5.5,7.59-16.87,10.27-25.07,5.73c-8.2-4.54-11.93-15.84-7.82-24.26c3.66-7.5,12.45-13.05,20.69-11.7
				c2.16,0.35,6.34,2.23,9.58,4.98C106.64,81.78,107.64,93.47,102.18,100.99z"/>
		</g>
	</g>
	<g>
		<path d="M56.3,51.63c-0.02,0-0.04,0-0.06,0c-3.66-0.25-7.99-0.76-10.53-1.25c-0.21-0.04-0.4-0.16-0.53-0.33
			c-4.62-6.25-8.44-11.91-11.67-17.29c-0.18-0.31-0.16-0.69,0.06-0.98c0.22-0.28,0.59-0.4,0.93-0.29c3.81,1.18,7.25,1.78,10.48,1.85
			c0.34-4.22,1.15-8.02,2.39-11.32c0.12-0.32,0.42-0.54,0.76-0.56c0.36-0.01,0.66,0.17,0.82,0.48c3.78,7.64,6.98,12.99,10.36,17.35
			c0.15,0.2,0.21,0.45,0.16,0.7c-0.73,3.66-1.49,7.45-2.35,10.99C57.04,51.36,56.69,51.63,56.3,51.63z M46.36,48.74
			c2.34,0.42,6,0.86,9.27,1.11c0.75-3.18,1.43-6.55,2.09-9.83c-3.09-4.03-6.03-8.88-9.38-15.48c-0.89,2.9-1.45,6.15-1.69,9.71
			c-0.03,0.45-0.4,0.8-0.85,0.8c-3.05,0.02-6.2-0.41-9.66-1.31C39.03,38.44,42.39,43.37,46.36,48.74z M45.78,34.2L45.78,34.2
			L45.78,34.2z"/>
	</g>
	<g>
		<path d="M85.62,133.84c-10.33,0-20.75-3.61-28.7-10.2c-2.39-1.98-4.42-4.11-6.04-6.31c-9.06-12.32-6.79-28.3-4.63-36.73
			c1.27-4.96,2.87-9.11,4.88-12.68c7.22-12.84,20.94-20.11,38.63-20.47l0,0c6.57-0.12,20.58,5.11,28.53,13.96
			c11.14,12.41,14,31.72,6.96,46.98c-5.62,12.17-17.27,21.54-30.39,24.45C91.83,133.51,88.73,133.84,85.62,133.84z M89.79,49.17
			c-17.06,0.35-30.25,7.31-37.16,19.59c-1.94,3.45-3.48,7.46-4.71,12.27c-2.09,8.14-4.29,23.54,4.34,35.28
			c1.54,2.09,3.47,4.11,5.75,6c9.93,8.24,23.9,11.63,36.45,8.84c12.61-2.8,23.8-11.8,29.2-23.49c6.76-14.64,4.02-33.19-6.68-45.1
			c-7.42-8.26-20.81-13.39-26.99-13.39C89.94,49.17,89.87,49.17,89.79,49.17L89.79,49.17z M89.78,48.31L89.78,48.31L89.78,48.31z"/>
	</g>
	<g>
		<path d="M86.1,110.28c-3.25,0-6.49-0.76-9.37-2.36c-8.62-4.78-12.44-16.64-8.18-25.39c4.05-8.29,13.33-13.52,21.61-12.17
			c2.34,0.38,6.64,2.33,9.99,5.18c7.35,6.25,8.61,18.34,2.76,26.41C99.03,107.3,92.54,110.28,86.1,110.28z M87.57,71.88
			c-6.84,0-14.18,4.66-17.47,11.41c-3.89,7.97-0.4,18.78,7.46,23.13c7.73,4.28,18.7,1.77,23.96-5.48
			c5.25-7.24,4.09-18.49-2.49-24.08c-3.3-2.81-7.34-4.49-9.16-4.79c0,0,0,0,0,0C89.12,71.94,88.35,71.88,87.57,71.88z"/>
	</g>
	<g>
		<path d="M92.97,66.61c-0.15,0-0.3-0.04-0.44-0.12c-0.41-0.24-0.55-0.77-0.31-1.18L125.29,8.8c0.24-0.41,0.77-0.55,1.18-0.31
			c0.41,0.24,0.55,0.77,0.31,1.18L93.71,66.19C93.55,66.46,93.27,66.61,92.97,66.61z"/>
	</g>
	<g>
		<path d="M87.93,92.13c-0.31,0-0.61-0.17-0.76-0.46c-0.22-0.42-0.06-0.94,0.36-1.16c22.55-11.86,45.25-24.18,67.46-36.62
			c0.42-0.23,0.94-0.08,1.17,0.33c0.23,0.42,0.08,0.94-0.33,1.17c-22.23,12.45-44.94,24.77-67.5,36.64
			C88.2,92.09,88.06,92.13,87.93,92.13z"/>
	</g>
	<g>
		<path d="M68.33,73.87c-0.31,0-0.62-0.17-0.77-0.47C60.11,58.82,51.64,44.58,42.4,31.07c-0.27-0.39-0.17-0.93,0.23-1.2
			c0.39-0.27,0.93-0.17,1.2,0.23c9.28,13.57,17.79,27.88,25.27,42.52c0.22,0.42,0.05,0.94-0.38,1.16
			C68.6,73.84,68.46,73.87,68.33,73.87z"/>
	</g>
	<g>
		<path d="M24.65,127.59c-0.34,0-0.66-0.2-0.8-0.54c-4.78-11.75-7.82-24.11-9.04-36.74c-0.05-0.47,0.3-0.9,0.78-0.94
			c0.47-0.05,0.9,0.3,0.94,0.78c1.2,12.46,4.21,24.66,8.92,36.25c0.18,0.44-0.03,0.94-0.47,1.12
			C24.87,127.57,24.76,127.59,24.65,127.59z"/>
	</g>
	<g>
		<path d="M10.92,132.15c-0.36,0-0.69-0.22-0.81-0.58l-6.53-18.66c-0.16-0.45,0.08-0.94,0.53-1.1c0.45-0.16,0.94,0.08,1.1,0.53
			L11.74,131c0.16,0.45-0.08,0.94-0.53,1.1C11.11,132.14,11.02,132.15,10.92,132.15z"/>
	</g>
</g>
</svg>
