<?xml version="1.0" encoding="utf-8"?>
<!-- Generator: Adobe Illustrator 26.3.1, SVG Export Plug-In . SVG Version: 6.00 Build 0)  -->
<svg version="1.1" id="Calque_1" xmlns="http://www.w3.org/2000/svg" xmlns:xlink="http://www.w3.org/1999/xlink" x="0px" y="0px"
	 viewBox="0 0 165 165" style="enable-background:new 0 0 165 165;" xml:space="preserve">
<style type="text/css">
	.st0{fill:#FFFFFF;}
	.st1{opacity:0.1294;}
	.st2{fill:#ACD4F7;}
</style>
<g>
	<g>
		<g>
			<path d="M38.48,118.57c-0.17,0-0.34-0.06-0.48-0.17c-7.72-6.28-12.31-15.97-12.27-25.92c0-0.42,0.34-0.76,0.76-0.76c0,0,0,0,0,0
				c0.42,0,0.76,0.34,0.76,0.76c-0.04,9.5,4.34,18.74,11.71,24.73c0.33,0.27,0.38,0.74,0.11,1.07
				C38.92,118.47,38.7,118.57,38.48,118.57z"/>
		</g>
		<g>
			<path d="M38.5,118.99c-0.05,0-0.11-0.01-0.16-0.02c-2.84-0.61-5.65-1.45-8.35-2.51c-0.39-0.15-0.59-0.6-0.43-0.99
				c0.15-0.39,0.59-0.58,0.99-0.43c2.31,0.9,4.7,1.65,7.12,2.21c-0.2-2.25-0.68-4.47-1.42-6.61c-0.14-0.4,0.07-0.83,0.47-0.97
				c0.4-0.14,0.83,0.07,0.97,0.47c0.89,2.59,1.42,5.29,1.57,8.03c0.01,0.24-0.09,0.47-0.27,0.62
				C38.85,118.93,38.68,118.99,38.5,118.99z"/>
		</g>
	</g>
	<g>
		<g>
			<path d="M115.71,133.89c-0.29,0-0.57-0.17-0.7-0.45c-0.17-0.38,0-0.83,0.39-1.01c9.09-4.06,16.09-12.62,18.25-22.33
				c0.09-0.41,0.5-0.67,0.91-0.58c0.41,0.09,0.67,0.5,0.58,0.91c-2.27,10.18-9.6,19.14-19.12,23.39
				C115.92,133.87,115.81,133.89,115.71,133.89z"/>
		</g>
		<g>
			<path d="M135.76,117.52C135.76,117.52,135.76,117.52,135.76,117.52c-0.42,0-0.76-0.34-0.76-0.76c0-1.84-0.25-3.66-0.76-5.42
				c-1.46,1.22-3.02,2.31-4.65,3.27c-0.36,0.21-0.83,0.09-1.04-0.27c-0.21-0.36-0.09-0.83,0.27-1.04c1.88-1.1,3.66-2.39,5.28-3.85
				c0.19-0.17,0.45-0.23,0.7-0.17c0.25,0.06,0.45,0.24,0.53,0.48c0.8,2.26,1.2,4.61,1.2,7.01
				C136.52,117.18,136.18,117.52,135.76,117.52z"/>
		</g>
	</g>
	<g>
		<g>
			<path d="M81.51,26.28c-0.24,0-0.48-0.12-0.63-0.34c-0.24-0.35-0.14-0.82,0.2-1.06c7.84-5.29,18.4-6.04,26.91-1.9
				c0.38,0.18,0.54,0.64,0.35,1.02c-0.18,0.38-0.64,0.54-1.02,0.35c-8.03-3.9-17.99-3.2-25.39,1.8
				C81.8,26.24,81.65,26.28,81.51,26.28z"/>
		</g>
		<g>
			<path d="M88.02,26.7c-0.02,0-0.05,0-0.07,0c-2.26-0.21-4.55-0.28-6.82-0.22c-0.29,0.01-0.56-0.15-0.7-0.41
				c-0.13-0.26-0.11-0.57,0.07-0.81l4.12-5.51c0.25-0.34,0.73-0.41,1.07-0.15c0.34,0.25,0.41,0.73,0.15,1.07l-3.2,4.27
				c1.81-0.02,3.64,0.08,5.44,0.25c0.42,0.04,0.73,0.41,0.69,0.83C88.74,26.41,88.41,26.7,88.02,26.7z"/>
		</g>
	</g>
	<g>
		<path d="M113.18,16.73c-0.14,0-0.27-0.04-0.4-0.11c-5.39-3.33-11.85-5.16-18.19-5.16c-0.01,0-0.01,0-0.02,0h0
			c-0.42,0-0.76-0.34-0.76-0.76c0-0.42,0.34-0.76,0.76-0.76c0.01,0,0.02,0,0.02,0c6.71,0,13.28,1.86,18.99,5.38
			c0.36,0.22,0.47,0.69,0.25,1.05C113.68,16.6,113.43,16.73,113.18,16.73z"/>
	</g>
	<g>
		<path d="M120.7,144.79c-0.27,0-0.53-0.14-0.67-0.4c-0.2-0.37-0.06-0.83,0.31-1.03c5.51-2.98,10.27-7.61,13.4-13.05
			c0.21-0.37,0.68-0.49,1.04-0.28c0.36,0.21,0.49,0.68,0.28,1.04c-3.31,5.76-8.15,10.47-13.99,13.63
			C120.95,144.76,120.83,144.79,120.7,144.79z"/>
	</g>
	<g>
		<path d="M22.32,110.27c-0.23,0-0.45-0.1-0.6-0.3c-4.1-5.31-6.31-11.93-6.25-18.63c0-0.42,0.34-0.75,0.76-0.75c0,0,0,0,0.01,0
			c0.42,0,0.76,0.35,0.75,0.77c-0.07,6.37,2.04,12.65,5.93,17.69c0.26,0.33,0.2,0.81-0.14,1.07
			C22.65,110.21,22.49,110.27,22.32,110.27z"/>
	</g>
	<g>
		<g>
			<path class="st0" d="M23.57,26.81c1.08,16.45,1.34,32.96,0.88,49.51c4.7-1.32,9.62-1.81,14.49-1.43c0.64,0.05,1.33,0.14,1.8,0.58
				c0.54,0.52,0.59,1.4,0.34,2.11c-0.25,0.71-0.73,1.31-1.15,1.94c-0.62,0.93-1.14,1.97-1.2,3.09c-0.14,2.43,1.94,4.53,4.26,5.26
				c2.32,0.73,4.82,0.4,7.42-0.38c1.92-0.7,3.07-3.04,2.44-4.99c-0.28-0.87-0.85-1.62-1.18-2.48c-0.55-1.42-0.31-3.21,0.86-4.18
				c1.08-0.9,2.61-0.93,4.02-0.91c4.7,0.06,9.4,0.13,13.95,0.12c-0.23-6.5-0.12-13,0.31-19.73c-1.02,0.89-2.41,1.3-3.76,1.25
				c-1.35-0.05-2.67-0.53-3.82-1.23c-0.79-0.48-1.54-1.09-1.97-1.91c-0.53-0.99-0.53-2.18-0.4-3.29c0.17-1.41,0.6-2.89,1.68-3.82
				c0.51-0.44,1.12-0.73,1.74-0.99c1.13-0.48,2.32-0.9,3.55-0.87c1.23,0.02,2.51,0.56,3.25,1.77c-0.26-4.6-0.53-9.22-0.01-13.8
				c0.2-1.74,0.51-3.48-0.02-5.07c-1.18-0.41-2.46-0.35-3.71-0.3c-12.93,0.58-25.89,0.91-38.8,0.11
				C26.8,27.06,25.08,26.93,23.57,26.81z"/>
		</g>
		<g class="st1">
			<path d="M71.23,28.41c-0.01-0.55,0.16-1.21-0.29-1.63c-0.14-0.15-0.32-0.24-0.5-0.28c-0.41,2.36-0.82,4.73-1.26,7.08
				c-0.66,3.6-1.36,7.19-2.05,10.78c0.26,0.36,0.73,0.58,1.19,0.51c0.4,0.97,1.87,1.19,2.45,0.18c0.11-0.23,0.18-0.47,0.18-0.72
				c0,0.01,0,0.01,0,0.02c0-0.01,0-0.02,0-0.03c0-0.03,0-0.05,0-0.08c0-0.03,0-0.06,0-0.09c0-0.09,0.01-0.18,0.02-0.27
				c0.03-0.31,0.08-0.82,0.03-1c-0.24-3.63-0.29-8.27,0-10.96C71.15,30.76,71.17,29.58,71.23,28.41z"/>
		</g>
		<g class="st1">
			<path d="M70.04,73.25c0-0.04-0.01-0.07-0.01-0.11c-0.2-2.42-0.15-4.85-0.07-7.28c-0.05-2.88,0.28-5.75,0.47-8.62
				c-0.03-1.43-1.57-1.81-2.42-1.16c-0.61-0.25-1.42,0.19-1.4,0.92c0.23,3.36,0.41,6.72,0.39,10.09c-0.06,1.57,0,3.14,0.04,4.7
				c-0.82,0.43-0.55,0.32-1.24,0.58c-4.63,1.04-6.79,0.82-12.62,2.1c-1.18,0.34-0.7,2.11,0.5,1.81c3.2-0.65,6.57-0.65,10.21-1.13
				c1.08-0.11,2.18-0.23,3.2-0.65c0.02,0.08,0.03,0.16,0.06,0.24c0.17,0.48,0.67,0.69,1.14,0.63c0.62,0.2,1.38,0,1.71-0.62
				c0.21-0.34,0.23-0.74,0.14-1.12C70.08,73.46,70.05,73.31,70.04,73.25z"/>
		</g>
		<g class="st1">
			<path d="M53,80.94c-0.11-0.47-0.1-1.03-0.39-1.43c-0.37-0.56-1.3-0.48-1.62,0.1c-0.16,0.29-0.16,0.6-0.07,0.91
				c0.15,0.82,0.1,0.46,0.16,1.1c0.04,0.15,0,0.65-0.01,0.85c-0.29,1.6-1.42,2.09-3.84,2.6c-1.45,0.32-3.34,0.15-6.04-0.89
				c-2.07-0.52-2.91,2.5-0.86,3.13c2.22,0.77,4.61,1.53,6.98,1.15c1.59-0.27,3.11-1.1,4.29-2.2C52.93,84.88,53.32,82.8,53,80.94z"/>
		</g>
		<g>
			<path d="M46.85,89.25c-0.3,0-0.6-0.01-0.92-0.03c-2.8-0.17-5.06-1.05-6.54-2.54c-0.58-0.59-1.3-1.54-1.42-2.76
				c-0.12-1.25,0.43-2.39,0.88-3.3l1.38-2.83c0.25-0.52,0.46-0.98,0.4-1.36c-0.02-0.12-0.11-0.25-0.23-0.33
				c-0.09-0.06-0.22-0.13-0.4-0.1c-0.07,0.01-0.15,0.02-0.22,0.01c-5-0.55-10.19-0.23-15.43,0.95c-0.23,0.05-0.47,0-0.65-0.15
				c-0.18-0.15-0.28-0.37-0.28-0.61c0.34-15.75,0.07-31.83-0.82-49.18c-0.01-0.21,0.07-0.42,0.21-0.57
				c0.15-0.15,0.33-0.24,0.56-0.23c15.92,0.32,32.06,0.35,47.97,0.11c0.34,0.01,0.64,0.21,0.74,0.54c0.14,0.44,0.14,0.81,0.02,1.09
				c-0.37,5.48-0.48,11.31-0.34,18.33c0.01,0.3-0.17,0.58-0.44,0.71c-0.27,0.13-0.6,0.08-0.82-0.12c-1.41-1.23-3.48-1.66-5.27-1.1
				c-1.79,0.56-3.23,2.1-3.68,3.92c-0.38,1.55,0.01,3.18,1,4.16c0.55,0.55,1.34,0.98,2.48,1.34c1.03,0.33,3.61,0.94,5.36-0.41
				c0.24-0.18,0.56-0.21,0.83-0.07c0.26,0.14,0.42,0.43,0.4,0.72c-0.44,6.28-0.55,12.72-0.33,19.67c0.01,0.21-0.08,0.42-0.23,0.57
				c-0.15,0.15-0.35,0.23-0.57,0.22c-4.93-0.26-9.93-0.27-14.86-0.05c-1.3,0.06-2.57,0.23-3.13,1.06c-0.58,0.87-0.14,2.21,0.18,2.92
				c0.11,0.25,0.23,0.5,0.35,0.75c0.47,0.96,0.95,1.96,0.98,3.11c0.06,1.82-1.08,3.63-2.91,4.61
				C49.93,88.94,48.53,89.25,46.85,89.25z M40.09,74.47c0.42,0,0.84,0.13,1.19,0.39c0.46,0.33,0.77,0.82,0.85,1.34
				c0.13,0.88-0.25,1.68-0.53,2.26l-1.38,2.83c-0.46,0.94-0.8,1.73-0.73,2.49c0.07,0.77,0.57,1.42,0.98,1.83
				c1.53,1.54,3.86,1.99,5.55,2.09c1.82,0.11,3.24-0.13,4.35-0.73c1.3-0.7,2.14-1.99,2.1-3.22c-0.03-0.83-0.42-1.64-0.83-2.5
				c-0.13-0.26-0.25-0.53-0.37-0.79c-0.78-1.76-0.8-3.27-0.06-4.39c0.94-1.4,2.71-1.67,4.33-1.74c4.7-0.21,9.47-0.21,14.18,0.01
				c-0.17-6.18-0.09-11.96,0.27-17.6c-1.97,0.77-4.16,0.31-5.43-0.09c-0.87-0.28-2.13-0.75-3.09-1.71c-1.36-1.35-1.91-3.55-1.4-5.61
				c0.57-2.32,2.42-4.29,4.7-5.01c1.79-0.56,3.79-0.35,5.44,0.52c-0.1-6.42,0.02-11.86,0.37-16.99c-15.4,0.23-31.01,0.19-46.43-0.1
				c0.84,16.72,1.1,32.28,0.8,47.51c5.05-1.04,10.05-1.31,14.89-0.79C39.93,74.47,40.01,74.47,40.09,74.47z M70.93,27.08
				C70.93,27.08,70.93,27.08,70.93,27.08C70.93,27.08,70.93,27.08,70.93,27.08z"/>
		</g>
		<g class="st1">
			<path d="M71.23,28.41c-0.01-0.55,0.16-1.21-0.29-1.63c-0.14-0.15-0.32-0.24-0.5-0.28c-0.41,2.36-0.82,4.73-1.26,7.08
				c-0.66,3.6-1.36,7.19-2.05,10.78c0.26,0.36,0.73,0.58,1.19,0.51c0.4,0.97,1.87,1.19,2.45,0.18c0.11-0.23,0.18-0.47,0.18-0.72
				c0,0.01,0,0.01,0,0.02c0-0.01,0-0.02,0-0.03c0-0.03,0-0.05,0-0.08c0-0.03,0-0.06,0-0.09c0-0.09,0.01-0.18,0.02-0.27
				c0.03-0.31,0.08-0.82,0.03-1c-0.24-3.63-0.29-8.27,0-10.96C71.15,30.76,71.17,29.58,71.23,28.41z"/>
		</g>
		<g class="st1">
			<path d="M70.04,73.25c0-0.04-0.01-0.07-0.01-0.11c-0.2-2.42-0.15-4.85-0.07-7.28c-0.05-2.88,0.28-5.75,0.47-8.62
				c-0.03-1.43-1.57-1.81-2.42-1.16c-0.61-0.25-1.42,0.19-1.4,0.92c0.23,3.36,0.41,6.72,0.39,10.09c-0.06,1.57,0,3.14,0.04,4.7
				c-0.82,0.43-0.55,0.32-1.24,0.58c-4.63,1.04-6.79,0.82-12.62,2.1c-1.18,0.34-0.7,2.11,0.5,1.81c3.2-0.65,6.57-0.65,10.21-1.13
				c1.08-0.11,2.18-0.23,3.2-0.65c0.02,0.08,0.03,0.16,0.06,0.24c0.17,0.48,0.67,0.69,1.14,0.63c0.62,0.2,1.38,0,1.71-0.62
				c0.21-0.34,0.23-0.74,0.14-1.12C70.08,73.46,70.05,73.31,70.04,73.25z"/>
		</g>
		<g class="st1">
			<path d="M53,80.94c-0.11-0.47-0.1-1.03-0.39-1.43c-0.37-0.56-1.3-0.48-1.62,0.1c-0.16,0.29-0.16,0.6-0.07,0.91
				c0.15,0.82,0.1,0.46,0.16,1.1c0.04,0.15,0,0.65-0.01,0.85c-0.29,1.6-1.42,2.09-3.84,2.6c-1.45,0.32-3.34,0.15-6.04-0.89
				c-2.07-0.52-2.91,2.5-0.86,3.13c2.22,0.77,4.61,1.53,6.98,1.15c1.59-0.27,3.11-1.1,4.29-2.2C52.93,84.88,53.32,82.8,53,80.94z"/>
		</g>
		<g>
			<path d="M46.85,89.25c-0.3,0-0.6-0.01-0.92-0.03c-2.8-0.17-5.06-1.05-6.54-2.54c-0.58-0.59-1.3-1.54-1.42-2.76
				c-0.12-1.25,0.43-2.39,0.88-3.3l1.38-2.83c0.25-0.52,0.46-0.98,0.4-1.36c-0.02-0.12-0.11-0.25-0.23-0.33
				c-0.09-0.06-0.22-0.13-0.4-0.1c-0.07,0.01-0.15,0.02-0.22,0.01c-5-0.55-10.19-0.23-15.43,0.95c-0.23,0.05-0.47,0-0.65-0.15
				c-0.18-0.15-0.28-0.37-0.28-0.61c0.34-15.75,0.07-31.83-0.82-49.18c-0.01-0.21,0.07-0.42,0.21-0.57
				c0.15-0.15,0.33-0.24,0.56-0.23c15.92,0.32,32.06,0.35,47.97,0.11c0.34,0.01,0.64,0.21,0.74,0.54c0.14,0.44,0.14,0.81,0.02,1.09
				c-0.37,5.48-0.48,11.31-0.34,18.33c0.01,0.3-0.17,0.58-0.44,0.71c-0.27,0.13-0.6,0.08-0.82-0.12c-1.41-1.23-3.48-1.66-5.27-1.1
				c-1.79,0.56-3.23,2.1-3.68,3.92c-0.38,1.55,0.01,3.18,1,4.16c0.55,0.55,1.34,0.98,2.48,1.34c1.03,0.33,3.61,0.94,5.36-0.41
				c0.24-0.18,0.56-0.21,0.83-0.07c0.26,0.14,0.42,0.43,0.4,0.72c-0.44,6.28-0.55,12.72-0.33,19.67c0.01,0.21-0.08,0.42-0.23,0.57
				c-0.15,0.15-0.35,0.23-0.57,0.22c-4.93-0.26-9.93-0.27-14.86-0.05c-1.3,0.06-2.57,0.23-3.13,1.06c-0.58,0.87-0.14,2.21,0.18,2.92
				c0.11,0.25,0.23,0.5,0.35,0.75c0.47,0.96,0.95,1.96,0.98,3.11c0.06,1.82-1.08,3.63-2.91,4.61
				C49.93,88.94,48.53,89.25,46.85,89.25z M40.09,74.47c0.42,0,0.84,0.13,1.19,0.39c0.46,0.33,0.77,0.82,0.85,1.34
				c0.13,0.88-0.25,1.68-0.53,2.26l-1.38,2.83c-0.46,0.94-0.8,1.73-0.73,2.49c0.07,0.77,0.57,1.42,0.98,1.83
				c1.53,1.54,3.86,1.99,5.55,2.09c1.82,0.11,3.24-0.13,4.35-0.73c1.3-0.7,2.14-1.99,2.1-3.22c-0.03-0.83-0.42-1.64-0.83-2.5
				c-0.13-0.26-0.25-0.53-0.37-0.79c-0.78-1.76-0.8-3.27-0.06-4.39c0.94-1.4,2.71-1.67,4.33-1.74c4.7-0.21,9.47-0.21,14.18,0.01
				c-0.17-6.18-0.09-11.96,0.27-17.6c-1.97,0.77-4.16,0.31-5.43-0.09c-0.87-0.28-2.13-0.75-3.09-1.71c-1.36-1.35-1.91-3.55-1.4-5.61
				c0.57-2.32,2.42-4.29,4.7-5.01c1.79-0.56,3.79-0.35,5.44,0.52c-0.1-6.42,0.02-11.86,0.37-16.99c-15.4,0.23-31.01,0.19-46.43-0.1
				c0.84,16.72,1.1,32.28,0.8,47.51c5.05-1.04,10.05-1.31,14.89-0.79C39.93,74.47,40.01,74.47,40.09,74.47z M70.93,27.08
				C70.93,27.08,70.93,27.08,70.93,27.08C70.93,27.08,70.93,27.08,70.93,27.08z"/>
		</g>
	</g>
	<g>
		<g>
			<path class="st0" d="M94.51,77.68c-1.47-5.63-5.15-10.45-6.85-16.2c4.49-2.35,9.09-4.49,13.78-6.4c0.97-0.39,1.94-0.78,2.91-1.17
				c0.69-0.27,1.45-0.61,1.77-1.28c0.27-0.58,0.14-1.29-0.19-1.85c-0.33-0.55-0.83-0.98-1.4-1.49c-1.92-1.55-2.53-4.41-1.72-6.74
				c0.81-2.33,2.86-4.12,5.19-4.94c1.51-0.53,3.34-0.65,4.56,0.38c0.31,0.26,0.57,0.58,0.79,0.92c0.99,1.5,1.4,3.37,1.11,5.15
				c-0.15,0.9-0.47,1.79-0.46,2.71c0.01,0.92,0.47,1.92,1.46,2.36c5.39-2.53,10.94-4.71,16.83-6.35c1.59,2.41,2.49,5.2,3.47,7.92
				c2.75,7.61,6.24,14.92,9.73,22.22c1.07,2.24,2.14,4.48,3.04,6.82c0.06,0.52-0.4,0.95-0.82,1.26c-4.73,3.49-10.45,5.3-15.6,8.12
				c-0.45,0.25-0.91,0.51-1.22,0.92c-0.32,0.4-0.46,0.99-0.05,1.36c-0.13,0.77,0.4,1.51,1.02,1.98c0.62,0.48,1.35,0.81,1.91,1.35
				c0.94,0.92,1.26,2.38,0.94,3.65c-0.32,1.28-1.22,2.37-2.32,3.08c-1.11,0.71-2.41,1.08-3.72,1.22c-1.02,0.11-2.15,0.07-2.93-0.6
				c-0.92-0.79-1.03-2.15-1.08-3.36c-0.05-1.21-0.17-2.57-1.1-3.35c-0.78-0.65-2.04-0.65-2.74,0.04
				c-5.47,1.71-10.86,3.68-16.14,5.86c-0.62-0.59-0.89-1.46-1.16-2.27c-1.52-4.65-3.71-9.04-6.05-13.33
				c1.62,0.37,3.38,0.18,4.84-0.63c1.45-0.81,2.57-2.24,2.89-3.87c0.05-0.27,0.09-0.56,0.05-0.83c-0.05-0.34-0.21-0.65-0.37-0.95
				c-0.56-1-1.28-1.93-2.19-2.63c-0.91-0.7-2.02-1.17-3.17-1.21c-0.72-0.03-1.44,0.11-2.12,0.33C96.3,76.22,95.29,76.76,94.51,77.68
				z"/>
		</g>
		<g>
			<path d="M93.66,73.8c-0.01,0-0.02,0-0.03,0c-0.14-0.02-0.24-0.15-0.22-0.28c0.6-4.66,1.08-9.4,1.44-14.08
				c0.01-0.14,0.12-0.24,0.27-0.23c0.14,0.01,0.24,0.13,0.23,0.27c-0.35,4.69-0.84,9.44-1.44,14.11
				C93.9,73.71,93.79,73.8,93.66,73.8z"/>
		</g>
		<g>
			<path d="M99.45,73.99c0,0-0.01,0-0.01,0c-0.14-0.01-0.25-0.13-0.24-0.27l0.83-15.82c0.01-0.14,0.13-0.25,0.27-0.24
				c0.14,0.01,0.25,0.13,0.24,0.27l-0.83,15.82C99.7,73.88,99.59,73.99,99.45,73.99z"/>
		</g>
		<g>
			<path d="M104.17,75.07c-0.01,0-0.01,0-0.02,0c-0.14-0.01-0.24-0.13-0.23-0.27l1.6-19.22c0.01-0.14,0.14-0.23,0.27-0.23
				c0.14,0.01,0.24,0.13,0.23,0.27l-1.6,19.22C104.41,74.97,104.3,75.07,104.17,75.07z"/>
		</g>
		<g>
			<path d="M106.27,47.66c0,0-0.01,0-0.01,0c-0.14-0.01-0.25-0.13-0.24-0.27l0.32-6.23c0.01-0.14,0.11-0.25,0.27-0.24
				c0.14,0.01,0.25,0.13,0.24,0.27l-0.32,6.23C106.52,47.56,106.41,47.66,106.27,47.66z"/>
		</g>
		<g>
			<path d="M108.91,97.01c0,0-0.01,0-0.01,0c-0.14-0.01-0.25-0.13-0.24-0.27l3.06-54.87c0.01-0.14,0.11-0.26,0.27-0.24
				c0.14,0.01,0.25,0.13,0.24,0.27l-3.06,54.87C109.16,96.91,109.05,97.01,108.91,97.01z"/>
		</g>
		<g>
			<path d="M113.95,94.95C113.95,94.95,113.95,94.95,113.95,94.95c-0.15,0-0.26-0.12-0.25-0.26c0.38-14.3,0.99-28.8,1.84-43.07
				c0.01-0.14,0.13-0.25,0.27-0.24c0.14,0.01,0.25,0.13,0.24,0.27c-0.84,14.27-1.46,28.76-1.84,43.06
				C114.2,94.84,114.09,94.95,113.95,94.95z"/>
		</g>
		<g>
			<path d="M118.56,92.84C118.56,92.84,118.56,92.84,118.56,92.84c-0.15-0.01-0.26-0.12-0.25-0.26c0.53-14.34,0.97-28.9,1.3-43.28
				c0-0.14,0.13-0.25,0.26-0.25c0.14,0,0.25,0.12,0.25,0.26c-0.33,14.38-0.77,28.94-1.3,43.29
				C118.81,92.73,118.7,92.84,118.56,92.84z"/>
		</g>
		<g>
			<path d="M123.23,91.05C123.23,91.05,123.22,91.05,123.23,91.05c-0.15,0-0.26-0.12-0.25-0.26l1.28-43.12
				c0-0.14,0.13-0.24,0.26-0.25c0.14,0,0.25,0.12,0.25,0.26l-1.28,43.12C123.48,90.94,123.36,91.05,123.23,91.05z"/>
		</g>
		<g>
			<path d="M127.36,101.72c-0.13,0-0.25-0.1-0.25-0.24c-0.64-11.48,0.09-23.15,0.79-34.43c0.42-6.81,0.86-13.85,0.99-20.78
				c0-0.14,0.12-0.27,0.26-0.25c0.14,0,0.25,0.12,0.25,0.26c-0.13,6.94-0.57,13.99-1,20.8c-0.7,11.27-1.42,22.93-0.79,34.38
				c0.01,0.14-0.1,0.26-0.24,0.27C127.37,101.72,127.36,101.72,127.36,101.72z"/>
		</g>
		<g>
			<path d="M131.82,85.85C131.82,85.85,131.81,85.85,131.82,85.85c-0.15,0-0.26-0.12-0.25-0.26c0.27-10.64,1.14-21.38,2.59-31.93
				c0.02-0.14,0.15-0.23,0.29-0.22c0.14,0.02,0.24,0.15,0.22,0.29c-1.45,10.53-2.32,21.25-2.59,31.87
				C132.07,85.74,131.96,85.85,131.82,85.85z"/>
		</g>
		<g>
			<path d="M136.05,83.7c0,0-0.01,0-0.01,0c-0.14-0.01-0.25-0.13-0.24-0.27c0.34-6.84,0.95-13.75,1.82-20.53
				c0.02-0.14,0.15-0.24,0.28-0.22c0.14,0.02,0.24,0.15,0.22,0.28c-0.87,6.77-1.48,13.66-1.81,20.49
				C136.29,83.6,136.18,83.7,136.05,83.7z"/>
		</g>
		<g>
			<path d="M140.81,82.1c-0.01,0-0.01,0-0.02,0c-0.14-0.01-0.24-0.13-0.23-0.27c0.25-3.35,0.61-6.74,1.07-10.07
				c0.02-0.14,0.16-0.23,0.29-0.22c0.14,0.02,0.24,0.15,0.22,0.29c-0.46,3.32-0.82,6.7-1.07,10.04
				C141.05,82,140.94,82.1,140.81,82.1z"/>
		</g>
		<g>
			<g class="st1">
				<path d="M123.18,91.39c0.01,0,0.01,0,0.02,0c0.06,0.01,0.12,0.01,0.18,0.02C123.32,91.4,123.23,91.39,123.18,91.39z"/>
			</g>
			<g class="st1">
				<path d="M125.41,93.62c-0.02-0.39-0.14-0.79-0.36-1.12c-0.1-0.12-0.1-0.13-0.01-0.01c0.22,0.27-0.48-0.6-0.28-0.32
					c0.09,0.12,0.08,0.11-0.01-0.02c-0.31-0.41-0.8-0.65-1.3-0.73c-0.01,0-0.01,0-0.03-0.01c-0.01,0-0.03,0-0.04-0.01
					c0.02,0,0.03,0.01,0.05,0.01c-0.08-0.01-0.15-0.03-0.23-0.03c-0.57-0.07-1.14,0.03-1.7,0.15c-1.39,0.26-2.71,0.75-3.99,1.35
					c-1.08,0.41-3.1,1.4-6.03,2.41c-1.9,0.56-3.75,1.27-5.59,1.98c-0.73,0.32-1.68,0.4-2.11,1.15c-0.72,1.15,0.47,2.71,1.77,2.31
					c3.74-1.3,7.55-2.41,11.16-4.06c0.76-0.22,4.31-2.03,5.59-2.62c0.01,0,0.01,0,0.02-0.01c0.35-0.14,0.74-0.17,1.07-0.35
					c0.04-0.02,0.09-0.04,0.13-0.06c0.24,0.23,0.52,0.42,0.83,0.55c-0.02-0.01-0.04-0.02-0.05-0.02c0.04,0.02,0.12,0.05,0.16,0.07
					c0.05,0.06,0.09,0.13,0.13,0.19c0.13,0.24,0.47,0.33,0.7,0.18C125.82,94.25,125.38,93.72,125.41,93.62z"/>
			</g>
		</g>
		<g class="st1">
			<path d="M147.95,78.25c-0.17-0.46-0.31-0.94-0.43-1.41c-0.21,0.03-0.41,0.11-0.57,0.27c-0.28,0.25-0.27,0.63-0.39,0.96
				c-0.4,0.77-0.28,0.55-0.99,1.26c-2.52,2.26-7.47,4.19-10.6,5.61c-0.33,0.13-1.04,0.43-1.26,0.51c-0.87,0.46-2.09,0.49-2.66,1.36
				c-0.68,1.08,0.44,2.54,1.66,2.16c3.77-1.36,7.36-3.16,10.76-5.27c1.77-1.13,3.76-2.23,4.74-4.17c0.04-0.09,0.08-0.19,0.12-0.29
				C148.21,78.9,148.07,78.58,147.95,78.25z"/>
		</g>
		<g>
			<path d="M128.36,103.86c-1.51,0-3.01-0.52-3.86-1.85c-0.65-1.03-0.7-2.18-0.74-3.29c-0.02-0.51-0.04-1-0.12-1.45
				c-0.12-0.72-0.7-1.5-1.28-1.75c-0.34-0.14-0.54-0.05-0.67,0.04c-0.05,0.04-0.11,0.07-0.18,0.09c-3.5,1.23-7.08,2.63-10.54,3.97
				c-2.07,0.81-4.22,1.64-6.34,2.44c-0.2,0.08-0.42,0.06-0.61-0.03c-0.19-0.1-0.33-0.27-0.39-0.48c-1.59-5.72-3.92-10.92-6.92-15.46
				c-0.17-0.25-0.17-0.58-0.01-0.83c0.16-0.25,0.46-0.39,0.76-0.34c1.53,0.24,2.95,0.16,4.32-0.23c1.06-0.3,1.78-0.72,2.21-1.29
				c0.36-0.48,0.56-1.17,0.55-1.93c-0.02-2.08-1.59-4.13-3.67-4.78c-2.03-0.63-4.46,0.02-6.03,1.62c-0.18,0.18-0.43,0.26-0.68,0.22
				c-0.25-0.05-0.46-0.21-0.56-0.44c-0.68-1.54-1.34-3.05-1.99-4.55c-1.69-3.89-3.29-7.56-5.07-11.19c-0.18-0.37-0.04-0.81,0.32-1
				c6.01-3.3,12.31-6.23,18.72-8.69l0,0c0.09-0.04,0.11-0.07,0.13-0.12c0.1-0.33-0.15-1.09-0.55-1.65
				c-0.28-0.39-0.63-0.74-1.01-1.11c-0.34-0.34-0.7-0.69-1.01-1.09c-1.67-2.13-1.81-5.34-0.35-7.81c1.32-2.23,3.88-3.79,6.67-4.07
				c1.3-0.13,2.41,0.04,3.29,0.52c1.26,0.68,2.18,2.07,2.46,3.72c0.25,1.48-0.01,2.95-0.3,4.18l-0.05,0.2
				c-0.15,0.64-0.29,1.24-0.23,1.8c0.04,0.37,0.21,0.8,0.51,1.01c4.74-1.85,10.92-4.23,17.24-6.48c0.19-0.07,0.4-0.06,0.58,0.03
				c0.18,0.09,0.32,0.24,0.39,0.44c4.64,13.37,10.05,26.13,16.09,37.93c0.19,0.37,0.05,0.81-0.31,1.01c-5.4,3-11.13,5.77-16.67,8.45
				c-0.61,0.29-1.17,0.6-1.35,1.04c-0.22,0.56,0.23,1.3,0.75,1.76c0.27,0.24,0.58,0.45,0.9,0.68c0.51,0.36,1.04,0.72,1.48,1.23
				c1.27,1.44,1.52,3.76,0.59,5.64c-0.79,1.59-2.35,2.88-4.3,3.54C129.88,103.72,129.12,103.86,128.36,103.86z M122.03,93.91
				c0.3,0,0.62,0.07,0.92,0.2c1.06,0.45,1.98,1.67,2.18,2.9c0.09,0.55,0.12,1.11,0.14,1.65c0.04,0.95,0.07,1.85,0.51,2.53
				c0.8,1.25,2.76,1.38,4.28,0.87c1.56-0.53,2.81-1.54,3.42-2.77c0.66-1.34,0.51-2.96-0.37-3.95c-0.33-0.37-0.76-0.67-1.21-0.99
				c-0.35-0.24-0.7-0.49-1.04-0.79c-0.87-0.76-1.69-2.13-1.16-3.47c0.41-1.02,1.43-1.52,2.1-1.84c5.3-2.56,10.77-5.21,15.95-8.06
				c-5.82-11.46-11.06-23.81-15.58-36.74c-6.19,2.21-12.19,4.53-16.78,6.32c-0.16,0.06-0.34,0.07-0.51,0.02
				c-0.95-0.3-1.65-1.25-1.77-2.41c-0.09-0.82,0.09-1.58,0.27-2.31l0.05-0.19c0.25-1.09,0.48-2.37,0.28-3.58
				c-0.2-1.19-0.83-2.17-1.68-2.63c-0.61-0.33-1.42-0.45-2.42-0.35c-2.32,0.23-4.43,1.51-5.51,3.33c-1.13,1.91-1.03,4.47,0.24,6.09
				c0.26,0.33,0.56,0.63,0.89,0.95c0.4,0.4,0.82,0.81,1.18,1.31c0.54,0.76,1.06,1.99,0.76,2.97c-0.16,0.51-0.52,0.91-1.04,1.1
				c0,0,0,0,0,0c-6.12,2.35-12.13,5.12-17.89,8.25c1.68,3.45,3.19,6.93,4.78,10.6c0.52,1.19,1.04,2.38,1.57,3.59
				c1.93-1.46,4.52-1.98,6.75-1.29c2.73,0.85,4.72,3.46,4.74,6.22c0.01,0.77-0.14,1.9-0.85,2.86c-0.63,0.84-1.62,1.45-3.01,1.84
				c-1.1,0.31-2.21,0.45-3.37,0.42c2.55,4.13,4.58,8.75,6.04,13.77c1.86-0.71,3.73-1.43,5.55-2.14c3.44-1.34,7-2.73,10.5-3.96
				C121.27,94.01,121.64,93.91,122.03,93.91z M105.85,53.36L105.85,53.36L105.85,53.36z"/>
		</g>
		<g>
			<path d="M93.66,73.8c-0.01,0-0.02,0-0.03,0c-0.14-0.02-0.24-0.15-0.22-0.28c0.6-4.66,1.08-9.4,1.44-14.08
				c0.01-0.14,0.12-0.24,0.27-0.23c0.14,0.01,0.24,0.13,0.23,0.27c-0.35,4.69-0.84,9.44-1.44,14.11
				C93.9,73.71,93.79,73.8,93.66,73.8z"/>
		</g>
		<g>
			<path d="M99.45,73.99c0,0-0.01,0-0.01,0c-0.14-0.01-0.25-0.13-0.24-0.27l0.83-15.82c0.01-0.14,0.13-0.25,0.27-0.24
				c0.14,0.01,0.25,0.13,0.24,0.27l-0.83,15.82C99.7,73.88,99.59,73.99,99.45,73.99z"/>
		</g>
		<g>
			<path d="M104.17,75.07c-0.01,0-0.01,0-0.02,0c-0.14-0.01-0.24-0.13-0.23-0.27l1.6-19.22c0.01-0.14,0.14-0.23,0.27-0.23
				c0.14,0.01,0.24,0.13,0.23,0.27l-1.6,19.22C104.41,74.97,104.3,75.07,104.17,75.07z"/>
		</g>
		<g>
			<path d="M106.27,47.66c0,0-0.01,0-0.01,0c-0.14-0.01-0.25-0.13-0.24-0.27l0.32-6.23c0.01-0.14,0.11-0.25,0.27-0.24
				c0.14,0.01,0.25,0.13,0.24,0.27l-0.32,6.23C106.52,47.56,106.41,47.66,106.27,47.66z"/>
		</g>
		<g>
			<path d="M108.91,97.01c0,0-0.01,0-0.01,0c-0.14-0.01-0.25-0.13-0.24-0.27l3.06-54.87c0.01-0.14,0.11-0.26,0.27-0.24
				c0.14,0.01,0.25,0.13,0.24,0.27l-3.06,54.87C109.16,96.91,109.05,97.01,108.91,97.01z"/>
		</g>
		<g>
			<path d="M113.95,94.95C113.95,94.95,113.95,94.95,113.95,94.95c-0.15,0-0.26-0.12-0.25-0.26c0.38-14.3,0.99-28.8,1.84-43.07
				c0.01-0.14,0.13-0.25,0.27-0.24c0.14,0.01,0.25,0.13,0.24,0.27c-0.84,14.27-1.46,28.76-1.84,43.06
				C114.2,94.84,114.09,94.95,113.95,94.95z"/>
		</g>
		<g>
			<path d="M118.56,92.84C118.56,92.84,118.56,92.84,118.56,92.84c-0.15-0.01-0.26-0.12-0.25-0.26c0.53-14.34,0.97-28.9,1.3-43.28
				c0-0.14,0.13-0.25,0.26-0.25c0.14,0,0.25,0.12,0.25,0.26c-0.33,14.38-0.77,28.94-1.3,43.29
				C118.81,92.73,118.7,92.84,118.56,92.84z"/>
		</g>
		<g>
			<path d="M123.23,91.05C123.23,91.05,123.22,91.05,123.23,91.05c-0.15,0-0.26-0.12-0.25-0.26l1.28-43.12
				c0-0.14,0.13-0.24,0.26-0.25c0.14,0,0.25,0.12,0.25,0.26l-1.28,43.12C123.48,90.94,123.36,91.05,123.23,91.05z"/>
		</g>
		<g>
			<path d="M127.36,101.72c-0.13,0-0.25-0.1-0.25-0.24c-0.64-11.48,0.09-23.15,0.79-34.43c0.42-6.81,0.86-13.85,0.99-20.78
				c0-0.14,0.12-0.27,0.26-0.25c0.14,0,0.25,0.12,0.25,0.26c-0.13,6.94-0.57,13.99-1,20.8c-0.7,11.27-1.42,22.93-0.79,34.38
				c0.01,0.14-0.1,0.26-0.24,0.27C127.37,101.72,127.36,101.72,127.36,101.72z"/>
		</g>
		<g>
			<path d="M131.82,85.85C131.82,85.85,131.81,85.85,131.82,85.85c-0.15,0-0.26-0.12-0.25-0.26c0.27-10.64,1.14-21.38,2.59-31.93
				c0.02-0.14,0.15-0.23,0.29-0.22c0.14,0.02,0.24,0.15,0.22,0.29c-1.45,10.53-2.32,21.25-2.59,31.87
				C132.07,85.74,131.96,85.85,131.82,85.85z"/>
		</g>
		<g>
			<path d="M136.05,83.7c0,0-0.01,0-0.01,0c-0.14-0.01-0.25-0.13-0.24-0.27c0.34-6.84,0.95-13.75,1.82-20.53
				c0.02-0.14,0.15-0.24,0.28-0.22c0.14,0.02,0.24,0.15,0.22,0.28c-0.87,6.77-1.48,13.66-1.81,20.49
				C136.29,83.6,136.18,83.7,136.05,83.7z"/>
		</g>
		<g>
			<path d="M140.81,82.1c-0.01,0-0.01,0-0.02,0c-0.14-0.01-0.24-0.13-0.23-0.27c0.25-3.35,0.61-6.74,1.07-10.07
				c0.02-0.14,0.16-0.23,0.29-0.22c0.14,0.02,0.24,0.15,0.22,0.29c-0.46,3.32-0.82,6.7-1.07,10.04
				C141.05,82,140.94,82.1,140.81,82.1z"/>
		</g>
		<g>
			<g class="st1">
				<path d="M123.18,91.39c0.01,0,0.01,0,0.02,0c0.06,0.01,0.12,0.01,0.18,0.02C123.32,91.4,123.23,91.39,123.18,91.39z"/>
			</g>
			<g class="st1">
				<path d="M125.41,93.62c-0.02-0.39-0.14-0.79-0.36-1.12c-0.1-0.12-0.1-0.13-0.01-0.01c0.22,0.27-0.48-0.6-0.28-0.32
					c0.09,0.12,0.08,0.11-0.01-0.02c-0.31-0.41-0.8-0.65-1.3-0.73c-0.01,0-0.01,0-0.03-0.01c-0.01,0-0.03,0-0.04-0.01
					c0.02,0,0.03,0.01,0.05,0.01c-0.08-0.01-0.15-0.03-0.23-0.03c-0.57-0.07-1.14,0.03-1.7,0.15c-1.39,0.26-2.71,0.75-3.99,1.35
					c-1.08,0.41-3.1,1.4-6.03,2.41c-1.9,0.56-3.75,1.27-5.59,1.98c-0.73,0.32-1.68,0.4-2.11,1.15c-0.72,1.15,0.47,2.71,1.77,2.31
					c3.74-1.3,7.55-2.41,11.16-4.06c0.76-0.22,4.31-2.03,5.59-2.62c0.01,0,0.01,0,0.02-0.01c0.35-0.14,0.74-0.17,1.07-0.35
					c0.04-0.02,0.09-0.04,0.13-0.06c0.24,0.23,0.52,0.42,0.83,0.55c-0.02-0.01-0.04-0.02-0.05-0.02c0.04,0.02,0.12,0.05,0.16,0.07
					c0.05,0.06,0.09,0.13,0.13,0.19c0.13,0.24,0.47,0.33,0.7,0.18C125.82,94.25,125.38,93.72,125.41,93.62z"/>
			</g>
		</g>
		<g class="st1">
			<path d="M147.95,78.25c-0.17-0.46-0.31-0.94-0.43-1.41c-0.21,0.03-0.41,0.11-0.57,0.27c-0.28,0.25-0.27,0.63-0.39,0.96
				c-0.4,0.77-0.28,0.55-0.99,1.26c-2.52,2.26-7.47,4.19-10.6,5.61c-0.33,0.13-1.04,0.43-1.26,0.51c-0.87,0.46-2.09,0.49-2.66,1.36
				c-0.68,1.08,0.44,2.54,1.66,2.16c3.77-1.36,7.36-3.16,10.76-5.27c1.77-1.13,3.76-2.23,4.74-4.17c0.04-0.09,0.08-0.19,0.12-0.29
				C148.21,78.9,148.07,78.58,147.95,78.25z"/>
		</g>
		<g>
			<path d="M128.36,103.86c-1.51,0-3.01-0.52-3.86-1.85c-0.65-1.03-0.7-2.18-0.74-3.29c-0.02-0.51-0.04-1-0.12-1.45
				c-0.12-0.72-0.7-1.5-1.28-1.75c-0.34-0.14-0.54-0.05-0.67,0.04c-0.05,0.04-0.11,0.07-0.18,0.09c-3.5,1.23-7.08,2.63-10.54,3.97
				c-2.07,0.81-4.22,1.64-6.34,2.44c-0.2,0.08-0.42,0.06-0.61-0.03c-0.19-0.1-0.33-0.27-0.39-0.48c-1.59-5.72-3.92-10.92-6.92-15.46
				c-0.17-0.25-0.17-0.58-0.01-0.83c0.16-0.25,0.46-0.39,0.76-0.34c1.53,0.24,2.95,0.16,4.32-0.23c1.06-0.3,1.78-0.72,2.21-1.29
				c0.36-0.48,0.56-1.17,0.55-1.93c-0.02-2.08-1.59-4.13-3.67-4.78c-2.03-0.63-4.46,0.02-6.03,1.62c-0.18,0.18-0.43,0.26-0.68,0.22
				c-0.25-0.05-0.46-0.21-0.56-0.44c-0.68-1.54-1.34-3.05-1.99-4.55c-1.69-3.89-3.29-7.56-5.07-11.19c-0.18-0.37-0.04-0.81,0.32-1
				c6.01-3.3,12.31-6.23,18.72-8.69l0,0c0.09-0.04,0.11-0.07,0.13-0.12c0.1-0.33-0.15-1.09-0.55-1.65
				c-0.28-0.39-0.63-0.74-1.01-1.11c-0.34-0.34-0.7-0.69-1.01-1.09c-1.67-2.13-1.81-5.34-0.35-7.81c1.32-2.23,3.88-3.79,6.67-4.07
				c1.3-0.13,2.41,0.04,3.29,0.52c1.26,0.68,2.18,2.07,2.46,3.72c0.25,1.48-0.01,2.95-0.3,4.18l-0.05,0.2
				c-0.15,0.64-0.29,1.24-0.23,1.8c0.04,0.37,0.21,0.8,0.51,1.01c4.74-1.85,10.92-4.23,17.24-6.48c0.19-0.07,0.4-0.06,0.58,0.03
				c0.18,0.09,0.32,0.24,0.39,0.44c4.64,13.37,10.05,26.13,16.09,37.93c0.19,0.37,0.05,0.81-0.31,1.01c-5.4,3-11.13,5.77-16.67,8.45
				c-0.61,0.29-1.17,0.6-1.35,1.04c-0.22,0.56,0.23,1.3,0.75,1.76c0.27,0.24,0.58,0.45,0.9,0.68c0.51,0.36,1.04,0.72,1.48,1.23
				c1.27,1.44,1.52,3.76,0.59,5.64c-0.79,1.59-2.35,2.88-4.3,3.54C129.88,103.72,129.12,103.86,128.36,103.86z M122.03,93.91
				c0.3,0,0.62,0.07,0.92,0.2c1.06,0.45,1.98,1.67,2.18,2.9c0.09,0.55,0.12,1.11,0.14,1.65c0.04,0.95,0.07,1.85,0.51,2.53
				c0.8,1.25,2.76,1.38,4.28,0.87c1.56-0.53,2.81-1.54,3.42-2.77c0.66-1.34,0.51-2.96-0.37-3.95c-0.33-0.37-0.76-0.67-1.21-0.99
				c-0.35-0.24-0.7-0.49-1.04-0.79c-0.87-0.76-1.69-2.13-1.16-3.47c0.41-1.02,1.43-1.52,2.1-1.84c5.3-2.56,10.77-5.21,15.95-8.06
				c-5.82-11.46-11.06-23.81-15.58-36.74c-6.19,2.21-12.19,4.53-16.78,6.32c-0.16,0.06-0.34,0.07-0.51,0.02
				c-0.95-0.3-1.65-1.25-1.77-2.41c-0.09-0.82,0.09-1.58,0.27-2.31l0.05-0.19c0.25-1.09,0.48-2.37,0.28-3.58
				c-0.2-1.19-0.83-2.17-1.68-2.63c-0.61-0.33-1.42-0.45-2.42-0.35c-2.32,0.23-4.43,1.51-5.51,3.33c-1.13,1.91-1.03,4.47,0.24,6.09
				c0.26,0.33,0.56,0.63,0.89,0.95c0.4,0.4,0.82,0.81,1.18,1.31c0.54,0.76,1.06,1.99,0.76,2.97c-0.16,0.51-0.52,0.91-1.04,1.1
				c0,0,0,0,0,0c-6.12,2.35-12.13,5.12-17.89,8.25c1.68,3.45,3.19,6.93,4.78,10.6c0.52,1.19,1.04,2.38,1.57,3.59
				c1.93-1.46,4.52-1.98,6.75-1.29c2.73,0.85,4.72,3.46,4.74,6.22c0.01,0.77-0.14,1.9-0.85,2.86c-0.63,0.84-1.62,1.45-3.01,1.84
				c-1.1,0.31-2.21,0.45-3.37,0.42c2.55,4.13,4.58,8.75,6.04,13.77c1.86-0.71,3.73-1.43,5.55-2.14c3.44-1.34,7-2.73,10.5-3.96
				C121.27,94.01,121.64,93.91,122.03,93.91z M105.85,53.36L105.85,53.36L105.85,53.36z"/>
		</g>
	</g>
	<g>
		<g>
			<path class="st2" d="M72.93,105.97c1.27-1.43,0.51-3.64,0.58-5.54c0.17-4.18,5.51-7.02,9.25-5.12c3.73,1.9,4.78,7.43,2.3,10.8
				c-0.52,0.71-1.19,1.63-0.69,2.36c0.22,0.32,0.62,0.47,0.99,0.6c5.88,2.05,11.75,4.11,17.63,6.16c-1.78,5.2-3.83,10.31-6.14,15.31
				c-2.33-2.35-6.23-3.38-9.05-1.64c-2.82,1.73-3.34,6.54-0.53,8.28c1.92,1.19,4.4,0.65,6.67,0.83c-0.65,5.91-2.53,11.68-5.89,16.31
				c-5.01-2.15-10.03-4.31-15.04-6.46c-0.31-0.13-0.63-0.27-0.87-0.52c-0.6-0.61-0.45-1.66,0-2.38c0.46-0.72,1.16-1.26,1.68-1.94
				c1.72-2.22,1.05-5.79-1.22-7.44c-2.26-1.65-5.66-1.33-7.76,0.52c-2.11,1.85-2.89,4.97-2.19,7.68c-5.4-3.06-11.26-5.3-18.28-6.44
				c3.91-12.25,7.82-24.5,11.61-36.82C61.7,102.37,67.41,104.24,72.93,105.97z"/>
		</g>
		<g class="st1">
			<path d="M102,114.52c-0.64-0.28-1.28-0.58-1.9-0.9c-0.68,0.28-1.21,0.91-1.2,1.8c-0.08,1.05-0.44,3.1-1.11,5.37
				c-0.86,2.52-1.09,2.79-1.96,4.93c-0.19,0.59-0.38,1.18-0.59,1.76c-0.12,0.35-0.27,0.71-0.17,1.08c0.06,0.96,1.15,1.64,2.05,1.37
				c1.35-0.58,1.06-1.27,1.43-1.77c1.07-1.95,1.81-4.07,2.5-6.18c0.49-1.71,1.37-3.3,1.63-5.08c0.07-0.66,0.3-1.37,0.12-2.02
				C102.52,114.75,102.26,114.63,102,114.52z"/>
		</g>
		<g class="st1">
			<path d="M93.08,137.18c-0.52,0.01-1.05,0.01-1.56,0.01c-0.07,0-0.14-0.01-0.21-0.03c-0.37,0.25-0.63,0.65-0.63,1.19
				c-0.08,1.64-0.14,1.75-0.65,3.69c-1.04,4.18-1.38,4.77-3.15,8.07c-0.04,0.08-0.08,0.17-0.13,0.25c-1.22-0.58-2.56-0.88-3.86-1.24
				c-2.94-0.86-5.94-1.52-8.89-2.38c-0.29-0.09-0.62-0.25-0.91-0.06c-0.49,0.27-0.39,1.07,0.16,1.2c1.08,0.42,2.6,0.73,3.17,1.04
				c3.77,1.67,6.12,2.74,8.94,3.77c0.08,0.03,0.15,0.06,0.23,0.09c0.45,0.23,0.95,0.35,1.43,0.52c0.01,0,0.01,0,0.01,0.01
				c0.48,0.31,1.15,0.49,1.61,0.06c0.38-0.26,0.52-0.75,0.43-1.18c0.38-0.46,0.66-1.03,0.96-1.52c1.76-2.76,2.34-6.03,3.19-9.14
				c0.2-0.79,0.31-1.61,0.38-2.42c0.01-0.44,0.15-0.93-0.08-1.34C93.41,137.52,93.26,137.32,93.08,137.18z"/>
		</g>
		<g>
			<path d="M88.06,155.06c-0.1,0-0.2-0.02-0.3-0.06l-15.04-6.46c-0.34-0.15-0.77-0.33-1.12-0.69c-0.92-0.94-0.69-2.38-0.1-3.32
				c0.31-0.48,0.68-0.87,1.05-1.25c0.25-0.25,0.48-0.49,0.67-0.75c0.66-0.85,0.93-1.98,0.76-3.19c-0.18-1.3-0.85-2.46-1.82-3.17
				c-1.92-1.4-4.91-1.2-6.81,0.47c-1.82,1.6-2.61,4.38-1.95,6.92c0.08,0.3-0.03,0.61-0.27,0.8c-0.24,0.19-0.57,0.21-0.84,0.06
				c-5.78-3.27-11.51-5.29-18.02-6.35c-0.22-0.04-0.41-0.16-0.53-0.35c-0.12-0.19-0.14-0.42-0.08-0.63
				c3.83-12.02,7.8-24.45,11.61-36.81c0.06-0.2,0.2-0.36,0.38-0.45c0.18-0.09,0.39-0.11,0.59-0.05c5.41,1.78,11,3.61,16.39,5.3
				c0.38-0.75,0.3-1.78,0.21-2.86c-0.05-0.6-0.1-1.22-0.08-1.82c0.09-2.13,1.39-4.14,3.47-5.36c2.2-1.29,4.84-1.45,6.88-0.41
				c1.89,0.96,3.28,2.82,3.82,5.1c0.58,2.42,0.11,4.98-1.25,6.83c-0.28,0.39-0.87,1.19-0.67,1.47c0.09,0.13,0.41,0.24,0.62,0.32
				l17.63,6.16c0.4,0.14,0.61,0.57,0.47,0.97c-1.78,5.21-3.86,10.38-6.17,15.38c-0.1,0.23-0.31,0.39-0.56,0.43
				c-0.25,0.04-0.5-0.04-0.67-0.21c-1.94-1.97-5.45-3.17-8.11-1.53c-1.23,0.76-2.03,2.3-2.03,3.94c0,1.35,0.55,2.46,1.51,3.05
				c1.17,0.72,2.67,0.7,4.25,0.68c0.68-0.01,1.39-0.02,2.08,0.03c0.21,0.02,0.4,0.11,0.53,0.27c0.13,0.16,0.19,0.36,0.17,0.57
				c-0.72,6.46-2.8,12.22-6.03,16.67C88.53,154.95,88.3,155.06,88.06,155.06z M69.17,133.74c1.41,0,2.79,0.4,3.9,1.21
				c1.3,0.95,2.19,2.48,2.43,4.18c0.23,1.62-0.15,3.16-1.06,4.34c-0.25,0.32-0.52,0.6-0.79,0.87c-0.33,0.34-0.63,0.65-0.86,1
				c-0.29,0.46-0.41,1.13-0.1,1.44c0.14,0.14,0.39,0.25,0.63,0.35l14.47,6.22c2.74-3.98,4.57-9.01,5.3-14.64
				c-0.37-0.01-0.75,0-1.15,0.01c-1.73,0.03-3.52,0.05-5.07-0.91c-1.42-0.88-2.23-2.46-2.23-4.35c0-2.15,1.09-4.2,2.76-5.23
				c2.98-1.83,6.74-0.89,9.19,1.04c2.01-4.43,3.84-8.99,5.43-13.58l-16.92-5.91c-0.4-0.14-0.99-0.35-1.37-0.89
				c-0.81-1.18,0.13-2.47,0.7-3.24c1.1-1.49,1.47-3.58,1-5.57c-0.44-1.85-1.54-3.34-3.03-4.1c-1.58-0.8-3.66-0.66-5.42,0.37
				c-1.64,0.96-2.65,2.49-2.72,4.1c-0.02,0.51,0.02,1.06,0.07,1.63c0.12,1.47,0.26,3.13-0.85,4.38c-0.2,0.22-0.51,0.31-0.8,0.22
				c-5.32-1.66-10.84-3.47-16.2-5.23c-3.65,11.84-7.44,23.73-11.12,35.25c5.76,1.03,11.11,2.88,16.29,5.63
				c-0.17-2.6,0.82-5.2,2.68-6.84C65.68,134.34,67.44,133.74,69.17,133.74z"/>
		</g>
		<g>
			<path class="st2" d="M72.93,105.97c1.27-1.43,0.51-3.64,0.58-5.54c0.17-4.18,5.51-7.02,9.25-5.12c3.73,1.9,4.78,7.43,2.3,10.8
				c-0.52,0.71-1.19,1.63-0.69,2.36c0.22,0.32,0.62,0.47,0.99,0.6c5.88,2.05,11.75,4.11,17.63,6.16c-1.78,5.2-3.83,10.31-6.14,15.31
				c-2.33-2.35-6.23-3.38-9.05-1.64c-2.82,1.73-3.34,6.54-0.53,8.28c1.92,1.19,4.4,0.65,6.67,0.83c-0.65,5.91-2.53,11.68-5.89,16.31
				c-5.01-2.15-10.03-4.31-15.04-6.46c-0.31-0.13-0.63-0.27-0.87-0.52c-0.6-0.61-0.45-1.66,0-2.38c0.46-0.72,1.16-1.26,1.68-1.94
				c1.72-2.22,1.05-5.79-1.22-7.44c-2.26-1.65-5.66-1.33-7.76,0.52c-2.11,1.85-2.89,4.97-2.19,7.68c-5.4-3.06-11.26-5.3-18.28-6.44
				c3.91-12.25,7.82-24.5,11.61-36.82C61.7,102.37,67.41,104.24,72.93,105.97z"/>
		</g>
		<g class="st1">
			<path d="M102,114.52c-0.64-0.28-1.28-0.58-1.9-0.9c-0.68,0.28-1.21,0.91-1.2,1.8c-0.08,1.05-0.44,3.1-1.11,5.37
				c-0.86,2.52-1.09,2.79-1.96,4.93c-0.19,0.59-0.38,1.18-0.59,1.76c-0.12,0.35-0.27,0.71-0.17,1.08c0.06,0.96,1.15,1.64,2.05,1.37
				c1.35-0.58,1.06-1.27,1.43-1.77c1.07-1.95,1.81-4.07,2.5-6.18c0.49-1.71,1.37-3.3,1.63-5.08c0.07-0.66,0.3-1.37,0.12-2.02
				C102.52,114.75,102.26,114.63,102,114.52z"/>
		</g>
		<g class="st1">
			<path d="M93.08,137.18c-0.52,0.01-1.05,0.01-1.56,0.01c-0.07,0-0.14-0.01-0.21-0.03c-0.37,0.25-0.63,0.65-0.63,1.19
				c-0.08,1.64-0.14,1.75-0.65,3.69c-1.04,4.18-1.38,4.77-3.15,8.07c-0.04,0.08-0.08,0.17-0.13,0.25c-1.22-0.58-2.56-0.88-3.86-1.24
				c-2.94-0.86-5.94-1.52-8.89-2.38c-0.29-0.09-0.62-0.25-0.91-0.06c-0.49,0.27-0.39,1.07,0.16,1.2c1.08,0.42,2.6,0.73,3.17,1.04
				c3.77,1.67,6.12,2.74,8.94,3.77c0.08,0.03,0.15,0.06,0.23,0.09c0.45,0.23,0.95,0.35,1.43,0.52c0.01,0,0.01,0,0.01,0.01
				c0.48,0.31,1.15,0.49,1.61,0.06c0.38-0.26,0.52-0.75,0.43-1.18c0.38-0.46,0.66-1.03,0.96-1.52c1.76-2.76,2.34-6.03,3.19-9.14
				c0.2-0.79,0.31-1.61,0.38-2.42c0.01-0.44,0.15-0.93-0.08-1.34C93.41,137.52,93.26,137.32,93.08,137.18z"/>
		</g>
		<g>
			<path d="M88.06,155.06c-0.1,0-0.2-0.02-0.3-0.06l-15.04-6.46c-0.34-0.15-0.77-0.33-1.12-0.69c-0.92-0.94-0.69-2.38-0.1-3.32
				c0.31-0.48,0.68-0.87,1.05-1.25c0.25-0.25,0.48-0.49,0.67-0.75c0.66-0.85,0.93-1.98,0.76-3.19c-0.18-1.3-0.85-2.46-1.82-3.17
				c-1.92-1.4-4.91-1.2-6.81,0.47c-1.82,1.6-2.61,4.38-1.95,6.92c0.08,0.3-0.03,0.61-0.27,0.8c-0.24,0.19-0.57,0.21-0.84,0.06
				c-5.78-3.27-11.51-5.29-18.02-6.35c-0.22-0.04-0.41-0.16-0.53-0.35c-0.12-0.19-0.14-0.42-0.08-0.63
				c3.83-12.02,7.8-24.45,11.61-36.81c0.06-0.2,0.2-0.36,0.38-0.45c0.18-0.09,0.39-0.11,0.59-0.05c5.41,1.78,11,3.61,16.39,5.3
				c0.38-0.75,0.3-1.78,0.21-2.86c-0.05-0.6-0.1-1.22-0.08-1.82c0.09-2.13,1.39-4.14,3.47-5.36c2.2-1.29,4.84-1.45,6.88-0.41
				c1.89,0.96,3.28,2.82,3.82,5.1c0.58,2.42,0.11,4.98-1.25,6.83c-0.28,0.39-0.87,1.19-0.67,1.47c0.09,0.13,0.41,0.24,0.62,0.32
				l17.63,6.16c0.4,0.14,0.61,0.57,0.47,0.97c-1.78,5.21-3.86,10.38-6.17,15.38c-0.1,0.23-0.31,0.39-0.56,0.43
				c-0.25,0.04-0.5-0.04-0.67-0.21c-1.94-1.97-5.45-3.17-8.11-1.53c-1.23,0.76-2.03,2.3-2.03,3.94c0,1.35,0.55,2.46,1.51,3.05
				c1.17,0.72,2.67,0.7,4.25,0.68c0.68-0.01,1.39-0.02,2.08,0.03c0.21,0.02,0.4,0.11,0.53,0.27c0.13,0.16,0.19,0.36,0.17,0.57
				c-0.72,6.46-2.8,12.22-6.03,16.67C88.53,154.95,88.3,155.06,88.06,155.06z M69.17,133.74c1.41,0,2.79,0.4,3.9,1.21
				c1.3,0.95,2.19,2.48,2.43,4.18c0.23,1.62-0.15,3.16-1.06,4.34c-0.25,0.32-0.52,0.6-0.79,0.87c-0.33,0.34-0.63,0.65-0.86,1
				c-0.29,0.46-0.41,1.13-0.1,1.44c0.14,0.14,0.39,0.25,0.63,0.35l14.47,6.22c2.74-3.98,4.57-9.01,5.3-14.64
				c-0.37-0.01-0.75,0-1.15,0.01c-1.73,0.03-3.52,0.05-5.07-0.91c-1.42-0.88-2.23-2.46-2.23-4.35c0-2.15,1.09-4.2,2.76-5.23
				c2.98-1.83,6.74-0.89,9.19,1.04c2.01-4.43,3.84-8.99,5.43-13.58l-16.92-5.91c-0.4-0.14-0.99-0.35-1.37-0.89
				c-0.81-1.18,0.13-2.47,0.7-3.24c1.1-1.49,1.47-3.58,1-5.57c-0.44-1.85-1.54-3.34-3.03-4.1c-1.58-0.8-3.66-0.66-5.42,0.37
				c-1.64,0.96-2.65,2.49-2.72,4.1c-0.02,0.51,0.02,1.06,0.07,1.63c0.12,1.47,0.26,3.13-0.85,4.38c-0.2,0.22-0.51,0.31-0.8,0.22
				c-5.32-1.66-10.84-3.47-16.2-5.23c-3.65,11.84-7.44,23.73-11.12,35.25c5.76,1.03,11.11,2.88,16.29,5.63
				c-0.17-2.6,0.82-5.2,2.68-6.84C65.68,134.34,67.44,133.74,69.17,133.74z"/>
		</g>
	</g>
	<g>
		<g>
			<path d="M38.48,118.57c-0.17,0-0.34-0.06-0.48-0.17c-7.72-6.28-12.31-15.97-12.27-25.92c0-0.42,0.34-0.76,0.76-0.76c0,0,0,0,0,0
				c0.42,0,0.76,0.34,0.76,0.76c-0.04,9.5,4.34,18.74,11.71,24.73c0.33,0.27,0.38,0.74,0.11,1.07
				C38.92,118.47,38.7,118.57,38.48,118.57z"/>
		</g>
		<g>
			<path d="M38.5,118.99c-0.05,0-0.11-0.01-0.16-0.02c-2.84-0.61-5.65-1.45-8.35-2.51c-0.39-0.15-0.59-0.6-0.43-0.99
				c0.15-0.39,0.59-0.58,0.99-0.43c2.31,0.9,4.7,1.65,7.12,2.21c-0.2-2.25-0.68-4.47-1.42-6.61c-0.14-0.4,0.07-0.83,0.47-0.97
				c0.4-0.14,0.83,0.07,0.97,0.47c0.89,2.59,1.42,5.29,1.57,8.03c0.01,0.24-0.09,0.47-0.27,0.62
				C38.85,118.93,38.68,118.99,38.5,118.99z"/>
		</g>
	</g>
	<g>
		<g>
			<path d="M115.71,133.89c-0.29,0-0.57-0.17-0.7-0.45c-0.17-0.38,0-0.83,0.39-1.01c9.09-4.06,16.09-12.62,18.25-22.33
				c0.09-0.41,0.5-0.67,0.91-0.58c0.41,0.09,0.67,0.5,0.58,0.91c-2.27,10.18-9.6,19.14-19.12,23.39
				C115.92,133.87,115.81,133.89,115.71,133.89z"/>
		</g>
		<g>
			<path d="M135.76,117.52C135.76,117.52,135.76,117.52,135.76,117.52c-0.42,0-0.76-0.34-0.76-0.76c0-1.84-0.25-3.66-0.76-5.42
				c-1.46,1.22-3.02,2.31-4.65,3.27c-0.36,0.21-0.83,0.09-1.04-0.27c-0.21-0.36-0.09-0.83,0.27-1.04c1.88-1.1,3.66-2.39,5.28-3.85
				c0.19-0.17,0.45-0.23,0.7-0.17c0.25,0.06,0.45,0.24,0.53,0.48c0.8,2.26,1.2,4.61,1.2,7.01
				C136.52,117.18,136.18,117.52,135.76,117.52z"/>
		</g>
	</g>
	<g>
		<g>
			<path d="M81.51,26.28c-0.24,0-0.48-0.12-0.63-0.34c-0.24-0.35-0.14-0.82,0.2-1.06c7.84-5.29,18.4-6.04,26.91-1.9
				c0.38,0.18,0.54,0.64,0.35,1.02c-0.18,0.38-0.64,0.54-1.02,0.35c-8.03-3.9-17.99-3.2-25.39,1.8
				C81.8,26.24,81.65,26.28,81.51,26.28z"/>
		</g>
		<g>
			<path d="M88.02,26.7c-0.02,0-0.05,0-0.07,0c-2.26-0.21-4.55-0.28-6.82-0.22c-0.29,0.01-0.56-0.15-0.7-0.41
				c-0.13-0.26-0.11-0.57,0.07-0.81l4.12-5.51c0.25-0.34,0.73-0.41,1.07-0.15c0.34,0.25,0.41,0.73,0.15,1.07l-3.2,4.27
				c1.81-0.02,3.64,0.08,5.44,0.25c0.42,0.04,0.73,0.41,0.69,0.83C88.74,26.41,88.41,26.7,88.02,26.7z"/>
		</g>
	</g>
	<g>
		<path d="M113.18,16.73c-0.14,0-0.27-0.04-0.4-0.11c-5.39-3.33-11.85-5.16-18.19-5.16c-0.01,0-0.01,0-0.02,0h0
			c-0.42,0-0.76-0.34-0.76-0.76c0-0.42,0.34-0.76,0.76-0.76c0.01,0,0.02,0,0.02,0c6.71,0,13.28,1.86,18.99,5.38
			c0.36,0.22,0.47,0.69,0.25,1.05C113.68,16.6,113.43,16.73,113.18,16.73z"/>
	</g>
	<g>
		<path d="M120.7,144.79c-0.27,0-0.53-0.14-0.67-0.4c-0.2-0.37-0.06-0.83,0.31-1.03c5.51-2.98,10.27-7.61,13.4-13.05
			c0.21-0.37,0.68-0.49,1.04-0.28c0.36,0.21,0.49,0.68,0.28,1.04c-3.31,5.76-8.15,10.47-13.99,13.63
			C120.95,144.76,120.83,144.79,120.7,144.79z"/>
	</g>
	<g>
		<path d="M22.32,110.27c-0.23,0-0.45-0.1-0.6-0.3c-4.1-5.31-6.31-11.93-6.25-18.63c0-0.42,0.34-0.75,0.76-0.75c0,0,0,0,0.01,0
			c0.42,0,0.76,0.35,0.75,0.77c-0.07,6.37,2.04,12.65,5.93,17.69c0.26,0.33,0.2,0.81-0.14,1.07
			C22.65,110.21,22.49,110.27,22.32,110.27z"/>
	</g>
</g>
</svg>
