<?xml version="1.0" encoding="utf-8"?>
<!-- Generator: Adobe Illustrator 26.3.1, SVG Export Plug-In . SVG Version: 6.00 Build 0)  -->
<svg version="1.1" id="Calque_1" xmlns="http://www.w3.org/2000/svg" xmlns:xlink="http://www.w3.org/1999/xlink" x="0px" y="0px"
	 viewBox="0 0 165 165" style="enable-background:new 0 0 165 165;" xml:space="preserve">
<style type="text/css">
	.st0{fill:#FFFFFF;}
	.st1{fill:#ACD4F7;}
	.st2{opacity:0.1294;}
</style>
<g>
	<g>
		<path class="st0" d="M33.47,51.38c-2.77-2.27-4.21-6.25-3.6-9.92c0.61-3.67,3.26-6.87,6.59-7.98c1.79-0.59,3.83-0.59,5.45,0.41
			c2.68,1.65,3.47,5.34,3.69,8.63c0.1,1.52,0.14,3.08-0.33,4.52c-0.77,2.39-2.87,4.13-5.17,4.71C37.81,52.33,35,52.64,33.47,51.38z"
			/>
	</g>
	<g>
		<path class="st0" d="M30.22,88.31c0,0,2.12-29.81,2.1-29.73c0.42-1.35,1.01-2.64,1.75-3.83c0.43-0.69,0.93-1.36,1.57-1.82
			c1.27-0.9,3-0.86,4.37-0.13c1.36,0.73,2.38,2.07,3.04,3.54c0.65,1.47,0.97,3.09,1.23,4.7c0.43,2.72,0.7,5.46,0.96,8.2
			c0.63,6.53,1.25,13.06,1.88,19.59L30.22,88.31z"/>
	</g>
	<g>
		<path class="st0" d="M77.67,50.09c-1.33-1.89-2.01-4.28-1.91-6.64c0.1-2.36,1-4.67,2.48-6.42c0.61-0.72,1.31-1.34,2.09-1.84
			c1.5-0.97,3.26-1.47,5.01-1.42c0.41,0.01,0.83,0.05,1.21,0.21c0.49,0.19,0.91,0.55,1.29,0.94c3.09,3.11,4.24,8.23,2.79,12.49
			c-0.22,0.64-0.49,1.27-0.9,1.8c-0.44,0.57-1.02,0.99-1.62,1.37c-1.92,1.2-4.21,1.9-6.39,1.42c-0.85-0.19-1.65-0.54-2.43-0.93
			C78.45,50.65,77.61,50.19,77.67,50.09z"/>
	</g>
	<g>
		<path class="st0" d="M122.72,47.54c-0.78-1.6-0.9-3.5-0.58-5.27c0.32-1.77,1.07-3.42,1.96-4.95c0.25-0.44,0.52-0.87,0.85-1.25
			c0.81-0.92,1.94-1.43,3.05-1.85c1.21-0.45,2.49-0.83,3.75-0.59c1.03,0.19,1.96,0.77,2.82,1.42c0.49,0.37,0.98,0.78,1.35,1.29
			c0.69,0.95,0.94,2.18,1.13,3.36c0.16,1.02,0.29,2.04,0.42,3.07c0.09,0.76,0.18,1.53,0.11,2.29c-0.12,1.34-0.73,2.6-1.58,3.61
			c-0.84,1-1.91,1.77-3.03,2.39c-0.86,0.48-1.78,0.88-2.75,0.96c-1.23,0.11-2.44-0.3-3.57-0.82c-0.53-0.24-1.06-0.51-1.54-0.84
			C123.98,49.55,123.11,48.34,122.72,47.54z"/>
	</g>
	<g>
		<path class="st0" d="M76.18,89.02c-0.31-9.9,0.4-19.84,2.11-29.58c0.18-1.01,0.37-2.02,0.73-2.97c0.47-1.23,1.25-2.33,2.22-3.16
			c1.33-1.14,3.22-1.75,4.77-1c1.29,0.63,2.08,2.05,2.64,3.44c1.9,4.68,2.22,9.9,2.53,14.99c0.36,6.06,0.72,12.11,1.04,18.26
			C86.88,89.6,81.48,89.57,76.18,89.02z"/>
	</g>
	<g>
		<path d="M33.26,63.22c-0.04,0-0.08-0.01-0.12-0.04c-0.09-0.07-0.12-0.21-0.05-0.31c1.94-3.02,4.07-5.95,6.34-8.69
			c0.08-0.09,0.21-0.1,0.29-0.02c0.09,0.08,0.09,0.22,0.02,0.31c-2.26,2.73-4.38,5.65-6.31,8.65
			C33.39,63.19,33.32,63.22,33.26,63.22z"/>
	</g>
	<g>
		<path d="M32.96,69.97c-0.04,0-0.08-0.01-0.12-0.04c-0.09-0.07-0.12-0.21-0.06-0.31c2.61-4.15,5.44-8.22,8.4-12.1
			c0.07-0.09,0.2-0.11,0.29-0.03c0.09,0.08,0.1,0.22,0.03,0.31c-2.96,3.87-5.78,7.93-8.38,12.07
			C33.09,69.93,33.03,69.97,32.96,69.97z"/>
	</g>
	<g>
		<path d="M33.29,75.24c-0.04,0-0.09-0.01-0.12-0.04c-0.09-0.07-0.11-0.21-0.04-0.31l8.72-12.49c0.07-0.1,0.2-0.12,0.29-0.04
			c0.09,0.07,0.11,0.21,0.04,0.31l-8.72,12.49C33.42,75.21,33.35,75.24,33.29,75.24z"/>
	</g>
	<g>
		<path d="M33.06,82.45c-0.04,0-0.08-0.01-0.11-0.04c-0.1-0.07-0.12-0.2-0.06-0.31c2.97-4.87,6.13-9.7,9.39-14.36
			c0.07-0.1,0.2-0.12,0.29-0.04c0.09,0.07,0.11,0.21,0.04,0.31c-3.26,4.65-6.41,9.47-9.38,14.33
			C33.19,82.41,33.13,82.45,33.06,82.45z"/>
	</g>
	<g>
		<path d="M33.77,86.95c-0.04,0-0.09-0.01-0.13-0.05c-0.09-0.07-0.11-0.21-0.04-0.31l9.46-13.25c0.07-0.1,0.2-0.12,0.29-0.04
			c0.09,0.07,0.11,0.21,0.04,0.31l-9.46,13.25C33.89,86.92,33.83,86.95,33.77,86.95z"/>
	</g>
	<g>
		<path d="M37.49,87.17c-0.04,0-0.09-0.01-0.12-0.04c-0.09-0.07-0.11-0.21-0.04-0.31l6.17-9.02c0.07-0.1,0.2-0.12,0.29-0.05
			c0.09,0.07,0.11,0.21,0.04,0.31l-6.17,9.02C37.61,87.14,37.55,87.17,37.49,87.17z"/>
	</g>
	<g>
		<path d="M41.06,86.87c-0.05,0-0.09-0.02-0.13-0.05c-0.09-0.08-0.1-0.22-0.03-0.31l2.96-3.88c0.07-0.09,0.2-0.11,0.29-0.03
			c0.09,0.08,0.1,0.22,0.03,0.31l-2.96,3.88C41.18,86.84,41.12,86.87,41.06,86.87z"/>
	</g>
	<g>
		<path class="st1" d="M122.62,88.85c-0.02-9.19,0.55-18.39,1.68-27.5c0.31-2.52,0.71-5.15,2.16-7.16c1.45-2.01,4.31-3.1,6.28-1.69
			c0.86,0.62,1.43,1.61,1.89,2.6c1.82,3.98,2.24,8.5,2.64,12.91c0.61,6.75,1.22,13.5,1.83,20.25c0.02,0.18,0.02,0.39-0.1,0.51
			c-0.08,0.08-0.2,0.1-0.31,0.12c-2.91,0.44-5.86,0.24-8.79,0.04c-1.56-0.11-3.12-0.21-4.68-0.32
			C124.28,88.55,123.34,88.49,122.62,88.85z"/>
	</g>
	<g class="st2">
		<path d="M45.76,39.95c-0.01-0.11-0.02-0.21-0.02-0.26c-0.07-0.51-0.03-1.1-0.31-1.54c-0.21-0.34-0.67-0.41-1-0.21
			c-0.43,0.25-0.41,0.76-0.31,1.2c0.05,0.5,0.06,1,0.09,1.5c-0.01,0.66-0.08,1.89-0.36,3.01c-0.8,3.61-2.61,5.25-4.67,5.66
			c-1,0.08-1.41,0.18-2.9,0.13c-0.23-0.01-1.18-0.1-1.41-0.12c-0.63-0.09-1.26-0.21-1.88-0.31c-0.22-0.06-0.45-0.03-0.65,0.09
			c-0.63,0.36-0.5,1.45,0.2,1.63c0.22,0.06,0.43,0.12,0.65,0.18c0.07,0.11,0.18,0.2,0.31,0.24c0.77,0.26,1.55,0.56,2.36,0.62
			c0.48,0.02,0.95,0,1.43-0.01c0.46,0.03,0.92,0.03,1.38-0.02c0.03,0,0.06,0,0.08,0c2.13,0.1,4.02-1.24,5.39-2.88
			c1.44-1.69,2.12-4.99,2.17-6.32C46.44,41.74,46.41,40.33,45.76,39.95z"/>
	</g>
	<g class="st2">
		<path d="M46.44,87.84c-0.01-0.11-0.02-0.26-0.02-0.39c0.26-0.84,0.04-1.79,0.08-2.67c-0.07-2.24-0.12-2.48-0.37-4.94
			c-0.33-2.92-0.77-6.35-1.08-9.94c-0.35-2.72-0.84-8.96-1.7-13.15c-0.2-0.56-0.29-1.33-0.72-1.73c-0.12-0.27-0.24-0.54-0.38-0.8
			c-0.32-0.47-0.46-1.19-1.02-1.38c-0.67-0.22-1.28,0.63-0.91,1.26c2.13,3.26,2.02,6.56,2.05,10.79c0.32,6.47,0.02,12.94,0.18,19.41
			c0.01,1.38-0.04,2.2-0.05,2.97c0,0.5-0.05,1,0.05,1.5c0,0.01,0,0.03,0.01,0.04c0,0.01,0,0.03,0.01,0.04
			c0.01,0.03,0.01,0.03,0.01,0.02c0.07,0.33,0.29,0.62,0.58,0.73c0.56,0.16,0.91,0.03,1.12-0.25c0.85,0.67,2.32,0.02,2.19-1.32
			C46.46,87.97,46.45,87.91,46.44,87.84z"/>
	</g>
	<g class="st2">
		<path d="M90.85,40.49c-0.77,0.21-0.78,1.06-0.82,1.75c0.07-0.64-0.02,0.31-0.06,0.72c-0.35,2.15-0.81,3.27-1.47,4.07
			c-1.04,1.21-3.77,2.56-4.91,2.7c-0.05,0-0.06,0-0.07,0.01c-0.16-0.03-0.43-0.07-0.56-0.09c-0.4-0.06-0.81-0.12-1.21-0.06
			c-0.12,0.02-0.24,0.04-0.31,0.05c-0.36,0.02-0.74-0.02-1.06,0.14c-1.2,0.48-0.81,2.49,0.46,2.46c1.34,0.03,0.2,0.1,1.71,0.05
			c0.34-0.04,0.67-0.09,1.01-0.15c1.42-0.12,2.96-0.54,4.8-1.59c2.51-1.57,3.83-4.78,3.88-7.81C92.19,41.63,92.34,40.31,90.85,40.49
			z"/>
	</g>
	<g class="st2">
		<path d="M92.18,85.69c-0.07-0.7-0.08-1.45-0.22-2.13c-0.2-1.1-0.2-1.14-0.26-1.51c-0.11-2.06-0.22-8.39-0.63-11.87
			c-0.17-2.18-0.51-4.91-0.69-6.22c-0.24-2.42-0.51-4.84-1.19-7.17c-0.47-1.55-1.17-3.36-2.43-4.33c-0.96-0.48-1.83,0.92-1.07,1.7
			c2.48,2.89,2.07,6.74,2.1,11.71c0.2,2.41,0.17,4.83,0.43,7.23c0.27,2.57,0.71,4.47,0.89,9.04c0.01,1.94-0.18,2.88,0.31,4.98
			c-0.03-0.1-0.03-0.06,0.03,0.34c0.04,0.2,0.08,0.4,0.14,0.59c0,0.03,0.01,0.05,0.01,0.09c0.07,0.15,0.12,0.31,0.19,0.46
			c0.36,0.98,1.8,0.97,2.12-0.06c0.05-0.13,0.08-0.27,0.12-0.4c0.02-0.12,0.03-0.2,0.03-0.26c0.01-0.1,0.02-0.2,0.03-0.3
			C92.11,87.17,92.15,86.9,92.18,85.69z"/>
	</g>
	<g class="st2">
		<path d="M138.08,41.23c-0.35-0.4-1.03-0.1-1.01,0.45c0.01,0.57-0.51,1.91-0.8,2.89c-0.66,1.95-2.08,3.52-4.41,4.67
			c-0.78,0.33-2.69,0.75-4.44,0.7c-0.38-0.01-0.93-0.18-1.79-0.37c-0.22-0.07-0.47-0.03-0.66,0.09c-0.65,0.37-0.51,1.5,0.21,1.68
			c2.95,1.03,6.34,0.43,9.01-1.18c1.06-0.82,2.16-1.74,2.65-3.09c-0.01,0.04-0.09,0.2-0.06,0.16c0.41-0.71,0.74-1.48,0.98-2.28
			c0.28-0.75,0.4-2.04,0.4-2.4C138.19,42.13,138.4,41.59,138.08,41.23z"/>
	</g>
	<g class="st2">
		<path d="M139.57,86.47c-0.08-1.28-0.17-2.56-0.27-3.83c-0.11-1.48-0.23-2.96-0.36-4.44c-0.39-0.07-0.81,0.03-1.14,0.28
			c-0.05-3.61-0.18-7.22-0.46-10.83c-0.31-4.31-0.48-6.75-0.97-8.62c-0.24-1.85-0.58-2.78-0.87-3.4c-0.43-1.09-1.08-2.05-1.82-2.92
			c-0.38-0.4-0.67-1.06-1.28-1.06c-0.77-0.02-1.19,1.06-0.63,1.63c1.33,1.6,1.34,2.03,1.64,3.37c0.16,1.16,0.19,1.19,0.36,2.8
			c0.02,0.36,0.01,0.71,0.01,1.07c0.01-0.05,0.02-0.11,0.02-0.17c-0.01,1.12,0.26,2.27,0.29,3.41c0.11,3.75,0.26,7.5,0.34,11.24
			c0.12,3.63,0.25,7.26,0.41,10.89c0.05,0.57,0.03,1.17,0.17,1.73c0,0.05,0,0.1,0.01,0.18c-0.02,0.48,0.03,1,0.38,1.35
			c0.57,0.63,1.63,0.48,2.03-0.28c0.05-0.09,0.08-0.18,0.11-0.27c0.61,0.6,1.63,0.46,2.11-0.24
			C139.63,87.73,139.6,87.1,139.57,86.47z"/>
	</g>
	<g>
		<path d="M37.51,52.56c-1.21,0-2.44-0.22-3.62-0.66c-0.78-0.29-1.38-0.61-1.89-1.02c-1.04-0.83-1.82-2.09-2.38-3.87
			c-0.35-1.1-0.53-2.09-0.55-3.04c-0.03-1.16,0.18-2.38,0.63-3.73c0.76-2.29,1.97-4.2,3.51-5.54c1.76-1.53,3.96-2.28,6.03-2.05l0,0
			c2.02,0.23,3.98,1.72,5.38,4.09c1.09,1.85,1.67,4.16,1.67,6.68c0,1-0.09,1.87-0.28,2.64c-0.61,2.51-2.47,4.72-4.87,5.76
			C40.02,52.31,38.78,52.56,37.51,52.56z M38.49,33.93c-1.55,0-3.16,0.64-4.49,1.79c-1.36,1.18-2.44,2.9-3.12,4.95
			c-0.4,1.2-0.58,2.26-0.56,3.26c0.02,0.81,0.18,1.68,0.48,2.65c0.48,1.51,1.11,2.57,1.95,3.23c0.41,0.32,0.9,0.59,1.55,0.83
			c2.14,0.8,4.46,0.78,6.37-0.05c2.04-0.89,3.63-2.76,4.14-4.87c0.16-0.66,0.24-1.42,0.24-2.31c0-2.27-0.52-4.34-1.48-5.98
			c-0.56-0.96-2.13-3.21-4.46-3.48l0,0C38.9,33.94,38.69,33.93,38.49,33.93z"/>
	</g>
	<g>
		<path d="M39.14,89.76c-2.81,0-5.75-0.1-8.88-0.29c-0.33-0.02-0.59-0.32-0.58-0.67c0.15-9.68,0.62-18.4,1.44-26.65
			c0.26-2.61,0.59-5.12,1.79-7.27c1.18-2.1,3.67-4.06,6.35-3.42c2.68,0.64,4.45,3.5,5.27,8.48c1.57,9.55,2.29,19.35,2.98,28.84
			c0.01,0.18-0.04,0.35-0.15,0.48c-0.11,0.13-0.26,0.22-0.43,0.23C44.44,89.67,41.85,89.76,39.14,89.76z M30.92,88.19
			c5.61,0.33,10.62,0.34,15.29,0.03c-0.68-9.24-1.4-18.78-2.92-28.04c-0.72-4.41-2.18-6.9-4.32-7.42c-1.99-0.48-4.03,1.05-5.01,2.81
			c-1.08,1.91-1.37,4.18-1.62,6.72C31.55,70.32,31.09,78.79,30.92,88.19z"/>
	</g>
	<g>
		<path d="M32.72,113.93C32.72,113.93,32.72,113.93,32.72,113.93c-0.34,0-0.62-0.3-0.62-0.66l0.04-24.19c0-0.37,0.28-0.66,0.62-0.66
			c0,0,0,0,0,0c0.34,0,0.62,0.3,0.62,0.66l-0.04,24.19C33.34,113.63,33.06,113.93,32.72,113.93z"/>
	</g>
	<g>
		<path d="M44.53,114.11C44.53,114.11,44.53,114.11,44.53,114.11c-0.34,0-0.62-0.3-0.62-0.66c0.01-8.07-0.15-16.25-0.49-24.32
			c-0.01-0.37,0.25-0.67,0.59-0.69c0.34-0.02,0.63,0.27,0.65,0.63c0.33,8.09,0.5,16.29,0.49,24.38
			C45.15,113.81,44.87,114.11,44.53,114.11z"/>
	</g>
	<g>
		<path d="M31.56,62.1c-0.15,0-0.31-0.06-0.43-0.18c-6.23-6.26-12.31-12.86-18.07-19.61c-0.23-0.27-0.21-0.69,0.04-0.94
			c0.25-0.25,0.65-0.23,0.88,0.04c5.74,6.72,11.8,13.3,18.01,19.54c0.25,0.25,0.26,0.67,0.03,0.94
			C31.89,62.03,31.72,62.1,31.56,62.1z"/>
	</g>
	<g>
		<path d="M44.29,62.97c-0.12,0-0.25-0.04-0.36-0.12c-0.28-0.21-0.35-0.62-0.15-0.92c4.78-7.28,9.88-14.47,15.16-21.35
			c0.22-0.28,0.61-0.32,0.87-0.09c0.26,0.23,0.3,0.65,0.09,0.93c-5.26,6.86-10.34,14.02-15.11,21.27
			C44.68,62.87,44.48,62.97,44.29,62.97z"/>
	</g>
	<g>
		<g>
			<path d="M83.42,52.56c-1.2,0-2.44-0.22-3.62-0.66c-0.78-0.29-1.38-0.61-1.89-1.02c-1.04-0.83-1.82-2.1-2.38-3.87
				c-0.35-1.1-0.53-2.09-0.55-3.04c-0.03-1.16,0.18-2.38,0.63-3.73c0.76-2.29,1.97-4.2,3.51-5.54c1.76-1.53,3.96-2.28,6.03-2.05l0,0
				c2.02,0.23,3.98,1.72,5.38,4.09c1.09,1.85,1.67,4.16,1.67,6.68c0,1-0.09,1.87-0.28,2.64c-0.61,2.51-2.47,4.72-4.87,5.76
				C85.93,52.31,84.69,52.56,83.42,52.56z M84.39,33.93c-1.55,0-3.16,0.64-4.49,1.79c-1.36,1.18-2.44,2.9-3.12,4.95
				c-0.4,1.2-0.58,2.26-0.56,3.26c0.02,0.82,0.18,1.68,0.48,2.65c0.48,1.51,1.11,2.57,1.95,3.23c0.41,0.32,0.9,0.59,1.55,0.83
				c2.14,0.8,4.46,0.78,6.37-0.05c2.04-0.89,3.63-2.76,4.14-4.87c0.16-0.66,0.24-1.42,0.24-2.31c0-2.27-0.52-4.34-1.48-5.98
				c-0.56-0.96-2.13-3.21-4.46-3.48l0,0C84.81,33.94,84.6,33.93,84.39,33.93z"/>
		</g>
		<g>
			<path d="M85.05,89.76c-2.81,0-5.75-0.1-8.88-0.29c-0.33-0.02-0.59-0.32-0.58-0.67c0.15-9.69,0.62-18.4,1.43-26.65
				c0.26-2.61,0.59-5.13,1.79-7.27c1.18-2.1,3.67-4.06,6.35-3.42c2.68,0.64,4.45,3.5,5.27,8.48c1.57,9.55,2.29,19.36,2.98,28.84
				c0.01,0.18-0.04,0.35-0.15,0.48c-0.11,0.13-0.26,0.22-0.43,0.23C90.35,89.67,87.76,89.76,85.05,89.76z M76.83,88.19
				c5.61,0.33,10.62,0.34,15.29,0.03c-0.68-9.24-1.4-18.78-2.92-28.04c-0.72-4.41-2.18-6.9-4.32-7.42
				c-1.99-0.48-4.03,1.05-5.01,2.81c-1.08,1.91-1.37,4.18-1.62,6.72C77.46,70.31,77,78.79,76.83,88.19z"/>
		</g>
		<g>
			<path d="M78.63,113.93C78.62,113.93,78.62,113.93,78.63,113.93c-0.34,0-0.62-0.3-0.62-0.66l0.04-24.19
				c0-0.37,0.28-0.66,0.62-0.66c0,0,0,0,0,0c0.34,0,0.62,0.3,0.62,0.66l-0.04,24.19C79.24,113.63,78.97,113.93,78.63,113.93z"/>
		</g>
		<g>
			<path d="M90.44,114.11C90.44,114.11,90.44,114.11,90.44,114.11c-0.34,0-0.62-0.3-0.62-0.66c0.01-8.07-0.15-16.25-0.49-24.32
				c-0.01-0.37,0.25-0.67,0.59-0.69c0.34-0.02,0.63,0.27,0.65,0.63c0.33,8.09,0.5,16.29,0.49,24.38
				C91.06,113.81,90.78,114.11,90.44,114.11z"/>
		</g>
		<g>
			<path d="M77.47,62.1c-0.15,0-0.31-0.06-0.43-0.18c-6.23-6.26-12.31-12.86-18.08-19.61c-0.23-0.27-0.21-0.69,0.04-0.94
				c0.25-0.25,0.65-0.23,0.88,0.04c5.75,6.72,11.81,13.3,18.01,19.54c0.25,0.25,0.26,0.67,0.03,0.94
				C77.8,62.03,77.63,62.1,77.47,62.1z"/>
		</g>
		<g>
			<path d="M90.2,62.97c-0.12,0-0.25-0.04-0.36-0.12c-0.28-0.21-0.35-0.62-0.15-0.92c4.78-7.28,9.88-14.47,15.16-21.35
				c0.22-0.28,0.61-0.32,0.87-0.09c0.27,0.23,0.3,0.65,0.09,0.93c-5.26,6.86-10.34,14.02-15.11,21.27
				C90.59,62.87,90.39,62.97,90.2,62.97z"/>
		</g>
	</g>
	<g>
		<g>
			<path d="M129.77,52.56c-1.21,0-2.44-0.22-3.62-0.66c-0.78-0.29-1.38-0.61-1.89-1.02c-1.04-0.83-1.82-2.1-2.38-3.87
				c-0.35-1.1-0.53-2.09-0.55-3.04c-0.03-1.16,0.18-2.38,0.63-3.73c0.76-2.29,1.97-4.2,3.51-5.54c1.76-1.53,3.96-2.28,6.03-2.05l0,0
				c2.02,0.23,3.98,1.72,5.38,4.09c1.09,1.85,1.67,4.16,1.67,6.68c0,1-0.09,1.87-0.28,2.64c-0.61,2.51-2.47,4.72-4.87,5.76
				C132.28,52.31,131.04,52.56,129.77,52.56z M130.74,33.93c-1.55,0-3.16,0.64-4.49,1.79c-1.36,1.18-2.44,2.9-3.12,4.95
				c-0.4,1.2-0.58,2.26-0.56,3.26c0.02,0.81,0.18,1.68,0.48,2.65c0.48,1.51,1.11,2.57,1.95,3.23c0.41,0.32,0.9,0.59,1.55,0.83
				c2.14,0.8,4.46,0.78,6.37-0.05c2.04-0.89,3.63-2.76,4.14-4.87c0.16-0.67,0.24-1.42,0.24-2.31c0-2.27-0.52-4.34-1.48-5.98
				c-0.56-0.96-2.13-3.21-4.46-3.48l0,0C131.16,33.94,130.95,33.93,130.74,33.93z"/>
		</g>
		<g>
			<path d="M131.4,89.76c-2.81,0-5.75-0.1-8.88-0.29c-0.33-0.02-0.59-0.32-0.58-0.67c0.15-9.68,0.62-18.4,1.43-26.65
				c0.26-2.61,0.59-5.12,1.79-7.27c1.18-2.1,3.67-4.06,6.35-3.42c2.68,0.64,4.45,3.5,5.27,8.48c1.57,9.55,2.29,19.35,2.98,28.84
				c0.01,0.18-0.04,0.35-0.15,0.48c-0.11,0.13-0.26,0.22-0.43,0.23C136.69,89.67,134.11,89.76,131.4,89.76z M123.18,88.19
				c5.61,0.33,10.62,0.34,15.29,0.03c-0.68-9.24-1.4-18.78-2.92-28.04c-0.72-4.41-2.18-6.9-4.32-7.42
				c-1.99-0.48-4.03,1.05-5.01,2.81c-1.08,1.91-1.37,4.18-1.62,6.72C123.81,70.32,123.34,78.8,123.18,88.19z"/>
		</g>
		<g>
			<path d="M124.97,113.93C124.97,113.93,124.97,113.93,124.97,113.93c-0.34,0-0.62-0.3-0.62-0.66l0.04-24.19
				c0-0.37,0.28-0.66,0.62-0.66c0,0,0,0,0,0c0.34,0,0.62,0.3,0.62,0.66l-0.04,24.19C125.59,113.63,125.32,113.93,124.97,113.93z"/>
		</g>
		<g>
			<path d="M136.79,114.11C136.79,114.11,136.79,114.11,136.79,114.11c-0.34,0-0.62-0.3-0.62-0.66c0.01-8.08-0.15-16.26-0.49-24.32
				c-0.01-0.37,0.25-0.67,0.59-0.69c0.33-0.02,0.63,0.27,0.65,0.63c0.33,8.08,0.5,16.28,0.49,24.38
				C137.41,113.81,137.13,114.11,136.79,114.11z"/>
		</g>
		<g>
			<path d="M123.82,62.1c-0.15,0-0.31-0.06-0.43-0.18c-6.23-6.26-12.31-12.86-18.07-19.61c-0.23-0.27-0.21-0.69,0.04-0.94
				c0.25-0.25,0.65-0.23,0.88,0.04c5.74,6.72,11.8,13.3,18.01,19.54c0.25,0.25,0.26,0.67,0.03,0.94
				C124.14,62.03,123.98,62.1,123.82,62.1z"/>
		</g>
		<g>
			<path d="M136.55,62.97c-0.12,0-0.25-0.04-0.36-0.12c-0.28-0.21-0.35-0.62-0.15-0.92c4.78-7.29,9.89-14.47,15.16-21.35
				c0.22-0.28,0.61-0.32,0.87-0.09c0.27,0.23,0.3,0.65,0.09,0.93c-5.26,6.86-10.34,14.01-15.11,21.27
				C136.93,62.87,136.74,62.97,136.55,62.97z"/>
		</g>
	</g>
	<g>
		<path d="M151.75,115.03L151.75,115.03L13.27,115c-0.34,0-0.63-0.3-0.63-0.66c0-0.37,0.27-0.66,0.61-0.66l0,0h0.03l138.48,0.03
			c0.34,0,0.62,0.3,0.62,0.66C152.37,114.73,152.09,115.03,151.75,115.03z"/>
	</g>
	<g>
		<path d="M30.36,123.46c-0.33,0-0.61-0.28-0.62-0.64c-0.01-0.37,0.26-0.67,0.6-0.68c38.75-1.25,78.06-1.58,116.83-1
			c0.34,0.01,0.62,0.31,0.61,0.67c0,0.36-0.28,0.65-0.62,0.65c0,0-0.01,0-0.01,0c-38.75-0.58-78.04-0.25-116.77,1
			C30.37,123.46,30.36,123.46,30.36,123.46z"/>
	</g>
	<g>
		<path d="M70.84,132.39c0,0-0.01,0-0.01,0l-29.29-0.57c-0.34-0.01-0.62-0.31-0.61-0.67c0.01-0.36,0.28-0.65,0.62-0.65
			c0,0,0.01,0,0.01,0l29.29,0.57c0.34,0.01,0.62,0.31,0.61,0.67C71.46,132.1,71.18,132.39,70.84,132.39z"/>
	</g>
</g>
</svg>
